<mxfile host="app.diagrams.net" agent="Mozilla/5.0 (Windows NT 10.0; Win64; x64) AppleWebKit/537.36 (KHTML, like Gecko) Chrome/131.0.0.0 Safari/537.36" version="26.0.6">
  <diagram name="Page-1" id="kz51gKFsjwFSq_Rm-GPr">
    <mxGraphModel dx="978" dy="524" grid="1" gridSize="10" guides="1" tooltips="1" connect="1" arrows="1" fold="1" page="1" pageScale="1" pageWidth="827" pageHeight="1169" math="0" shadow="0">
      <root>
        <mxCell id="0" />
        <mxCell id="1" parent="0" />
        <mxCell id="J4qLSyVt3dmGyAHXw3Ad-1" value="" style="rounded=0;whiteSpace=wrap;html=1;fontColor=light-dark(#ffffff, #ededed);" vertex="1" parent="1">
          <mxGeometry width="860" height="1560" as="geometry" />
        </mxCell>
        <mxCell id="J4qLSyVt3dmGyAHXw3Ad-72" value="" style="shape=image;verticalLabelPosition=bottom;labelBackgroundColor=default;verticalAlign=top;aspect=fixed;imageAspect=0;image=data:image/jpeg,/9j/4AAQSkZJRgABAQAAAQABAAD/2wBDAAMCAgMCAgMDAwMEAwMEBQgFBQQEBQoHBwYIDAoMDAsKCwsNDhIQDQ4RDgsLEBYQERMUFRUVDA8XGBYUGBIUFRT/2wBDAQMEBAUEBQkFBQkUDQsNFBQUFBQUFBQUFBQUFBQUFBQUFBQUFBQUFBQUFBQUFBQUFBQUFBQUFBQUFBQUFBQUFBT/wgARCADIAMgDASIAAhEBAxEB/8QAHAABAAIDAQEBAAAAAAAAAAAAAAcIBAUGAwIB/8QAGwEBAAIDAQEAAAAAAAAAAAAAAAQFAQIDBgf/2gAMAwEAAhADEAAAAbUgAAAAAAAAAAAAAAAAAAAAAAAAAAAAAAAAAAAAAAAAarQVai+lmXkI3QPdyfIlbGeV6PurFobL517EA7ce9i2J1b9HkXpYVaS7j9JRqyU3xUpiZ5IAABjZMZaS69aZItN9h4TFvVWiRQxZ2PMXcx1p9IUxU5zwslX/AObCsxTHt66k514rK6S3GkmjPvM0Jcra5m/gmdrb5QHWsAAQlNsUcLmtfV/ExV30Pr4DsVtZ/h6gz10HZ6yIQg64XOaTKtypKey17a2vtwOU7U9ZLIdD5M14jWzESQ/W7ey9frAzPHhK82AAxcpjPPxJ6QXX/QLpVVlzjs6RbeWjNvcdeIrzYquvKzSvFEu6TLHU+txSSX5T4vHUKwusiN5VqHJOkuyuaWXzcM6gAAeVVLYYXC5prPMW4ED33JzNGOs52FoqsWjq/wBqb4nmBbKayPytu2wdJk0x7naPaL526w+gneICT54AAAADygefXOxox53AgKt+jcV84aPfN1pQdVPvaoiaxuwWXzcO1SAAAAAAAByMN2ScLmrcvyKx1/P0kUIAAAAAAAAAAAAAAAAAAAAAAAAAAAAAAAAAAAAAAAAAAAH/xAApEAACAgICAAYBBAMAAAAAAAAEBQMGAQIABxARExUgMBQSISVwIzRA/9oACAEBAAEFAv6bYtBVULDsvyzv2A32zB2I1iyp7DDM212xvr4ubsAp2K7HYy5xfnGMhdlz65UWEF3r9VmssVfGPYkNCPhVrbKklhm0Ii5cLltJv8IZtx5ahb/d8fQSRoIO3ZyOGHMCzZi8FNUYuY29dOSZ6/sPoTXuw+2iLlhLYg2itQoPCMWaXTkM248yJrq5V/PsE38ZDyiqImrfyx5X9RCtYix6ykxx6wx2KCMlHpvtHuyYStTeuoI9EfLiPGNY6qsjbu44tIY+xlMMGedZGZ+js7/X5WXmULLFwUZgsziSzMdELKTiV60hFtDVszFmEnG5FDJPtVJ3COQywm4gNTuCCFs5VfZC3JSTBc7NG9m51xnPv3z7HF9VMorZzvIHW4kXBa4sC5MUKDrLcU8OeOHQyODS8JZ8ZuKMTVRZwXZHCLSsDLHaBG8JSgGYO67XEcc0w9RzrMXOS/mSNEZAwbgIoWPZW+eJjfcVVnj9KwYz5Zi39SLszP8AH+HW+f5zlpl9aw6a533/AGijF7JIjmUWpe54MFAH9PYaHP6udcNcSCdiA/ju+VM386v9l6eavw61j83BM+oo882xE1XCye+ujXCxJykIMtWP0yxazR2qtboS1jCVUdaNYbPWOdcuMQE30f1654dZD/4+wnOBF3OuwNR4rO92fMkyed2asXQqQvqMDhPGstVnQy16wSoiWkEEJcUu0MilxFbke+uY9+V4iCsVFoylbHQQ5ImeP9ZREqMl4SkSDohPsli0njsdA2j5vptFvwM2ZeQYTk0rjNtO138K9SCWuQQIFo33uq0E81dUg9V8VFZPdbI6SEo/5G1VXOOM+uzReLaGzOypoq5bzGMa4/qD/8QANREAAQMCAgUJCAMBAAAAAAAAAQIDBAAFESESMUFRYRMgInGBobHB0QYUFSMyNOHwMFDxkf/aAAgBAwEBPwH+ptdlXO+a5kjx6qatEFoYBsHrzp+ywnxhoaPVVxtrtvc0VZpOo1Cguz3eTb7TuqNY4bA6SdI8fSnLTBdGBaHZl4VdLEqIkvMZp7xzYjHvL6Gd5p1xuDHK8OikVbr4Jz3IqRok6qvNzXb0pS0M1VEe+Ow1tvjAj9Boj4Db8UjFZ8fxVmu7s5amXhnhjlV0vIt6w0E6RqHKROYDwGurlGESUtoatnMsygme0Tv8quE+C0lTMhWOOwVFmxYTvKRmlKOzE+gq4XN2QgJlR8BsxxFW+4vsM/Ii4o4Y/mplzkvMqDkToccfxVuuC45Iix8Tt1k1OnsTlAymilQ3HyIq2XC38mmOwrDr/cK9oFAz1AbAOYCUnEVaLVCfZEhfTPgatSPcro7HO3V4jur2nbJabc3Ej/v+VYPsE9vjV2+xd6q9mGzyjjvDCr+kyZLEVGv1/wAq5WiAhlT30YbvSioqOKubbLiu3u460nWKkNJnBudDOKk9/CpTCLhGLZ291WALZQ5FdyUk+NX1R905FGZWQPOrbDFvjBs69ZphgIdXcZWWOrgPU1d7oZ69FH0Dv48+HPfgr0mj2bDUG9xpnRUdFW4+RrQTpaeGdFCSoKIzFTbvGhZKOKtw/cqn3N+erp5J3fxRLtLh5IViNxqVe5krLS0Rw/rv/8QAJREAAgIBAgYDAQEAAAAAAAAAAQIAAxESIQQTIDEyQSIzUDBh/9oACAECAQE/Afybbgmw7w3OfcW919yuwWCO4rGTGvdoLXHuVX69m6XbSpMALtLKNAzmU1CzvHHIcFZ99n+S6kIMiVU8wZjrobErbWoPRd9Zldbk5WMjOMMZXUFPxaWVqx+TRKlB2beWVhvJolZTxMtrszqacP8AX03Wup0y066g04U7kTiPslXmJxR2AnD/ABVmldzk479VtYsEU6Mo8VuW2ZxGCQwlHnk+pY/MbMY5ArWU1csb9+t61cbx6GSZ9TMSlnldS19v5PSj94tCL+d//8QAQhAAAgECAgUGCgcHBQAAAAAAAQIDAAQRIRASMUFRExQiI2FxBTAyQlKBkaGxwSAkM0NTYnJAY3Bz0eHwFYOTwvH/2gAIAQEABj8C/g3yt1MsS7sdp7qIsrXH88x+QrKSNOwR10+RmH5kw+FCO6Q2jnzscUoMpDKcwR9AxqedTjzI9g7zXUxwwL3axr7aM/7YoC7tUcelEcDX1aXp74myYeL3SXL/AGcfzNNPcyGSQ8d30RFMTLZNtX0O0UskbB42GIYb9D2NhJhGMpJl87sH0VkicxuuYZTmK5rdELeDY34n9/EyTSHCONSxNS3Uu1jkPRG4aOU5F+T9PVy08pDEFi3SSHAGhzmLoHZIuamv9Nnbq3+yJ3NwrmcDYXE46RHmrXI2sRlf3Dvoy8mkwG0RNiRpLJE7qN6riNCSxtqyIdZSN1Q3Q8phg44Nv8RyQOc7hPVt0Ezrrxwrr6h3ndWGGVRSwKI1uASVGzEf+1EjHBWYAmlRBqoowAG6r5ZB0eSZvWBjSup1WU4gipLmY9Y9NKv2kkh1j3aLtIslxDYDiRiagglzizZhxApUjUIi5BV2CoL2JQjSNqSYbzx0XloTllIPgfl4iw4azfLQJ9XXiYakijhXK89QD0fO9lBoIXMMY1YwBie+ujYXP/EaSK/8E3UjKMOVjXM94NG1tvBV1DC3lsUxZuzKuuhki/WpFYRozngoxplHg24mtpM2QoR6xR5r4Gu2m3cqoAHvqSeeyuWkc6zHkzUN0beRTGc1dSMRvoSc6WI70kyIqKK3x5vDj0j5x0SfyG+I8RHMPupc+4/4K+rxYRb5XyWgbueS4b0V6IrqrKEdrLrH311ssVuv5mC1gb1WP5AW0JNc62ozag1RjWDXGrjueM1qpcrhwjjP9KeG1LllXWOsuGWh7aa6EcyZEFTXU3UMvYrg111nC/bqDGsYGktW7DrD30XC85gH3ke7vFXlxhkqBPaf7eIaGZBJE21TvpeXlSEAdGNdvqFFbG1Cj05v6Va3JzaSMFu/fV+P3pPtz0I42MMasx+9Pw0zfyD8Rov2H4pHsypVG0nCszko20wnt0mi1sivRYCgsUupKfupMmqTkYli5RtdtUbT4keE4RiMlmHwOiWwY9OM66fpO33/ABpZ8OjOgPrGX9NFm+OLKvJn1ZVavwmw9x03D7lhw94qWZ/IjUsaklbynYsas48MQH127hnUoB62fqk+fu0CeRfq1ucT+Ztw8U0bqHRhgVO+sUxazkPVtw7DUV1D5aHZx7KW+tek0PWYbx6Q/wA4aJbCRsFl6cf6t/8AnZUx/CZX+Xz030/EqgoWSHrbjyuxNF14UnOpGBqKzcNrGjIMoE6MS9nGlt4B+p9yjjUdtAMET2nt8W8E6CSJxgQaLrjLZsejJw7DRIHKW0mUsJ3imNq+vbP0ozvA4HtFLIjFXU4gjdU9sxC3ZjKSJ/2FFWGDA4EaI7m5OBlxkC72J2D2YVLdTHpudnAcKSMEDWOGJ2CovBlj0fB8Iwx2GU8a5K3Xo+fIfJWhDAM9rudrHxrRyKHRhgVbYaa48GdJdpt947qKOpRhkQd2hZ7eQxSrsYVJOyhWkOsQuzHfoQynCOMascY8lBpWa61rW17R0m7qWC2jEUY3D9g66PVl3TJk1F4153B6cYzHePojkYSsX4z5LQkk+tXA85xkO4fshMsOpKfvY8m/vRa0dbtOHktQMqC0j4y7fZQeRedy8ZdnsrAZD+EP/8QAKRABAAECBAUEAwEBAAAAAAAAAREAMSFBUWEQcYGRoTCxwfAg0eFAcP/aAAgBAQABPyH/AI2ryBdiLtBA7L7rvU3C0UeZoDHSfIFYEtpeVc7daPyMlImv4MswCpL2TzTPTWLuOHip47Fqz2LV2mZ8VORiT4Kz5npg2A7v0Pes4jtg0DI/FPkQjL9NqCeJ2QOfC+Sn4rNdN8+V/wAEiVghOdAZh0g/VvR2J0MBNPZ0XknCGV0H58Zzn7FM3tWEk8PkaTl1pbv5ZzuV9+dKExZWNvu270cuIxgOqsVGA0w25IT0njcT0wOvB8RNyRaolSAcqz7knoNhJpyYvY78ApaPJgDtn0oKIEIjKsOeU4YlNJhWwO3hcaO+FbgWKEsiY5QD3CmRiXASzQzlSYsQQBQ8G51gHz14FoIiwB8jQh5rRAmOuFEliAgNinW8AxhSc2D44bKH09AJh+s4EekbgvGTcQq14TIejBNSrrVTHFRr8VDKjX+NFgkRQ7gx3q8I9gbJQdafhX7s1uitrxS26EKOol/epRIXBbwlpdawtL0KvVkI2AxNKfEVIXZb9Joy5yBifONP3wAJZm9DQ4qTsBPeh1xSMG9c+k0Pmo/rvko4lC3mEmsFs0jzWMZIjywRwQkXZphfipPhgYf2agi7P8QqwBdDEHzwe8pDphN4jOjImc0dqWC7m8y9FuSXteLzR990OI7h7Uy8CXeR9voYatbfFNCUDDYjZy8UrkAeXtt3plogC2H5TTr5/ec6gEuUeMAnqU5kVPrrxYLJ4eCCQ+k5VbYQog4GNWhSampuIYaj4r6R7jJ6Ug8qGwYnx6K0sAmWXw9uGOvRudh0oYm5nWePLgXbBr+oHrWmXmfq4pFYmW7+qn7hL2CaxCeeCy1gPL3F7R1qN+aGeN3SXc4YD6M2ufK/30k9GNkDcqLyB+un3OtOpEuVjmuZXZeo2XcvwZiQmgwdSjmkvlZeOKJVuhJX3KzF9DIflw78AGN4QA+AHepxsXMtTd/WlXJOLG7VQx1du5rd9P7LwNnVvBCY+1d862cEDWN65xTwdqx5zoPTnoUWaTVkNUg2JjlSzGkZJwlMwXZLopJisFsobFICcRxuLkFIGlOMDd7TLH0D4VsHVfipCi8ln9erAB4kholKFbye5z5PmnkHBwrROH8vwncrXGdQuObLWdBRDt5wA7GPEwLgwD2Njd8118Njqub/AIF+FmROepzpJo8bK7vaaZGHB/BgY3wXrn0pY19ff0xZ/wAhJ3Pdvl1VFYcf1XB71mIE3ice8Uk0eURdre80YADADL/kP//aAAwDAQACAAMAAAAQ88888888888888888888888888888888888888888rv/AP8Am317zzzzgfGVP9naxzzzy98jixPmjbbzzz9MqhTiUBn7zzzy7zWD1HObzzzzzzxzx3i/zzzzzzzzw49zzzzzzzzzzzzzzzzzzzzzzzzzzzzzzzzzzzzzzzzzzzzz/8QAJhEBAAEDAwQCAwEBAAAAAAAAAREAITFBUWFxgZGhIMFQsdHwMP/aAAgBAwEBPxD8SXI7+v8ADl1wN46rJc9z6in4K3tjtjyUC2QYeHZNvFED5TA3fo1ofybd/H7eagGdEvMKQNPI+Tk5ya2l+KGaQ8Gr2JpwQsg2LAeis9gVMzBKNjS9HJZruAI0tKz2ohVUSYmJDZ3Jx1igE6CXRW+sAgxPEtEwhAiLSCJfchqT2kt4AmDRlYelROiYjeEsnP2VjfM9CSeJjt8MLMjuoPbVloI3n1h2lKa3TIRA7CX0zQCbipWkw2nSdMcUUHkZZpdVYk0rQjd8TMQvs0OhiYWnuCeOtCbyJCY2eoi+tSiRwWqrLfJXQehWkgHrE/pPgYeEuJkamcXIsGoQZ7rJDBUO4A9RJ+x4o14Q7Boxj3/ZTB3/ACSnQrA8mfqszCe0gnsJ6VGWRzguhK121oqbSu7f4xr/AJEnJ7xyHEuzSGr2chOJRzJZODJJdZJNEcnUoHrnHAsm5ZR5q1kIBlv/AB7paNzzr2C3aaQ8YgNo7E7Bk0mMqUPnHsbt30aHL88S7lew+y/NAHKyz6How8Voa2J1jMefHepEkkO05jrRb3tPdx3X2GpE4MHB13eXtH/IQivIdtTslELk6W+XPuOPx3//xAAoEQEAAgAEAwgDAAAAAAAAAAABABEhMUFRIGGxEFBxgaHB0eEwkfD/2gAIAQIBAT8Q7p1U6I3b+mES1eMvhnt2cGMGjlFrHBWU9eHkTCRqx69owrwJbDCGUteyEnwiomiKzcpeufAVEgYqrWVdBy+4kfGymSV519QO+SqGmEeULQ0d/plgF+EKB3vgQSmLRgSjtM+nWUbz+95meU9f2BQ7l8QrrQAwOGk6mUViwfTnGEaTQmkJsgsZRlpFxXvzfiDZmcdCMxoxJatkECGTMbCjeAbt/wAWICncmM1bz7u//8QAJxABAAEEAgEEAwADAQAAAAAAAREAITFBUWGBEHGRoSAwsUBw8MH/2gAIAQEAAT8Q/wBN3uyESxoyvsMboypsJA+T/uqXP2Fx933TBI7vUdMD4aR1gJk9kPLA3Q8xQSxIEsibPwbr7Dw0kppARsKA5axSztBfGgQAcaPwD91aD8BRtnC6miNiEoflbZ2J3+ua9AsBizFcPyrG0SumTqYwaD8QD1SLW8mry4uoaiebIVIH29H2NYDgCYOEcgomc/gei6YjYLlTa7gBpKgWAXRZJSIQ/QbXmCZeYMU0wUSyC3QD5ZctTakQuSog5tj79R0ziX5ZxQ1IiSJprGNnnLF1ZsBYbUMudnxcH3UPZmu6fADKTYsh0Csw0ocmPyNgO1vglpOy1rYMxChIYSE9JIp+dkEFYYbPFItxKEpR5KuW5O1j7E3J2N/oaILhm9950aSR9CMeHYlRhQMilAiGAkAxEcUI0urCJgBYLSPNXGThEaLwLRJeogIAOACgHdhzA+xHilZQdC0g6RBpgiBtAANABSq5R8CbwCg78+h2/wDgHQjlGO6UUEOkxdLwoMXhYogDRJGALBR/3UC8wcBXfoQtJJfLLHf8/oGBZKmpI/600vrgyYLm0gJzCSTNGctzy/KasR3S46hTZBDCotoG5ohDYhny0WK4kIgcAFw34KjjWFhvCFME3LixI60ZCn0KAP8Ahg8BaKB82ZEaCECNgGIElZid9lkOCJ5Kka+lhlyAaAsBal1dYtTJsSmGLMOquN9Y8XhCL3hqaEijiEXcAQTDdIek7KZHRKPyHz+hfYoFl1fi801AJA82ISzgqjUAEJLs2nZ7FE+MyP8A7M0B0kH/AGkU3seCF6X9qzRudZLzUktDv2U4L0ko4YKkwEznXg+1K9uzuLRWZka9JpSS0gWvAbokv/i1DJ5KnkTJngQHhpfXwWXtn4GikCU95F/3SRzSMBP4YUex8h+gY0AskAT5B8UMeIdLYAzwmAclXzEEXORQ8n7UOm2QwIhi0RRPoijwofVUzIE96TwQhsBP7W8WfcYf16gByZ6YWJBOYKt9MhOVA/tW5X4QAXXwU/OlFlQdAjUttJn6SI8XPlvipMbgBYJhYUGNy5Vf0LUZPLH4cQ+I5voHsWq6CD3JaoWHMbIh+A6NQ5AnMu27fAKYQuG++9c0ik0Fw+H8V0sKxy+imakHy77Foy4NpDNdP1KAgYLgY9vI08nokRLywsOYY6AHD9UGIJCoQ2I04eoZVZW4Ew6JyAholMubdREfeclIfIRnFhdBD5gkiTQXl3drQezH4ZahT7GwJnhaH0ctcqNiv4AmCvNK8RA5CralQXVZCF0XXRqA7GxIsoct3ghR2hYyZ1z/AAysBSiYljU3SZS78EAH6/4tDEjkDCJcSaEqITEjYQ9jDSGQtFIxxrlgiw4SzZopd9m7YW6JQ5gEgWTEk5Ug6RKsmFwBom3J2s6UVwkQshHsT0IUgktIHaqnAKtirlAhLS3VIO8t1ool4Mjl1gSroGpzsBJJDpseTLeCi+BRGi/IeBd8KLXjhln4A0LB2q/sQwIqyQosjU4Wsm5psO6eGwp3V15mUXE4aKfzSwMNlDIhZERpJOjUV4C2LBqYLURCbmyrZpKxgPmJFdglsB6PgMN0NlRq2QaX8gh33OukErf/AAGq0hDhiiOoPUZqVoki+QD3g5SgoEGEcn4JaS1SbREvor7UVuIC96+DOxWtH+JeS9Zbkg+C+KWkcDgziT4pPFPFrshu4l4O6ADoz3MP/wBHdAfEDgBgDR/qH//Z;textOpacity=20;textShadow=1;fontColor=default;" vertex="1" parent="1">
          <mxGeometry x="67.5" y="162.5" width="725" height="725" as="geometry" />
        </mxCell>
        <mxCell id="J4qLSyVt3dmGyAHXw3Ad-81" value="" style="rounded=0;whiteSpace=wrap;html=1;" vertex="1" parent="1">
          <mxGeometry x="94" y="480" width="60" height="60" as="geometry" />
        </mxCell>
        <mxCell id="J4qLSyVt3dmGyAHXw3Ad-2" value="&lt;h2&gt;&lt;font face=&quot;Times New Roman&quot; style=&quot;color: rgb(255, 10, 18);&quot;&gt;Heart Care Connect&lt;/font&gt;&lt;/h2&gt;" style="text;strokeColor=none;align=center;fillColor=none;html=1;verticalAlign=middle;whiteSpace=wrap;rounded=0;fontSize=18;" vertex="1" parent="1">
          <mxGeometry x="264" y="24.07" width="300" height="65.93" as="geometry" />
        </mxCell>
        <mxCell id="J4qLSyVt3dmGyAHXw3Ad-3" value="" style="shape=image;verticalLabelPosition=bottom;labelBackgroundColor=default;verticalAlign=top;aspect=fixed;imageAspect=0;image=data:image/jpeg,/9j/4AAQSkZJRgABAQEAYABgAAD/2wBDAAMCAgICAgMCAgIDAwMDBAYEBAQEBAgGBgUGCQgKCgkICQkKDA8MCgsOCwkJDRENDg8QEBEQCgwSExIQEw8QEBD/2wBDAQMDAwQDBAgEBAgQCwkLEBAQEBAQEBAQEBAQEBAQEBAQEBAQEBAQEBAQEBAQEBAQEBAQEBAQEBAQEBAQEBAQEBD/wAARCAERBQADASIAAhEBAxEB/8QAHwAAAQUBAQEBAQEAAAAAAAAAAAECAwQFBgcICQoL/8QAtRAAAgEDAwIEAwUFBAQAAAF9AQIDAAQRBRIhMUEGE1FhByJxFDKBkaEII0KxwRVS0fAkM2JyggkKFhcYGRolJicoKSo0NTY3ODk6Q0RFRkdISUpTVFVWV1hZWmNkZWZnaGlqc3R1dnd4eXqDhIWGh4iJipKTlJWWl5iZmqKjpKWmp6ipqrKztLW2t7i5usLDxMXGx8jJytLT1NXW19jZ2uHi4+Tl5ufo6erx8vP09fb3+Pn6/8QAHwEAAwEBAQEBAQEBAQAAAAAAAAECAwQFBgcICQoL/8QAtREAAgECBAQDBAcFBAQAAQJ3AAECAxEEBSExBhJBUQdhcRMiMoEIFEKRobHBCSMzUvAVYnLRChYkNOEl8RcYGRomJygpKjU2Nzg5OkNERUZHSElKU1RVVldYWVpjZGVmZ2hpanN0dXZ3eHl6goOEhYaHiImKkpOUlZaXmJmaoqOkpaanqKmqsrO0tba3uLm6wsPExcbHyMnK0tPU1dbX2Nna4uPk5ebn6Onq8vP09fb3+Pn6/9oADAMBAAIRAxEAPwD9U6KKKACiiigAooooAKKKKACiiigAooooAKKKKACiiigAooooAKKKKACiiigAooooAKKKKACiiigAooooAKKKKACiiigAooooAKKKKACiiigAooooAKKKKACiiigAooooAKKKKACiiigAooooAKKKKACiiigAooooAKKKKACiiigAooooAKKKKACiiigAooooAKKKKACiiigAooooAKKKKACiiigAooooAKKKKACiiigAooooAKKKKACiiigAooooAKKKKACiiigAooooAKKKKACiiigAooooAKKKKACiiigAooooAKKKKACiiigAooooAKKKKACiiigAooooAKKKKACiiigAooooAKKKKACiiigAooooAKKKKACiiigAooooAKKKKACiiigAooooAKKKKACiiigAooooAKKKKACiiigAooooAKKKKAPKvit+0t8Mvg74ks/B/ipfEl5rV/p76pDZaJ4fvNTk+zLJ5ZkYW8b7Bv8Aly2OSK8507/gol+zjrOl3msaL/wnmo2mmu8d9La+CdUlS0dBmRZXWHahUcsCeMVyH7RPg/XfFv7ZfhWPwD8VB4E8d2Pw6u7zw7cuVaDU5o9RTfYXMLH9/BIjMWUfMuwSL9wg87ol54q8RfEbWvGPwp0qz+Gv7R2hxI/jf4c6ldFNE8cWy5VbmJxgSfLlortBujZwk3DbjVgPTn/4KMfs0r4bTxotx43fw643f2wvgvVPsSru27jOYdmN3HB68Va1L/goR+zpo+ixeI9Xfx3Y6TP5flX9z4H1aK3fzMeXtkaAKd2RjB5yMV454Ju1trXxN8Rf2YPBsjWguJLX4tfADWI0t2t7h48XNxYxuNscxQBQqj7PcpwNrrtp3hXWvDvgH4e33iv4WWE/xQ/Zh15ZrXxN4HuLV7nWPA7MSJ0itnO97ZXZjNbP88QG+MlQclgPWvFX/BRT9mvwPZwah4xuPHGh21zJ5UMupeCtUtUkbGcK0sChiBzgHOBXO/8AD1z9iX/opWpf+E/ff/Gq+cP23NP8TeFv2NdQs/ht4itfiT8Cdfm0688N6pNerJfeFFW4Ty7MO+XurXAMSFj50JOx9wHH5R01FMD96/8Ah65+xL/0UrUv/Cfvv/jVH/D1z9iX/opWpf8AhP33/wAar8FKKfKgP3r/AOHrn7Ev/RStS/8ACfvv/jVfR3wm+K/gn42+A9N+JXw71KW/0DVvN+y3ElvJAz+XI0bZSQBhhkYcjtX8w1fv9/wS/wD+TJfh9/3Ef/S6epasB9VUUUVIBRRRQAUUUUAFFFFABRRRQAUUUUAFFFFABRRRQAUUUUAFFFFABRRRQAUUUUAFFFFABRRRQAUUUUAFFFFABRRRQAUUUUAFFFFABRRRQAUUUUAFFFFABRRRQAUUUUAFFFFABRRRQAUUUUAFFFFABRRRQAUUUUAFFFFABRRRQAUUUUAFFFFABRRRQAUUUUAFFFFABRRRQAUUUUAFFFFABRRRQAUUUUAFFFFABRRRQAUUUUAFFFFABRRRQAUUUUAFFFFABRRRQAUUUUAFFFFABRRRQAUUUUAFFFFABRRRQAUUUUAFFFFABRRRQAUUUUAFFFFABRRRQAUUUUAFFFFABRRRQAUUUUAFFFFABRRRQAUUUUAFFFFABRRRQAUUUUAFFFFABRRRQAUUUUAfDH7X2ofCKz/aq8NW3xx03U7fw3eeAngtfE+nq4k8L6mdVjNtqDTJ81qFcBRPyod1VxtY1oeMtHbxBfeG/hb+0f4kk0rxVbSCT4V/G7Q9kBu5ioZI5pB+7guZFCq9ux8m6XdsIbGL37SGufEDwz+1dp+ueEPh3a/EDRY/hbexeLPDTlftN3ozalGJ2tEYbZplyp8luJFDIPmK1xunyeD/AAb8L5tc8E6dJ8Xv2UPE6sNX8MtDJdap4GYNlzBEx85reOQ75ITiW32b0OBzQF7WLXxV4m+JGj+FfidqVh8Lf2m9Dt2Twd4606InRfHWnpnNvKpwrh2/1to/7yM4eL5W20uj3firxL8SNZ8V/DPS7P4X/tKaHCknjHwDqNzt0Px3aLwtxE44mGwHyrpBuid9k3ytuq34g/4ROz+G+n+D/jVrj/E/9nvxG0M/hT4jx3Jl1HwvOxK2y3s8fzhYycJfjBQ5SYdzQ8daPdafc+Hvhb+1F4qukaC4DfCn49aWVhntrlsNHb38wOyGZhtX5j5Nyitna4zQB87/ALXdp4V1z9nH4geOPgnql78P45NYsYfih8I9Wt/LNhqzTxlb63i6wuziMeZGPJnj5+V0K1+Z9fpv/wAFDL1JvhXeaB+0h4Pi0r42aBFaW3h7xlo6vHp3jXRxcKJMlRsWRdxle1fmNxvjIRsH8yKpAFFFFMAr9/v+CX//ACZL8Pv+4j/6XT1+ANfv9/wS/wD+TJfh9/3Ef/S6eplsB9VUUUVABRRRQAUUUUAFFFFABRRRQAUUUUAFFFFABRRRQAUUUUAFFFFABRRRQAUUUUAFFFFABRRRQAUUUUAFFFFABRRRQAUUUUAFFFFABRRRQAUUUUAFFFFABRRRQAUUUUAFFFFABRRRQAUUUUAFFFFABRRRQAUUUUAFFFFABRRRQAUUUUAFFFFABRRRQAUUUUAFFFFABRRRQAUUUUAFFFFABRRRQAUUUUAFFFFABRRRQAUUUUAFFFFABRRRQAUUUUAFFFFABRRRQAUUUUAFFFFABRRRQAUUUUAFFFFABRRRQAUUUUAFFFFABRRRQAUUUUAFFFFABRRRQAUUUUAFFFFABRRRQAUUUUAFFFFABRRRQAUUUUAFFFFABRRRQAUUUUAFFFFABRRRQAUUUUAfGn7Q2g+MNe/bR8Mf8Ks+J8Hg7x3p/wANru+0WK82tZa80epIX026jPMkMi7mJT549gkUHZWB4dvvEniDxxr3xI+BWhw+APjvouw/Eb4Uavc7NN8Up0FxHIuELldzQ3sYwWIWUYY5Z+2N/wAKduP2rvCml/G59U0bSr3wK8Wj+LdN3pL4Z1n+1Yza3xnTm2AYbRK2U3OquNrEhfFFlqWteJfDPwv/AGjvE7eFPifprN/wqz416GqQQa1xkQzDPlxzSLhZbSQmOYM3lnLDNAReCbuG0sfEPxW/ZR8Kz3OjvcyW/wAU/gNrEK2s1pdOmLia0gkGLe52gKYwPIuEBAw6AVb8P6l4K0X4X3eseA9Lk+KX7MuurJb+IPB9zatcar4HcN+8WK2fMr28cnzSW7fvINokiLKMVFdx+J/HHxNttH8TSaf8IP2q/Dtmx0nXrON28P8Aj3To8Foctj7Tbudu+Fv9IgwGXIVlHKeMvi9YeD/EGrfFzwtAfhb+0Ppc1vZ+LfhlcRTXVl493ZEX2eO3RmuWZFcw3cS5RiVmwpLUAec/tvaL418B/sj3Xh3wnrFv8VPgXrM+nX3g/wASTXST6h4TxMBHZs5ybi2MeY4pciSPcYn4C5/LOv1l+PnwB/ag+NngnWdK+A/7PeqfD3wn48FvqniPwx4g16wjibU1kjmN1aWquWtJCylXyyiRcFolfkfnL8Zv2bfjh+z7qEen/Fz4dapoKz/8e926rLaT+0dxGWiY+qhtwyMgVSA80ooopgFfv9/wS/8A+TJfh9/3Ef8A0unr8Aa/f7/gl/8A8mS/D7/uI/8ApdPUy2A+qqKKKgAooooAKKKKACiiigAooooAKKKKACiiigAooooAKKKKACiiigAooooAKKKKACiiigAooooAKKKKACiiigAooooAKKKKACiiigAooooAKKKKACiiigAooooAKKKKACiiigAooooAKKKKACiiigAooooAKKKKACiiigAooooAKKKKACiiigAooooAKKKKACiiigAooooAKKKKACiiigAooooAKKKKACiiigAooooAKKKKACiiigAooooAKKKKACiiigAooooAKKKKACiiigAooooAKKKKACiiigAooooAKKKKACiiigAooooAKKKKACiiigAooooAKKKKACiiigAooooAKKKKACiiigAooooAKKKKACiiigAooooAKKKKACiiigAooooAKKKKAPj79orWPEmi/tUWV1p/wxt/iD4cf4W3sHi3QcB7ubR31KITPawt8txIvB8k4Mi7lU7sVwt1Z+D/AAT8KD5dtN8YP2SvE6+Y9sqSXOreAvmyNin9+9rE55U/v7bYeu3B7H9oTRfHusftoeGZvhF8RrXwv450z4bXV/pdnf4Nj4hEepIX025Q/M0bruJZPnj2iQfdqh4N1zWPEXijxF8RPgV4dTwd8XdKkH/CzPhDrFwsdprjEbftEUmNglZQxivIgUk4WUc5FAct8Qr/AEPwX8Nbfwj+0drV78S/gfdKmoeAPi5pM5udW0K6Vf8ARVvJ4BkSg5WO8T5XO1ZR87Bfbv2Pfg14gs/COjfHX46X9z4n+LHibSYDJqmqxobjSNOKAwWECqoWD5Dvm2AF5XkLE8V80fFXw3P/AMKF+JXjL9k26ltfAmoW9wnxI+FOrRC2ufDM6FZLye1hPNrII42EluP3UiMzR5wgr9INJuLW70qyurF0e2mt45IWRgVZCoKkEcEYxSYFuuf8e+AfB/xQ8I6l4F8feH7TWtD1aEwXVndR7lcdiO6sDgqwwVIBBBFdBRSA/nB/bD/Z4uv2YPj1r3wtFxPdaXHs1DRbqdcPcWE2TGWxwWUh42I4LRscDpXitfot/wAFs7/R5vjx4F0+32HU7bwnvumXqInu5vKU+nKynH+171+dNaoAr9/v+CX/APyZL8Pv+4j/AOl09fgDX7/f8Ev/APkyX4ff9xH/ANLp6mWwH1VRRRUAFFFFABXGfGH4r+Ffgf8ADfW/in42W9Oi6BEk12LOESzbWkWMbVJAPzOO4712dVNU0nS9csJtK1vTLTULK4AWa2uoVlikAIIDIwIPIB5HagD4l/4fGfsh/wDPv47/APBLH/8AHqP+Hxn7If8Az7+O/wDwSx//AB6vSv2l/wBgT4BfHrwJqum6Z8P/AA94W8WG3d9L17SdNjtZYrgcp5wiC+dGSNrK+cBiVwcGv5+9S0+60nUrrSb6Py7myne3mT+66MVYfmDVpJgft1/w+M/ZD/59/Hf/AIJY/wD49R/w+M/ZD/59/Hf/AIJY/wD49X4eV9w/8Et/2Q/Bf7SXxA8Q+Lvijpsmo+FfBUVv/wAS4sUhv72ffsSUjBKIsbMVUjJMeTtyGHFID9HPgh/wUn/Zz/aA+J2j/CXwFD4sXXdcFwbU32lpDB+4t5J33OJWI+SJscdcVd+P3/BRL9n39m74iT/DD4ixeKW1m3tYLxzp+mpND5cq7lwxkU5x14r2/wAK/B/4TeBZLabwT8MfCmgS2SlbeTTdGt7Z4gVKna0aAjKkg88gnNS+KvhT8LvHTzSeNvhv4W8QPcRiKZtU0e3ujIg6KxkQkgdhU6AfIn/D4z9kP/n38d/+CWP/AOPUf8PjP2Q/+ffx3/4JY/8A49Xxp/wVQ/Yz8Dfs8694f+J/wpsV0rw14tnlsrrR0z5VhexoHDQkkkRyLvOzopQ44YBfgeqSTA/cP/h8Z+yH/wA+/jv/AMEsf/x6j/h8Z+yH/wA+/jv/AMEsf/x6vw8AJOAMk1+/n7KH7APwL+B/w30MeJvhzoniTxrcWcVxq+q61YRXckd06hnihEilYUQnYNoBIXLEk0NJAem+Ef2pPhj42/Z5u/2nNFTWB4Os7K+v5FmtFW78q0kkSXEQcgnMTYG7njpXzz/w+M/ZD/59/Hf/AIJY/wD49X2ja+FfC9jobeF7Lw3pdvozo8badFZxrbMrkl1MQGwhiSSMc5Oa8W+OX7D37OPxy8JahoOq/DLw9omq3EDLZ67pGmQ2t7Zy4wj741UyKpx8j5UjPA61OgHi/wDw+M/ZD/59/Hf/AIJY/wD49R/w+M/ZD/59/Hf/AIJY/wD49X4tePvB+pfD3xz4h8BawyNfeHNUutKuWT7rSQStGxGexKmsGr5UB+4f/D4z9kP/AJ9/Hf8A4JY//j1dX8K/+CoX7M3xi+Img/DHwjD4wGs+IrsWdmbvSo44fMIJG9hKSBwecGvzE/4Jt/sq+Hf2ofjbdWvjyOabwl4SsRqepW0bFPtsjOEht2cEFVY72YjkiMgYzkft74P+BvwX+H8dnH4I+E/hDQzYENbSWOi28MkbAY3h1Tdu9WJye5qXZAec/tLfttfBf9lHV9E0X4pR+IGuNftpbq0/syxW4XZGwVtxaRcHLD1rxj/h8Z+yH/z7+O//AASx/wDx6vsfxN4C8C+NNn/CY+C9C13ykaNP7T02G62oeqjzFOAe4r8vv+CqH7DPwy+HvgCL9oP4N+F7Xw0lheQ2Wv6Tp8SxWTRTNsiuI4hgRMJCiFV+Uh1OAQSRWYHvX/D4z9kP/n38d/8Aglj/APj1H/D4z9kP/n38d/8Aglj/APj1fh5RVcqA/cP/AIfGfsh/8+/jv/wSx/8Ax6vdvgz+2B8JPjr8KfFPxj8Dx64NA8Ifaf7RF7ZLFP8AuLcTvsQOwb5CMcjJ4r5t/wCCdf7BHwd0H4I+Hfiv8VfAejeK/Fvi62XVoxq9ot3b6faScwRxwyAx7ym12cruDOQDhQT906T4P8I6Dptzo2h+FdI07T7zd9otLSxihhm3LtbeiqFbK8HI5HFQ7AfGX/D4z9kP/n38d/8Aglj/APj1H/D4z9kP/n38d/8Aglj/APj1e5/GL9iv9m341eF77w94g+FPhzTru4haO21jStMhtL6zkK4WRJY1BO04Oxsqccg1/Pt8XPhzqnwh+J/in4YaxcJcXnhjVbjTJJkUqs3luVEgB6Bhhse9NJMD9lv+Hxn7If8Az7+O/wDwSx//AB6ul+Gv/BU79lv4p+PtB+HPh+TxZbap4jvo9OspL7S0ig8+Q7UV3ErFdzYUHHUivwXrV8J+JNR8HeKNH8XaO+y+0S/g1C2b0lhkV1/VRVcqA/qTorC8B+MNJ+IXgnQPHmgsx07xFpltqlru+8Ipo1kUH3AbB9wa3azAKKKKAMzxN4i0vwj4b1XxZrcxi07RbKfULuQDJWGKMu5A74VTXxb/AMPjP2Q/+ffx3/4JY/8A49Xa/wDBUD4nXfwz/Y68XLpt15F94rkt/DUL5/5Z3DZuF991uk6/8Cz2r8B6qKuB+4f/AA+M/ZD/AOffx3/4JY//AI9R/wAPjP2Q/wDn38d/+CWP/wCPV+HlfVn/AATi/ZZ0P9qH46Sab44tLifwd4WsTqurRxSGP7S5cJBbFx8yh2LMcclYnAIJzT5UgP1B+Ff/AAVC/Zm+MHxD0H4Y+EYfGA1nxFdrZWZu9Kjjh8wgkb2EpIHB5wa3vj//AMFEP2fv2bPiJL8MfiNF4obWYbSG9Y6fpqTQ+XKCV+YyKc8cjFex+DfgT8Ffh7HaJ4H+EvhDQ2sSGt5bHRreKWNhn5vMCby3J+YnPJ5qfxt8Fvg/8SpHuPiF8K/CPiWeSPyTNq2i291LsHQB5ELDHbB47VOgHyb/AMPjP2Q/+ffx3/4JY/8A49R/w+M/ZD/59/Hf/glj/wDj1fEf/BUn9jvwX+zf408PeOPhXp8mneFfGYuI5NN3l4tPvYQhKxE/MI5EfcFJOCr4O3Cj4YqlFMD9w/8Ah8Z+yH/z7+O//BLH/wDHqP8Ah8Z+yH/z7+O//BLH/wDHq/Gn4Q+B4vid8WPBXw1n1B7CPxZ4i03Q3u1j8xrdbq5jhMgUkbiu/OMjOK/Tib/gh34d8tvs/wC0LqIk/hL+H4yPxxPQ0kB7hp//AAV2/Y1vmVbjXfFNhuH/AC8aDIdvsfLLV6n8O/2+P2Q/ideJpvhr44aDBeyEKlvqxk01nY9FU3Korn2Uk1+Vf7SX/BKr4+fAvRr3xl4VvLP4g+GrCMzXM2lwPFf28Y+88lqdxKgckxu+ACSFAr4ro5UwP6o7e5t7y3jurO4jnhlUNHJGwZXB6EEcEVLX8937In7d/wAXP2V/EFpZ2+qXev8AgWSb/iYeG7uctEFY/NJbFs+RKOvy/KxGGB6j96/hr8R/CHxc8C6N8RvAerJqOha7bLdWk6jBweCjKeVdWBVlPIZSKlqwHTUUUUgCiiigDhbf46/Bm6+ID/Ce2+J/hqXxlHI0LaCuoxm+V1TeymHO7IQbiMdOa7qvyE8F/wDKanU/+w7f/wDpqav17oAKKKKACiiigAooooAKKKKACiiigAooooAKKKKACiiigAooooAKKKKACiiigAooooAKKKKACiiigAooooAKKKKACiiigAooooAKKKKACiiigAooooAKKKKACiiigAooooAKKKKACiiigAooooAKKKKACiiigAooooAKKKKACiiigAooooAKKKKACiiigAooooAKKKKACiiigAooooAKKKKACiiigAooooAKKKKACiiigAooooAKKKKACiiigD4U/bBh+DuoftZ+ENF+NGpal4dtL7wO8fh/xZYs0T+Htb/tRDa3RnXi35BUO/7slgr8HITxRY63rfi/w98Nf2gvEi+CfjHpJZfhj8YtIjWG08RR9TBMn+rWR1wJbOQlX3kxdedv9qDXta8N/tR2WoN8KY/iP4Pm+F93beMdDSMS3a6Q2px+bcW8LcXDodhMXVlB2kHkcncf8IX4P+EyW+sSSfGH9kjxQitZXy77nVPAQ3YjVj/r5LaJyAr8T223DZxzQGxcprHxQ8cXPhHxba6f8Lf2mNM0uS2kcRu3hz4h6SoIeME4+1WsgbBU/wCk2xLFc7GFO/Yz/amtvAd4P2Pf2h7efwP408H7dP8AD39tXCmPUtNA/wBHiW5wI5HjQCNWGBKqKVAbcozfGFtpui+G9E+HP7Sfiifxr8KdRmhufhv8bNPu9+o6DeNxafbrqLhZQT8l4CY5MKJR8zbYvib4P0n4jSaL+z9+2U2nQ+KmLR/DX4tQWkJs9cJ5WG4RgYo52Hlq9s52TZzGQxU0AffIIYBlOQa8w+P37SXwl/Zs8G3HjD4neJ7ez2ofsemxur3uoS44jghzuYk9W4VerECvzv8A2ktU1L9nj4C6/wCDY/FHxB+FPxS0FrQ6XbaH421UeHdfsjcRxyXWlpLMwQbWy9uNskXcMuWr8x9e8ReIPFOpza14n1zUNX1C4bdNd3909xNIfVnclifqaFG4Ha/tCfGzxJ+0R8YPEfxc8URrBc65c7obVGLJaWyKEhgUnqERVGe5ye9edUUVYBX7/f8ABL//AJMl+H3/AHEf/S6evwBr9/v+CX//ACZL8Pv+4j/6XT1MtgPqqiiioAKKKKACiiigAr+Y746Qx23xt+INvCu2OLxVqyIvoBdygV/TjX8yXx7/AOS6fEX/ALGzV/8A0slqogcJX7Of8ET9Lih/Zy8aa0u3zLrxtNat8vO2Kws2GT3GZm47c+tfjHX7U/8ABFT/AJNZ8U/9lAvv/Tdp1VLYD7/ooorMD89/+C11rv8A2avB97tX9145tos9xv0+9PHt8n6Cvxfr9qf+C1f/ACaz4W/7KBY/+m7Ua/FatI7AdT8KdM/tr4oeD9G8kTfb9f0+18snAffcIu3PbOcV/T/X8ynwA/5Lx8N/+xu0f/0sir+mulIAoooqAP5yv25tN/sv9r/4uWvlqm/xTe3OFPH71/Nz9TvyfcmvDK+g/wDgoH/yeZ8V/wDsOn/0THXz5WqA/Vb/AIIa6fiL4zao0a4ZtAt42zyMfb2cfqn5V+qVfl5/wQ4/5F34vf8AX7ov/ou7r9Q6zluAV8y/8FKrH+0P2Ifijb+Wr7bOxnw3/TPULaTP4bc/hX01Xzl/wUS/5Mr+Kv8A2CYv/SqGhbgfzyUUUVoB/TZ8A7H+zPgX8OtObZm28J6TE2z7uRZxA4z2zXeVx/wb/wCSQ+B/+xb0z/0ljrsKyAK/DD9pj4Vx/E7/AIKXfEP4aW9v58+tfbpLWNRjN3/YDXEOMdxME+uK/c+vyKk/5TeD/sML/wCo8KqIH5mdODwRRXtH7ZvwzPwi/ai+I/geOzFra2+uTXllGowq2tzi4hC+wjlUe2Mdq8XqwP3m/wCCVPxV/wCFk/sh6DpF05bUPBF5ceHbgk/ejRhLA3sBDNGn1jNfYVfkJ/wRO+Kkml/ETx38HLt82+v6bDrlnuP3J7V/LkUD1dJ1J/64iv17rN7gFFFFID8of+C2XxC1DUPEXwy+CulyO6iG41+5tY+TNNK/2e2OPUBLkD18w1+fv7Rfw1/4U78Y9f8AhezI83htbOxuXj+7JcLaQ+c49mkLn8a+x/FNneftW/8ABXQaJLctNpHhrxJHblW5SGy0ZN8sY9BJNDKP96Y187/8FCv+T0Pit/2Gh/6IirRAfPFfq1/wQ0hjWz+M1xt+dpdAQn2AvyP5mvylr9Xv+CGv/IL+Mn/XxoP/AKDfUS2A/UqiiiswPz9/4LVafHP+zD4V1AQ7pbXx1aJvz92N7C+3fmyp+VfizX7af8Fnf+TT9G/7Hew/9I72vxLrSOwHqv7J3/J03wb/AOygeHv/AE4wV/SnX81n7J3/ACdN8G/+ygeHv/TjBX9KdTIBDzweQa/CD/gqR+zbpXwD/aD/ALc8IafDZeF/Htu+r2drBEI4rO6V9t1AijgLuKSADAAm2gYWv3gr88v+C1Pgi11b9n/wj48WIG98O+KFs9/pbXVvL5g/7+QQfrSjuB+Mlfpn/wAEZ/2irrSfGGt/s2+IL+R9O1uGTWtAWR8rDeRAfaIVB6CSMeZgcZhbu1fmZXqH7LvxDuvhT+0T8O/H1rcNEul+IrL7UV/itJJBHcJ/wKF5F/GtGrgf0sUUUVkAUUUUAfkJ4L/5TU6n/wBh2/8A/TU1fr3X5CeC/wDlNTqf/Ydv/wD01NX690AFFFFABRRRQAUUUUAFFFFABRRRQAUUUUAFFFFABRRRQAUUUUAFFFFABRRRQAUUUUAFFFFABRRRQAUUUUAFFFFABRRRQAUUUUAFFFFABRRRQAUUVR1LXdE0bb/bGsWNjv8Au/abhIt303EZ6H8qAL1FVrHUtP1SEXOm31vdwnpJBKsi/mpIqzQAUUUUAFFFFABRRRQAUUUUAFFFFABRRRQAUUUUAFFFFABRRRQAUUUUAFFFFABRRRQAUUUUAFFFFABRRRQAUUUUAFFFFABRRRQAUUUUAFFFFABRRRQAUUUUAFFFFABRRRQAUUUUAfG/7QWk/EnUP2zvDl98GfHVhofjTSfhrc6haaZqWDZeIoU1NPM06cfeCuCSJE+aMqG7ZHNeE9Q1TUNf8T/Fb9mvwu2g/ECymx8WPgnrEixR6pM4Ie4gZhsWZgWZLiMeVcD73zHl/wC17ZfCXWP2ufBmifFjxLqPg9rzwS6+F/F1jKYH0TXRqam3lM4+WLIDr+8+Rt204yCE8Q2XiHxJ480P4f8Axs1yH4efH7RI2j+HnxS0uEJp3i23GS0EqfcLOP8AXWUh4L7osg4NAVPCNxo+g+FdZ+IX7OPhu48a/BrVnntviL8GNSt1/tPwzO3F2bKzfJjcAMXsWOyTkxH5l28yuvaFaabpPwJ+D+jWn7RPwj+KWm3V94f8I3V8YdR8HiJsHzLqRSYbNJSVUylZoXTam4gA9hHJ4m8ZfEyfUNOjsPg9+1X4asfM1KwZT/wjvxB06LncD1ubd8ACXP2i3wVO7ywR6l+wj4Y0nUvh3rH7RE/hq00nxL8Y9Yu/EOoxW6rst7cTyR2tshVVBVY13FsZd5Hc9RgA8t8UfsNftJfGT4D2vwW+Mn7QHhu4sLS4S5smm8Pvq2pWIRyY4zqUkkLTMqfuzL5KMwZgcg18AftSf8Ezfjp+zZo1142tbiz8beD7Nd9zqelxPHPZp033Fs2Si/7SM6gcsVr966iurW2vrWaxvbeOe3uI2imikUMkiMMMrA8EEEgg0lKwH8rlFe3/ALa3wf0f4E/tPeO/hv4biaLR7O+W706Eknyba5iSeOIE8kIJNgJ5IUZ5rxCtACv3+/4Jf/8AJkvw+/7iP/pdPX4A1+/3/BL/AP5Ml+H3/cR/9Lp6mWwH1VRRRUAFFFFABRRRQAV/Ml8e/wDkunxF/wCxs1f/ANLJa/ptr+ZL49/8l0+Iv/Y2av8A+lktVEDhK/an/gip/wAms+Kf+ygX3/pu06vxWr9qf+CKn/JrPin/ALKBff8Apu06qlsB9/0UUVmB8Af8Fq/+TWfC3/ZQLH/03ajX4rV+1P8AwWr/AOTWfC3/AGUCx/8ATdqNfitWkdgO9+AH/JePhv8A9jdo/wD6WRV/TXX8ynwA/wCS8fDf/sbtH/8ASyKv6a6UgCiiioA/na/4KB/8nmfFf/sOn/0THXz5X0H/AMFA/wDk8z4r/wDYdP8A6Jjr58rVbAfrL/wQ4/5F34vf9fui/wDou7r9Q6/Lz/ghx/yLvxe/6/dF/wDRd3X6h1nLcAr5y/4KJf8AJlfxV/7BMX/pVDX0bXzl/wAFEv8Akyv4q/8AYJi/9KoaFuB/PJRRRWgH9PHwb/5JD4H/AOxb0z/0ljrsK4/4N/8AJIfA/wD2Lemf+ksddhWQBX5FSf8AKbwf9hhf/UeFfrrX5FSf8pvB/wBhhf8A1HhVRAz/APgtf8M5NI+K3gf4r21pi28RaPLpNzKq8faLSTcu4+pjuABnqIz6V+blfu9/wVi+GM3xC/ZD1fWrG18688Faja6+qquW8kEwzkegWOZnPshr8IaqOwHuv7DnxSm+D/7Vnw58YLKEtZNYj0q+3HCm1vAbaQn/AHRLvHugr+jOv5WYZpbeVJ4ZGjkjYOjqcFWHIIPY1/S/+zj8S3+MXwH8B/EyeSOS68QaFa3V4Y/u/atgWcADpiVXGO2KUgPR65b4qeNrf4bfDPxX8QrsoIvDei3uqtv6HyIWkA/EqB+NdTXxZ/wVw+Isngn9kPUNAtbww3XjPWLLRQFbDtCrG4lx3wVt9p9nx3qUB8yf8EXvh3e+KviZ8R/j54guJLm4sLVNJhll+Yz3V5IZ7iUt/eVYUB9fPNfJn/BQr/k9D4rf9hof+iIq/WH/AIJV/CuH4bfsg+H9WlQjUPG93c+IrrcPuq7eTAoPp5MMb/WRq/J7/goV/wAnofFb/sND/wBERVS+ID54r9Xv+CGv/IL+Mn/XxoP/AKDfV+UNfq9/wQ1/5Bfxk/6+NB/9BvqctgP1KooorMD4L/4LO/8AJp+jf9jvYf8ApHe1+Jdftp/wWd/5NP0b/sd7D/0jva/EutI7Aeq/snf8nTfBv/soHh7/ANOMFf0p1/NZ+yd/ydN8G/8AsoHh7/04wV/SnUyAK+M/+Ct0Ec37F+vSSLloNZ0qROejfaAv8mNfZlfD3/BYfXYtJ/ZBOnPJtbWvFGm2SL/eKrNOf0gzSW4H4cVc0WRodYsJk3Fo7mJht65DA8e9U63/AIfaJdeJvHvhrw3YxmS51XV7OxhQfxPLMiKPxLCtAP6gNNdpNNtZGzloUY568qKs1HBEsEMcK9I1Cj8BipKyAKKKKAPyE8F/8pqdT/7Dt/8A+mpq/XuvyE8F/wDKanU/+w7f/wDpqav17oAKKKKACvzE/bO/4KefHz9nX9orxN8I/BPhHwBe6PoyWbW8+qafeyXLebbRytvaK7jQ4ZyBhRxjr1r9O6/Af/gqV/ye549/656Z/wCkEFAH7NfskfF7xL8ev2dfBnxc8YWOmWeseIra4muoNNikjtkKXMsQ2LI7uBtjUnLHkn6V69XzR/wTb/5Mj+Fv/Xjef+l9xX0vQAUUUUAFFFFABRRRQAUUUUAFFfza/tQ69rkP7SnxVii1m+RE8aa0qqtw4AAvZcADPFf0eaGc6Lp5PJNrF/6AKAPz7/4KXft+/FT9nHxno/wj+DsFlpup3emR6xfa3d2qXLKjyuiQwxSAxj/VMWZg33gAARmvYf8AgnL+1p4u/av+Eeq6t8QdNs4fEnhjUl028urKHyoL1GjDxy7MnY/3gwHy5AIADbR2/wC09+xT8D/2sodOm+Jlhqdnq2koYbTWdGuEt71IS24wlnR0dM5IDo20sxXaWOey+Af7Pvwy/Zr8BR/Dv4WaTNaad5zXVzNczGa4vLhlVWmlfABYhFGAAoAAAA4oA9IorwH9viaa3/Y5+K01vM8UiaC5V0YhgfMToR0r8vP+CQurareftfQw3mp3c8f/AAjWpHZJMzDOYuxNAH7g0UUUAFFFFABRRRQAUV/OP+2Jrmtw/tUfFeGHWL6ONPFupKqrcOAo89uAAeK/ol8Mknw3pRPJNjB/6LWgDTooooAKKKKACiiigAooooAKKKKACiiigD58/bs/aI1L9mT9nTW/iH4djgfX7uaHR9G88ZSO7n3YlI/i8tEkkCnglADxmvw48B/Dv9oj9sz4mX9n4dXV/G/im5RtQ1G8v77iKMEL5ks0rBUUFlVRn0CjAxX6cf8ABbKaVf2fPA9ushEb+Mkdl7FlsbkA/huP51xv/BDuztl8P/FnUBEv2h7zSYWfHJRUuCB+bH86APVv+CXP7Mvxt/ZptviLo/xi8OLph1aXTZdOeK+iuYpQiziTaY2OCNy5Bx1Ffd1FFABXxz/wUb/bH+J37IOh+B9T+GuheF9Sl8TXd9BdrrlrcTKiwpEy+X5M8RBJkbOSeg6V9jV+YX/BcT/kUfhL/wBhLVv/AEVbUAey/wDBOP8AbY+Kn7X03jqP4leH/CmmjwwuntZ/2Ha3MO/zzPv8zzp5c48pcYx1Oc9vtivym/4Ic/8AHz8Xv+uejfzu6/VmgAr4M/4KKft6fF/9kbx14T8MfDfw34P1K117SZb+5fXLO6mkSRZigCGG4iAXA7gnPevvOvx7/wCC3X/JXvhx/wBi3cf+lTUAfb//AATy/am+IH7Wnwh17x98RtH8PadqGl+JJdHhj0S3nhhaFbW3lDMJppWL7pmGQwGAOOpP1LX57/8ABFH/AJNp8Yf9jzc/+m+yr9CKACiiigAooooAKKKKACiiigAr+fP/AIKKaxq1v+2l8UobfVLyKNdSt9qJOygf6HB0ANf0GV/PP/wUa/5PX+Kf/YTt/wD0jgoA/eT4Ksz/AAb8Bu7FmbwzpZJPJJ+yx12lcV8Ev+SM+Af+xY0v/wBJI6+Bv+C21/fWPgP4WtY3k9uX1fUQxikZM/uYuuDzQB+l1eIftuSywfsj/FmaGRo5E8L3pVlbBB2diOlfLv8AwRVvr2++BfjuS+vJ7hl8W7Q0shcgfY4OOa+oP24v+TQ/i3/2Kt7/AOgUAfmB/wAEb9U1K8/aw1OG81C6nQeDdQbbJMzDP2m05wTX7YV+I3/BGf8A5O01P/sS9Q/9KbSv25oAKKKKACiiigAooooAKKKKACiiigAooooAKKKKACiiigAooooAKKKKACiiigAooooAKKKKAPin9qrXpvDv7Ttnd638Jj8RfA1z8L7q18YaVDCJ7m20s6pGXvIoT/rzGwjLIPmCgspBXNczqSeDfCHwttdF8b30nxa/ZR8SpFJofiaGR5tU8CHd+4SWRf37W8TbVSbiWArskBA57b9oHT/itcftlaBqnwP8VaZY+LtH+Glzfrouqf8AHp4itV1SMSWEh6xlgdyyryjKucKSRy/g3ULubUPE3xY/Zj8Ky2WuxTmP4tfArV9sTT3LqRLcWquNsc7Akq6DyblRzhyRVAVPH1rZ6V4f0P4Y/tReJJvEfgyeRLn4YfHPS58Xmm3ZUfZo765TIin6bbjPkzqq7/mDEe/fsHrKn7IPwuWaYSsNEHzgY3DzZMH64xXz7oFxofhr4d6x42/Z/wBBl+I3wC1v7Rb+NvhXfw+ZqvhC4OftP2O1kyUC8vJZOevzxHD5H0B+wT9n/wCGPfhZ9lYtF/Yg25OcfvZOPw6Y7YpMD32iiikB+CP/AAVa/wCT3vG3/XnpH/pvgr5Fr66/4Ktf8nveNv8Arz0j/wBN8FfItarYAr9/v+CX/wDyZL8Pv+4j/wCl09fgDX7/AH/BL/8A5Ml+H3/cR/8AS6eplsB9VUUUVABRRRQAUUUUAFfzJfHv/kunxF/7GzV//SyWv6ba/mS+Pf8AyXT4i/8AY2av/wClktVEDhK/an/gip/yaz4p/wCygX3/AKbtOr8Vq/an/gip/wAms+Kf+ygX3/pu06qlsB9/0UUVmB8Af8Fq/wDk1nwt/wBlAsf/AE3ajX4rV+1P/Bav/k1nwt/2UCx/9N2o1+K1aR2A734Af8l4+G//AGN2j/8ApZFX9NdfzKfAD/kvHw3/AOxu0f8A9LIq/prpSAKKKKgD+dr/AIKB/wDJ5nxX/wCw6f8A0THXz5X0H/wUD/5PM+K//YdP/omOvnytVsB+sv8AwQ4/5F34vf8AX7ov/ou7r9Q6/nU/Zf8A21vi9+yTZ+IbH4X2Phu4j8TS20t5/a9lLOVMAkCbNkqY/wBa2c57V7j/AMPmP2tP+gH8O/8AwT3P/wAk1LjcD9uq+cv+CiX/ACZX8Vf+wTF/6VQ1+aX/AA+Y/a0/6Afw7/8ABPc//JNcd8YP+Con7R/xu+GuvfCvxhpPgmLRvEVuttdvY6ZPHOEEiuNjNOwByg6qe9JRYHyFRRRVgf08fBv/AJJD4H/7FvTP/SWOuwrj/g3/AMkh8D/9i3pn/pLHXYVkAV+RUn/Kbwf9hhf/AFHhX661+RUn/Kbwf9hhf/UeFVED9VPiH4PsfiF4C8R+A9SIFr4i0q60uZsZ2rNE0ZOPbdn8K/mJ8S+HtW8I+ItU8K69am31LRr2fT7yE/8ALOeJyjr+DKRX9S9fgH/wU6+Fcvwv/bA8XSRwhNP8WiHxLYkdxcLibPoRcJPx6bfWiIHynX7Vf8EZ/ibceK/2c9b+Hd9eedL4H111toyeYrO7UzIv0Mwuj+J9K/FWvvH/AII4/EqXwn+09e+Aprwx2fjfQri3WEn5ZLu1/wBIjb6iNbkD/eNVLYD9t6/I3/gsR4k1D4ifH/4W/ATQboSz21mJfIR8gXmo3KwxhwP4gsCEZ5Ak/wBrn9cq/HT4O2ln+1F/wVy13xhdSf2ho3hfWr3Vo3U5RotLRbayZT02+clu/vz61MQP1u8CeDtI+HngnQPAXh+Mppvh3TLbS7QN18qCNY1J9SQoJPrmv5+/+ChX/J6HxW/7DQ/9ERV/RDX873/BQr/k9D4rf9hof+iIqI7gfPFfq9/wQ1/5Bfxk/wCvjQf/AEG+r8oa/V7/AIIa/wDIL+Mn/XxoP/oN9VS2A/UqiiiswPgv/gs7/wAmn6N/2O9h/wCkd7X4l1+2n/BZ3/k0/Rv+x3sP/SO9r8S60jsB6r+yd/ydN8G/+ygeHv8A04wV/SnX80v7Ll9ZaX+018I9S1K8gtLO08d6BPcXE8gjjhjXUIGZ3ZiAqgAkk8AA1/Qtqn7Rn7PmiQm41j46/D6yjC7t1x4msk49syc1MgPRK/I3/gtd8XrHVvF3gb4J6VqSyvoNvNrmrQxtkRzT4S3V/RxGkjY6hZlP8Qr6Y/aA/wCCrv7N/wAMfD97D8MdcT4heKNpjtLXT0kWyST+/LcsoUoOuI9xPTj7w/FT4i/ELxZ8VvHGs/ETxzqj6jruvXTXd5cMANznoqqOFVQAqqOAqgDpRFAc5X13/wAEtvgzdfFb9rHw/rVxp5n0bwIreI76Rh8iTR/Larnpu89kcDuI2PY18teE/CXibx34k0/wj4P0O81jWdVnW2s7K0iMks0jHAAA/MnoACTwK/f39gz9kqz/AGT/AIOx6LqnkXHjLxCyah4juo23Ks23CW0bd44gSM92Z26EAVJ2A+laKKKzAKKKKAPyE8F/8pqdT/7Dt/8A+mpq/XuvyE8F/wDKanU/+w7f/wDpqav17oAKKKKACvwH/wCCpX/J7nj3/rnpn/pBBX78V+A//BUr/k9zx7/1z0z/ANIIKAP1h/4Jt/8AJkfwt/68bz/0vuKwf29P24NY/Y1j8FvpPw9s/FH/AAlbX4k+0ag1r9n+z+RjG1G3bvOPpjb71vf8E2/+TI/hb/143n/pfcV8i/8ABcj/AFHwf/39b/lZ0Aenj/grV4L0j9m/TPi54o8FxJ4z8QX17Z6T4UsNQ83clu6qbieZlBiiy2M7CWYYUHDFfjPxh/wV8/bA8Rak114f1Lwv4WtA7GO10/RY5xsONoZ7kysxGOo25JPAGAOv/wCCU37GvgX49X/iH4u/FvRU1vw94Xuo9M0zSpzm2ur4oJZGmX+NI0eLCH5WMvIIGD+utx8KPhbd+G38HXXw38LS6DJEYH0t9HtzaNGTnaYtmzGecY60Aflt+zp/wWV8dQeJtP8ADv7SHh3R73QbqVIJtf0m2e3urMHgzSwgskyg4JEaowG7Abha/WyxvrPUrK31LT7iO4tbqJJ4Jo2yskbAFWU9wQQQfev53v28Pgl4d/Z//ag8X/D3wfG8Wg74NS02Bjn7PDcxLL5IJ5KozOik87VXJJya/bX9hrxBfeJv2Q/hPquoTNLOPDNraF26kQAwLn1+WMc9+tAHg37b/wDwU70P9mvxNcfCr4Y+G7PxT43tIw2oS30jDT9Md1DRxuI2DzSYIZkVkCgj5skgfDVx/wAFVP26Lm4/4SaHWdKg0oOrG3i8MwmzwMAr5jKZMEjn95nk4I4r57/ai0PxJ4Z/aU+JWm+NLG5j1NfFmpXE63GVaZJbl5UkBPJWRHV1YdVYEV+6/wCzh+0d+zD+0F8P7Dw58MdW8PpBFp8VtceELpI4p7OPYFMDWzj94i/c3KGQ44JzQB8/fsL/APBT7/horxlbfCH4ueF7HQ/Fl9EzaXqGlCT7FqDopZomjcs0D7QSCXKsQR8p2q3e/t5/t4a1+xtq3g7TdJ+HFl4nHii3vZ3e41F7XyPIaJQAFjbdnzfbGK9k+Bf7J/wJ/ZzuNXv/AIV+CbfTr/W7mWe6vpT5twsbyFxbxuf9XCmQqouBhV3biM1ofGL9mf4GfH+50u8+MHw9s/Es2ixyx2LXFxPH5CyFS4HlOuclF656UAfzlfEzxrN8SfiN4o+Idxp6WMvifWLzWHtUkLrA1xM0pjDEAsF34zgZxX7B/sTf8FLPEH7TnxesPg3qHwn0/QIBpFxdfb4dWed8wKuF2GJRzn14r8lf2gvDui+Efjv8RPCvhyxSy0rR/FWq2FjbIzFYYIrqRI0BYkkBVA5JPFfv38F/2Qf2b/g7q2n+P/hr8LbDQvEBsPI+3Q3Ny7bJUXeuJJGXnHpQB5b+3p+3hrX7G2q+DdN0n4c2XiceKbe9ndrjUXtfI8hogAAsbbs+afTGK9C/Yn/ac1H9rL4Pz/E/U/CNt4cmh1i40v7HBdtcKRGkbb97KpyfM6Y7V8Lf8Fxv+Rn+Ef8A14ax/wCjLWvfP+CNv/Jpt7/2Nl//AOibegD5x/bU/wCCmviHxFb/ABY/Zfk+EmnQWn22+8N/2wurO0myG4KiXyvKxk+Xnbu79a+N/wBkv9pPUP2U/i0nxW03wnb+Ipk025077FPdNbriXblt6qxyNvTHev1d/bt/Y7/Zr0n4B/Fj4y6f8KtPh8Z/YZ9X/tYXVyZPtckys8u0ybMksxxtxz0r86f+CZ/wi+HPxs/aYi8E/FLwvb6/obaDfXZs55JEXzU8vY2Y2VuNx796AP13/Yj/AGpNS/a2+E178StU8H23huW01mbShaW941yrCOOJ9+5lUgnzMYx2r5F1P/gsV4q0/wCLl38M1+BekvFbeI5NCF2dckDMq3Rh8zb5OM4GcZ/Gv0J+E/wX+GPwM8Ny+EfhP4St/D2jz3T3slrBLLIrTsqqz5kZjkhFHXHFfzx+JP8Ak6rVP+ygz/8ApyNAH9KNc18TPF0vgD4c+KfHUFil5J4d0a91VLdn2LMYIXkCFgDtB24zg4zXS151+0d/yb38Tf8AsUNY/wDSOWgD4i/Zt/4K0eJvjx8cfCPwivfgrpejweJrxrV76LWpJmgAid9wQxAN9zHUda9j/b0/bt1r9jXUfBljpPw5svFA8VQ30ztcai9r5H2doQANsbbt3nH0xt96/KH/AIJ3/wDJ6Xwq/wCwvJ/6TTV+6Hxi/Zp+Bv7QE+lXPxh+H1n4ll0RZo7BrieePyFlKGQDynXOTGnXPSgD+dL4u/EKf4sfFDxT8TLrS49Ol8Uatc6o9pHKZFgMrlygYgFgM4zgV+uX7FP/AAUw8QftJfF7RfgnqHwl07Qrd9LuJf7Qh1Z53H2eHIGwxKPmx68V+Vn7TvhXw/4H/aI+I3g/wrpqafo+jeJL+ysbWNmZYIUmZUQFiSQAAOSTX7y/BH9j/wDZt+EeoaP8RPhz8K9P0TxGunhBfw3Vy7hZYgJBteRl+YE9qAO++Mnxn+HfwD8BX/xI+J2vJpmj2OF6b5riVvuQwxjmSRuwHoScAEj8pfjB/wAFoPjNr+oXFn8F/BOheFNJy6w3epxG/wBQYchXxuEKHvt2ScgfMRnPEf8ABWj49ap8TP2kbv4Y2l5Mvh34dRrp8MAkPly38iLJczFem4FliGe0Rx96voD/AIJ0/Df9h/4ZfC/Sfih8YPin8I774ia4GvPs2u+ItOL6HCWIjhWCaX93MVAdnKhwXKcAHIB87eFP+CvP7Yvh/UVu9b1jwv4mttw3WuoaHHEuOc4a2MTAnPUk8gcdQf0U/Yv/AOCjPw6/asuz4J1fSf8AhEfHkcbTJpck/m29/Goyz20pAJZRkmNgGAGRuAJHSfFDxV/wTu+Mnh2fwx8RPib8DdVtJoyiSN4m0pLi3Jz88Myyh4mGeqkV+HnjSGH9n/8AaB1BvhT46tNcg8GeIBc6Br1hdx3EV1HFIJIJRJCSj5XaG2nGdw46UAf0u0Vy/wALvHVn8Tvhr4W+I2nwNBb+J9Hs9WjhY5MQnhWTYT3K7sH6V1FABVbUtS0/R9PutW1a+gs7Kyhe4ubieQJHDEgLM7MeFUAEknoBVmvzK/4LOftDa34a8O+G/wBnfw7cNbR+J4TreuyxuVeW0jkKQW/HVGkR3b3hQdCaAKn7R3/BZrT9D1S88Mfs1+D7PW1tz5f/AAkeupILaRs/M0FsjJIy46O7Lz/AR1+Yrf8A4K3ftoQ6udSk8W+Hri33s39nyeH7cW4BzhcqBLgdv3meOSa9A/4Jb/sM+D/jx/afxs+MGlnU/C+iXx03S9HmVlh1C7VFeSWUggvFGHQbBwzEgnCFT+t978IPhPqXhk+C774ZeFZtA8ryP7LbR7f7KI8EbRFs2gcnoO9AHwl+y3/wWA8H/EbW7PwT+0D4bsvBmp3rJDb63p8jtpckzHG2VJC0lsCSMMWdRzuZRzX33488UN4P8A+IvGtrbpenRNHu9UjhMm1ZvJhaQLuAOA23GRnrX4of8FMv2KdD/Zi8ZaV44+GdtPD4F8XySRRWbszjSr1FDNAHYlmR1y6biSNrjJ2g19n/APBKD42Xnx6/Z48SfBX4iMNVPglY9HBkZt0+jXcUixQuQcnb5c0YIx8gQdRkgHwl+2V/wUM1z9sHwLongfVPhhYeGY9F1Yaqtxb6m9yZT5MkWwq0a4H7zOc9qzP2Lv28ta/Y30rxRpek/Diy8TjxNcW1w73GovbeR5KuoACxtuzv9ulfSn/BVb9lX9n/AOAvwd8I+I/hH8NbHw5qWoeJhZXNxb3FxIZIPssz7CJJGAG5FPAzxXP/APBJ39mf4F/H7w38RLz4wfD2z8SzaPfafFYvcXE8fkrJHKXA8p1zkqvXPSgD77/YX/az1P8AbA+GuuePtU8F2vhmTSNcfR1tre9a5WRVt4ZfMLMi4P70jGP4a+ka4X4Q/A74U/AbQbvwx8I/B1t4c0u/vDf3FvbzSyCScoqFyZHY52og4OOK7qgAr8wv+C4n/Io/CX/sJat/6Ktq/T2vzC/4Lif8ij8Jf+wlq3/oq2oA+Zf+Ccf7aXwt/ZBm8dSfErQfFWpDxOunrZ/2Ha282zyDPv8AM86eLGfNXGM9DnHf7Y/4fV/ss/8AQg/FX/wVad/8nV8E/sGfsQaT+2VL4yj1T4hXfhf/AIRZbJk+z6ct15/n+dnO6RNuPKHrnNfXH/Djvwj/ANHD6v8A+E7F/wDH6AO+/wCH1f7LP/Qg/FX/AMFWnf8AydXwZ/wUU/a4+G/7XPjrwn4n+G+i+JdNtdB0mWwuU1y2ghkeRpi4KCGaUFcHuQc9q+tf+HHfhH/o4fV//Cdi/wDj9fGH7dn7Hul/sd+MvDPhXS/HV14nTX9Mk1BprixW1MJWUptAV3z0znIoA/QT/gij/wAm0+MP+x5uf/TfZV+gd1dWtjazX19cRW9vbxtLNNKwVI0UZZmY8AAAkk1+fn/BFH/k2nxh/wBjzc/+m+yp/wDwWL+O2tfD34L6F8JvDly9tcfEK6mGozIxDf2fbBC8Qx/z0kkiB/2VYfxUAcR+0x/wWSsfDOuXvhH9m3wnp2vi0Ywv4k1nzDaSOOGNvboyO6js7uASPukYJ+Wk/wCCtX7ai6odQbxtoTweaZPsLeH7Xydp/gyFEm0f7+7jkmof+Ccfwl/Zq8b+PdY8aftOeP8AwbpOieGUh/s7RfEOuWtjHql1IWO51mkUyxRqnKjgs6huAVb9apPi/wDsFyaCfCsnxR+AbaKY/JOmnW9G+y+X/d8rfsx7YoA+R/2Y/wDgsdpfi7xBY+Df2jvCmneHHvnEMfiLRzILGOQnC/aIJGZ4kPQyK7AHkqq5K/plDNDcQpcW8qSxSqHR0YMrKRkEEcEEd6/A3/gop8Kf2dfAXxP0zxN+zR498Iaz4b8T28st1pPh/Wre/TSbuNlDACKRjHFIrqyqehWQDgAD9J/+CTvxi1L4p/sq2mi69qEt3qXgXUpfD++ZiztaLHHLbcn+FUk8oe0NAHpn7YH7Znw7/ZD8H2+q+JIJNY8R6uHGi6DbyBJLorgNJI5B8qJcjLEEk8AE9Py18a/8Ffv2vPEerPd+GdQ8M+E7IM3lWdjo8dz8hxtDyXPmFmGOq7QSTx0A8a/be+MWqfHT9qDxx4qupmks7TVJtE0iIMSsdjayNFFt9N+0yEDjdI1fsH+xN+w38K/2ffhloera14R0vWfiBqljFd6vrF7arNJbyyKHNvb7wfKRMhcrguV3N2AAPlP9l/8A4LGa/qPijT/B/wC0toGkR6bfzC3XxNpMTwG0LYCtcQEsrJnqybdoOdpxWjD/AMFmPE1x8SI/A8PwM0d7eXWxpKXi69IdyGfyhKAIcHj5sZ/Gvrz9rD9ib4RftKeANVsX8JaPpPjKO0dtF8QW1qsM8Nwq5jWVowDLCSApVs4BJXBwa/BDwDZXWm/Fbw5p17GY7i18Q2cMyH+F1uUDD8CDQB/T5X88/wDwUa/5PX+Kf/YTt/8A0jgr+hiv55/+CjX/ACev8U/+wnb/APpHBQB+16fECf4T/sdWvxOtdMj1Gbwp8OoNYjs5JDGtw0GnLIIywBKg7cZwcZr8bP20P299a/bH0PwxomrfDey8ML4au7i6SS31J7kzmVEUqQ0a7cbM9+tftl8PfC+geOP2c/C3g3xVpqaho2t+DLDT9QtHZlWe3lskSRCVIYAqSOCDzX5if8FYP2Y/gT8AfB/w91H4P/Duy8N3Or6lfQ3slvcTyGZEijKA+a7AYLHpjrQB4t+xr/wUK1z9j3wPrngrS/hjYeJo9b1X+1GuLjU3tjEfJSPYFWNsj5M5z3r9W/2nPFUnjr9gLxp42ms1tJPEHw9OqNbq+8Qme2WQoGIGQN2M45xXxJ/wSp/ZX/Z/+PXwh8X+Ivi78NbHxHqOneJPsVrPcXFxGY4fssL7AI5FBG5mPIzzX3h+2Noul+G/2KfiX4d0OzW007S/BlxZ2dupJEUMcIREBJJICgDk54oA/KD/AIJW/ETwf8J/j74q+Inj3WI9L0LQ/Aeo3N5cuCdq/arMBVUcszMQqqOSSAK9M+Nf/BZz4xa/q11Y/A7wno3hXRUd0t73U7f7bqEq5wshUnyYyRzs2vg8bj3+N/2Zfg7J+0B8dvB/wd/tKawg8S3xhu7iEAvHbRRtPMyg8FhHE5GeMgZr+hH4V/s5/BH4L+HYPDPw6+G2h6XbRIFkm+xpJc3LYALzTMC8jHA5Y9hjAAFAH5BeAv8AgsF+1l4Z1aO58YS+GfGOnlx51rd6Wlo+zuI5bbZtY+rK4Hoa/Wj9l39pTwT+1R8K7T4meDI57RhKbLVNNuCDLYXiKpeIkcMuGVlYfeVgcA5UfA3/AAWN/Zx+GvhPwn4W+OPgrwpp2hatea0dF1j+z7dYI74SQvLFJIiAL5imBxvxlg/zE7VxQ/4Id61er4g+LPh77Q5tJLPSbwRE/KsivcJuHoSHAPrgegoA/WWiiigAooooAKKKKACiiigAooooAKKKKACiiigAooooAKKKKACiiigAooooAKKKKAPhj9rbTfhjrn7YHgrQ/iL431HwJqN14HlHhDxZZ3BgbS9dGpKYcyfcAdBIhST5JA5TIYqabrNp4l8VfEbRvBvxT1a1+GP7Seg2zR+C/iBp0H/Eo8a2SZLQyIcK4YZ82zf5o2ffFwcVf/ax17T9A/aZtJPGnwnm+IHw/vfhfdWvi6ytrcXFxp2nnVIi2oJD96UROI2bZ86KDIpBSue1qHwn4U+GuneFfitq0vxP/Zh8RCGfwr48t53l1TwS2f8ARkuJkHm+VG21Y7r70RGyUYGKoC1HJ4l8bePNU17wjbWvwg/ah8PWPmeJfDFy2dC8eafGOJFIP+kRNwqXK/voCzI+QFYe7fsGsz/sg/C5pIPJc6KNyeh82TP59fxrwL4gWK2um6F8L/2qvEkt5YrMJ/hZ8eNHZYJoLormCC9uFJWC4bsxPk3CKCcOm6vfv2D1mX9kH4XLcSLI40QfMoxuHmyYP1xjNJge9UUUUgPwR/4Ktf8AJ73jb/rz0j/03wV8i19df8FWv+T3vG3/AF56R/6b4K+Ra1WwBX7/AH/BL/8A5Ml+H3/cR/8AS6evwBr9/v8Agl//AMmS/D7/ALiP/pdPUy2A+qqKKKgAooooAKKKKACv5kvj3/yXT4i/9jZq/wD6WS1/TbX8yXx7/wCS6fEX/sbNX/8ASyWqiBwlftT/AMEVP+TWfFP/AGUC+/8ATdp1fitX7U/8EVP+TWfFP/ZQL7/03adVS2A+/wCiiiswPgD/AILV/wDJrPhb/soFj/6btRr8Vq/an/gtX/yaz4W/7KBY/wDpu1GvxWrSOwHe/AD/AJLx8N/+xu0f/wBLIq/prr+ZT4Af8l4+G/8A2N2j/wDpZFX9NdKQBRRRUAfztf8ABQP/AJPM+K//AGHT/wCiY6+fK+g/+Cgf/J5nxX/7Dp/9Ex18+VqtgPvD/gmb+xn8Gf2rtH8f3vxWXXDJ4budOisv7NvhbjbOs5fdlG3f6pcfjX2z/wAOev2P/wDnn41/8Hi//Gq8b/4Icf8AIu/F7/r90X/0Xd1+odQ3qB8Qf8Oev2P/APnn41/8Hi//ABqvIP2uP+CZX7M3wX/Zx8c/FDwXH4qGt+H7BLiz+16sJYt5njQ7k8sZGHPev0+r5y/4KJf8mV/FX/sExf8ApVDQmwP55KKKKsD+nj4N/wDJIfA//Yt6Z/6Sx12Fcf8ABv8A5JD4H/7FvTP/AEljrsKyAK/IqT/lN4P+wwv/AKjwr9da/IqT/lN4P+wwv/qPCqiB+utfl7/wW2+FTXXh/wCH3xqsoxu0+5n8OahxyySr51u3sFaOcH3kWv1Cr53/AOCgPwrj+L37JPxB8Pxx5vtM0/8At6wbbkieyIn2j3dEkj+khpLcD+d+u7+A/wAQpvhP8aPBPxIhuHhXw7rtnfTMnUwLKvmr7ho96kdwTXCUVoB/TB+0L8SrP4WfAPxz8Tl1CKIaN4fu7yzmDja85iK24U9CWlaNR6lhXwH/AMER/hnbx6H8R/jJeWoe6uru28OWU7DlI418+4UH/aaS2J/65iuL/aZ/aRtPFX/BK34SaDHrAl1jxRcW2g30BfMrR6QWErP/AMDis255Pmoe9fdf/BPP4bQ/DD9j/wCHWk/YxBd6vpv9v3rbcNJLeMZlZvcRPEn0QVGyA+ja/ne/4KFf8nofFb/sND/0RFX9ENfzvf8ABQr/AJPQ+K3/AGGh/wCiIqI7gfPFfq9/wQ1/5Bfxk/6+NB/9Bvq/KGv1e/4Ia/8AIL+Mn/XxoP8A6DfVUtgP1KooorMD4L/4LO/8mn6N/wBjvYf+kd7X4l1+2n/BZ3/k0/Rv+x3sP/SO9r8S60jsBseDfCeuePfF+h+BfDNslxrHiPUrbSdPheRY1kubiVYolLMQqgu6jJOBnmvS/j/+yR8dv2Y4dGuvjB4Ti0uDXmmjsZre+huo3eIKXUtEzBWw4IBxkZx0NUf2Tv8Ak6b4N/8AZQPD3/pxgr90v27PgCP2jP2a/E/gmxhRtd0+P+29DZk3H7dbqzLGPQyIZIs9vMzzjFDdgP52KltPsv2qH7cZRbeYvneVjfsz823PGcZxmo3Vo2aORSrKdrA9QaSmB/Q9+x9+y/8As1/BfwLpHjb4H6OmpSeJNLt7pfE1+4uL+8t5UDj95gCJTkEpGqDIGRkV9FV+d3/BHH9oNvG3wm1f4Ea9eI2qeBpftelhm+eTS52JK4PXypiwz2WWMduf0RrNgFFFFIAooooA/ITwX/ymp1P/ALDt/wD+mpq/XuvyE8F/8pqdT/7Dt/8A+mpq/XugAooooAK/Af8A4Klf8nuePf8Arnpn/pBBX78V+A//AAVK/wCT3PHv/XPTP/SCCgD9Yf8Agm3/AMmR/C3/AK8bz/0vuK+Rf+C5H+o+D/8Av63/ACs6+uv+Cbf/ACZH8Lf+vG8/9L7ivkX/AILkf6j4P/7+t/ys6APW/wDgi/Esf7KOuMvWXxxfs31+x2I/kBX3tXwZ/wAEY/8Ak07WP+x2v/8A0ksq+86APwo/4K7f8nmar/2AdL/9FGv1P/4J6/8AJl/wp/7Ap/8AR8tflh/wV2/5PM1X/sA6X/6KNfqX/wAE/TcL+xP8LmtVjacaE/lrIxVS3ny4DEAkDPUgGgBv7V37CfwX/axtRqXii1m0PxdbW/kWfiPTVX7QqjJWOZD8s8YJPythgCdrLmvy0+PH/BLP9pv4HpeeKPCMNv460DT1a4+26EzJfQxLyWe1b58gZP7oycAnNdv4r/4KeftW+Af2olvPitoq6TovhXUJ7DU/Almht4XhIMZJlkBeWQDbIkhOwkAqqo2K+w7z/gsF+yLD4RfX7S58V3GreTvTQv7HZLgyY4Qyk+QOerCQ8dM9KAPjL9hz/gpd8V/h3470L4afG3xRdeKPBOqXUOm/bdVmMl5o5dgizCdsvJEpI3I5OFGVIxg/tZX81/gHwP4j/aq/aOg8N+GdINrdeOvEc11NHbJuj063mmaWaTgcJFGWOcdF98V/SeqhFCrnCjAoA/mo/al/5OY+K/8A2Outf+lstf0laH/yBNP/AOvWL/0AV/Nr+1L/AMnMfFf/ALHXWv8A0tlr+krQ/wDkCaf/ANesX/oAoA/KX/guN/yM/wAI/wDrw1j/ANGWte+f8Ebf+TTb3/sbL/8A9E29eB/8Fxv+Rn+Ef/XhrH/oy1r3z/gjb/yabe/9jZf/APom3oA9r/b+/wCTNfix/wBgB/8A0Ylflr/wR8/5PCh/7FnUv5xV+pX7f3/JmvxY/wCwA/8A6MSvy1/4I+f8nhQ/9izqX84qAP3Lr+bHx4i6D+1d4gXUXEKWPxBujMz8BVXUWJY/gM1/SdX4Qf8ABUb9nTXfg7+0drXjy10u4PhP4gXDavY3ixkxJeOM3VuzdA4k3OB/ckXHQ0Afu/Xm/wC0pLHD+zv8TpJXCovhDV8k9v8AQ5a/Pb9n/wD4LNeFvD/gXSvC/wAePh74kvNW0mzjtG1jQGguDf7FCiSSKeSLY5ABYh2BbJAGcDhv2xv+Csll8avhnq/wl+DHgfWNC0/xDH9l1LVtZkiW6a0J/eQxwxM6pvA2sxkb5SwAycgA+dP+CcNjcah+2x8LILWMu6ajczsB2SOyndj+CqT+Ff0K1+QP/BGr9nnXtU+ImrftGa3prwaHodnNpOjTSqR9qvZgFmeP1WOLcpPTMoAyQ2P1+oA/m6/bI/5Os+LP/Y3an/6Pav6MvDH/ACLek/8AXjB/6LWv5zf2yP8Ak6z4s/8AY3an/wCj2r+jLwx/yLek/wDXjB/6LWgD+dz9uTTb3Sf2vPizaagjLK3ie7nG7ukpEiH6FHU/jX2N8G/+CP3g34ufCfwh8Trf4/6lbL4o0W01RrePQI5FgeWJWeMN543bWLLnAzjoK1f+CvX7IviK916P9qPwDor31nJaRWfi2G2jLSwNEAkN4QM5Tywsbn+Hy0J4JI8a/Yd/4Kbax+zL4XT4V/Ejwze+KfBdvM8unSWc6i+0wOSzxxrIQksZYlgpZNpZuSDgAH0F/wAOOvCn/RxGrf8AhOR//JFU4f8Agin8PbnUrnRbf9p66l1CzVJLm0TQ4GmhV+UZ0FzuUMAcEjnHFbnxI/4LafDOHQ50+EPwm8UXusSRlYZPEf2e0toXIOGZYJpWkAODtymeeR1r4k/Zvsf2q/2pf2pv+E2+HvjPXNP8XahfLqGu+KbSRoYtOtiwV2k24UxhMIsB4cAJgjNAH7r/AAb+HMfwh+FfhX4Xw6vJqkfhfSrfS0vZIRE06xIFDlASFJA6ZNdlVfT7aazsbazuL6e9lghSN7mcKJJmVQDI+xVXcxGTtUDJ4AHFWKACvxa/4LUaXf2/7THhbWJt5tL3wXbQwMRwGivbsuoPt5in/gVftLXyZ/wUW/Y+l/aq+EsFz4Rgtx488INLeaK0rlBdxOB59mW6AybEKFhgOijKqzGgDD/4JIeLfD/iD9jXQ9B0koL/AMMatqdhqijhjNJcvcoxHoYbiIA/7BHY19n1/PH+y9+1R8Xv2G/idqkK6HcPZyzfY/E3hXVA9sZHiJAOCN0M6Ethtp4JBBB4/QO8/wCC2vwLXw39p0/4S+O5df8ALz9im+xpZiTnj7QJmcr058nPtQBof8FqPFegWH7O3hTwbdXUR1jWPFkV7Z2+RvMFvbTrNKB6KZ4lP/XQV47/AMEPdE1KTxb8VfEahl0+DTtNsW64eZ5ZnXHYkLG303D1r49+M3xi+OX7enxytLo6Fc6pq98w0/QPD2lxtJHY25bOxfbktJK+OhJKqoC/tR+w3+yzZ/so/BGy8G3jw3HijVpP7U8R3cLl43vGUARRkgHy41AQcckM3G7FAHzf/wAFtP8AkgXgX/scB/6RXFcv/wAEPf8AkUvit/2EdL/9FT11H/BbT/kgXgX/ALHAf+kVxXL/APBD3/kUvit/2EdL/wDRU9AH6e0UUUAFfmF/wXE/5FH4S/8AYS1b/wBFW1fp7X5hf8FxP+RR+Ev/AGEtW/8ARVtQBh/8EOf+Pn4vf9c9G/nd1+rNflN/wQ5/4+fi9/1z0b+d3X6s0AFfj3/wW6/5K98OP+xbuP8A0qav2Er8e/8Agt1/yV74cf8AYt3H/pU1AHvn/BFH/k2nxh/2PNz/AOm+yrxz/guFpt4viz4U6scm0k07VLZfRZFkgY/mGH/fNex/8EUf+TafGH/Y83P/AKb7KvZP+CiP7LN5+1F8CZdN8LWyS+MvC051bQVZgv2htu2a13HgeYnTOBvSPJAzQB+Zn7Cv7AXhL9sbwP4j8R33xcvPDWq+HtWWxm0+DSkugbd4VeKYs0qEbm85cY/5Z9ea+mf+HHXhT/o4jVv/AAnI/wD5Ir4W/ZX/AGoviZ+xP8Vr/U7XQ5J7efOneJPDl/utzMI2OAcgmKaNt21iDjLAggmv0Um/4LZ/ABdBNxb/AAp+IL615eRZulktrv8A7v2gTl8e/lZ9qAOG1D/gir8OtJuLKz1T9qC5s59SmNvZRXGiQRvcyhSxSMNcgu21WbC5OAT2r6+/Yw/Y30/9jvw34m8N6b8QLrxRH4jvYb0yT6etqYGjjKYAV33ZBHpjFfjt+0l+1N8aP24vi1ows9Fu4RBcfZPC3hnSC8zwSSFRuBUBpZnIXL4GMAAACv20/ZJ8BfFz4b/Ajw54a+OPjq98U+L1i8+8uLuYTPaBwNlr52N03lgYLsWJYthiu2gD+eTxxaz6T8Utfs9RQxzWXiC6inVv4WS4YMD9CDX9Oum3lrqOn2uoWTK1vcwpNCy9CjKCpGO2CK/Dr/gqh+zDrXwf+POp/FXR9Hf/AIQ34g3TalHcxKTHb6m/zXUL/wB1nfdKueCJCB90gel/sjf8Fcl+E/w90r4Y/HbwdrXiK00GBbPT9a0iSJ7z7KgCxQywzMiuUUbRJ5gJUKCCQWIB+wEkkcMbzSsFRFLMx6ADkmv5oYtUs9c/aMTWtOZTaah42F1AV6GN77cuPbBFfc37VX/BV6/+OXhC7+DP7OPgDxDpn/CVqNMuNR1AJ/aU0cvyvbW1vbvIFaTOzdvYlWICgkEfn74AsrrTfit4b02+gaG5tfENnDNG3VHW5QMp9wQRQB/T7X88/wDwUa/5PX+Kf/YTt/8A0jgr+hiv55/+CjX/ACev8U/+wnb/APpHBQB+8fwS/wCSM+Af+xY0v/0kjr8//wDguD/yIPwr/wCwxqX/AKJir9APgl/yRnwD/wBixpf/AKSR1+f/APwXB/5EH4V/9hjUv/RMVAG9/wAESv8Akg/jz/sbv/bOCvqb9uL/AJND+Lf/AGKt7/6BXyz/AMESv+SD+PP+xu/9s4K+pv24v+TQ/i3/ANire/8AoFAH5Bf8EpbeOb9t7wTJJndb2eryJ9Tp86/yY1+91fgt/wAEn/8Ak9rwh/2D9X/9IZq/emgD4I/4LQ/8mo6D/wBj1Yf+kV9XgX/BD7/kfvin/wBgfTv/AEdLXvv/AAWh/wCTUdB/7Hqw/wDSK+rwL/gh9/yP3xT/AOwPp3/o6WgD9dKKKKACiiigAooooAKKKKACiiigAooooAKKKKACiiigAooooAKKKKACiiigAooooA+O/j9b/F3/AIbH0PWvgbrWk/8ACT6N8M7m+m8P6rxbeIrFdUjEtjv6wyNndHKBhXVQ2ELGuT8F6g0C+Ivit+y94SnltjcPB8V/gNq8awTwXTrieezhkG2Gcgk7QPIuUBAw4xV39q3Sfh/4g/bI8EaJ4w+I2ofD3XrjwNP/AMIX4os7nyDZ65/aC+VGzH5HSRPNRopMLKrmMEMy1BqFv4p8YfErTPDvji/sfhR+1D4ftXTw34ssoS+h+O9OTJaNkOBNG2CXt3/ewlg8fBwKAydIn8NeE/hbqfiv4M6RJ8Vv2adfWeHxP4Au4mudV8FTdZjawSkuIYzl5LR/njbEkRwxNfQf7BP2cfse/Cz7LIXi/sMbSTnA82Tj8OmO2K8LtLrxF4x8ca/4u+GOn23wp/aT0K18zxr4B1K4zo/jSxQf65WX5ZgRgRXkfzRl9knDBq92/YNYyfsg/C5mtzAx0X5kI6N50mfrk5Oe+aTA97ooopAfgj/wVa/5Pe8bf9eekf8Apvgr5Fr66/4Ktf8AJ73jb/rz0j/03wV8i1qtgCv3+/4Jf/8AJkvw+/7iP/pdPX4A1+/3/BL/AP5Ml+H3/cR/9Lp6mWwH1VRRRUAFFFFABRRRQAV/Ml8e/wDkunxF/wCxs1f/ANLJa/ptr+ZL49/8l0+Iv/Y2av8A+lktVEDhK/an/gip/wAms+Kf+ygX3/pu06vxWr9qf+CKn/JrPin/ALKBff8Apu06qlsB9/0UUVmB8Af8Fq/+TWfC3/ZQLH/03ajX4rV+1P8AwWr/AOTWfC3/AGUCx/8ATdqNfitWkdgO9+AH/JePhv8A9jdo/wD6WRV/TXX8ynwA/wCS8fDf/sbtH/8ASyKv6a6UgCiiioA/na/4KB/8nmfFf/sOn/0THXz5X0H/AMFA/wDk8z4r/wDYdP8A6Jjr58rVbAfrL/wQ4/5F34vf9fui/wDou7r9Q6/Lz/ghx/yLvxe/6/dF/wDRd3X6h1nLcAr5y/4KJf8AJlfxV/7BMX/pVDX0bXzl/wAFEv8Akyv4q/8AYJi/9KoaFuB/PJRRRWgH9PHwb/5JD4H/AOxb0z/0ljrsK4/4N/8AJIfA/wD2Lemf+ksddhWQBX5FSf8AKbwf9hhf/UeFfrrX5FSf8pvB/wBhhf8A1HhVRA/XWobyztdQs59PvoEmtrmNoZo3GVdGBDKfYgkVNRUgfzIfHT4cv8IfjJ40+GLNIyeGtbu9PheT7zwpIRE592j2n8a4avu7/gsV8L4PBv7T1p48sbYx2/jvRYLyZsfK13bf6PJjt/q0tyfdiT1r4RrVAegfCfRdf+LXjjwB8E/tVxNp+o+JY7e2t1yRC97Jbx3Eg9MpDGSfSPPav6YrOztdPs4NPsbeO3traNYYYY12pGigBVUDgAAAAe1fh9/wSA+HJ8YftYJ4uuLMy2ngnRLzUvMZcolxMotowe24rNKw/wBwkdK/ceokAV/O9/wUK/5PQ+K3/YaH/oiKv6Ia/ne/4KFf8nofFb/sND/0RFRHcD54r9Xv+CGv/IL+Mn/XxoP/AKDfV+UNfq9/wQ1/5Bfxk/6+NB/9BvqqWwH6lUUUVmB8F/8ABZ3/AJNP0b/sd7D/ANI72vxLr9tP+Czv/Jp+jf8AY72H/pHe1+JdaR2A9V/ZO/5Om+Df/ZQPD3/pxgr+lOv5rP2Tv+Tpvg3/ANlA8Pf+nGCv6U6mQH4F/wDBTT9ntvgT+0xq99pOnx23hnxzu8QaUIVxHG8jH7TCAOF2TbmCjgJJH9B8l1+83/BUX9nn/hd/7NeoeINF0v7T4n+H7PrtgUH7x7VV/wBMhHqDEPM29S0KgcnB/BmqTugPZ/2Pfjxcfs4/tCeFPiblm0yC5+w6xEGx5mnz/JN9SoIkUdN0a1/R5a3VvfWsN9ZzJNBcRrLFIhyrowyrA9wQQa/lcr91f+CUv7Qa/GL9m+28D6xdvJ4h+HDpo0/mNlpbAqTZyD2CBosf9Mc9xSkgPtOiiioAKKKKAPyE8F/8pqdT/wCw7f8A/pqav17r8hPBf/KanU/+w7f/APpqav17oAKKKKACvnD4vf8ABPn9l745ePtR+JnxG8G6jfa/qoiW6nh1m6gVhHGsaYRHCjCoo4Havo+igDlPhZ8MfB/wZ8A6R8M/ANhLZaBocbxWUEtw8zIryNI2Xclm+Z2PJ71xX7QX7KHwT/aeXRF+MPh671QeHjcHT/s+oTWvl+ds8zPlMN2fKTr0x717BRQB518CvgD8Mf2cPBs/gH4T6Pcabo1xqEmpyQz3ktyxuJEjRm3yMWA2xJxnHHvXotFFAHzz8av2Cv2af2gvHU3xG+KHhHUNQ12e3htZJ4dXubdTHEMINkbheB3xXr/wz+HPhT4R+BNH+G/gexls9C0GD7NYwSTvMyR7i2C7ks3LHkmunooA8W+Pv7Hn7Pv7S3lXXxU8BwXWrW8Xkw6xZyNa38adlMqYLqDkhXDKMnA5OfnOD/gjB+yjDqH22TxT8S5od5b7HJq9mIsHOFytoJMDt8+eBkmvvWigDyv4Gfsv/A39nHT7iz+EfgOz0ea9VVu75mae8uQvRXnkJcqDztBC5JOMmvVKKKAPlTxf/wAEx/2P/HXivWfGniPwJqk+q69fz6lfSpr15GrzzSNJIwVZAFBZicDgV9T28EdrbxWsK4jhQRqM5wAMCpKKAPGP2gf2Q/gZ+09d6LffGDw3eapN4fjnisDb6lPa+WsxQvkRMN2TGvXpiuk+BvwF+Gn7Ofg2TwD8KdIuNN0aS8kv2hnvJbljM6qrNvkJbGEXjOOK9DooA5r4kfDzwt8WPAus/DnxtZSXeha/bG0voI5mhZ4yQcB0IZeQOQa8h+CP7CH7Nv7PPjdfiJ8LfCWoadri2ktkJptXubhfKkxvGyRyvO0c4r6DooAK57x58PfA/wAUPDF34M+IfhbTvEGiXy7Z7O+hEiH0YZ5Vh1DKQwPIINdDRQB8PeLP+CPP7IXiS7N1pZ8b+GFLbjDpOsxtH9P9KhmIH0NX/Af/AASN/Y/8F30V9qWleKPFzwvvWPXtWVoycggMltHCrAY6EEHJzmvtKigCjoeh6L4Z0i08P+HNIs9L0ywiWC1s7OBYYII1GAiIoCqB6AVeoooA+WvHP/BNH9kX4jeMdZ8eeKvA2qXOsa/ey6hfTJrt3Gsk0jFnYIsgVQSTwBivp+0tYbG1hs7dSsVvGsUYJzhVGBz9BU1FADJYo543hmjWSORSrIy5DA9QQeor5P8Ain/wS7/ZB+KWo3est4IvfCmoXrGSWbw1e/ZE3EHLLAyvAvJzxGBkdOufrOigD4Z8L/8ABHP9kXw/fi81S78eeJIwQfs2qazCkXGf+fWCFznIP3v4R2zn66+Gnwp+HPwc8Mw+Dvhj4O0zw5pEHzfZ7KEL5jd3kc/NI57s5LH1rrKKACiiigAooooA8Y+Ov7Hv7PP7RzJefFL4eWl7qkUflx6rayNa3qr2UzREFwOyvuAycDk187W//BGX9k2HVv7Rk1/4jT2+9m+wSaxaiDBzhcraiXA7fPnjkmvvCigDy34I/sxfAv8AZ2sJbP4R/D3T9FluQFub47p7ycDoHnkLSFe+3O3OTjJr1KiigDzD4+fs3/Cf9pjw3p/hP4uaJc6npul339oW0cF9LbFZ/LaPcWiYEja7DB45qp+z/wDstfBr9mOy1nT/AIP6Bd6XDr0sM18txqE11vaIMEIMrHbgO3T1r1qigAooooAK8l/aA/Za+DX7Ttlo2n/GDQLvVIdAlmmsVt9QmtfLaUIHJMTDdkIvXpivWqKAPHf2fv2S/gj+zC2tv8H/AA7eaWfEAgF/9o1Ge68zyd/l481jtx5j9Oua9ioooAK8R+P37GvwD/aa1rS/EHxe8M3up3ujWrWdo9vqdxahImfeQREwB5PU17dRQB5p8Bf2dvhX+zT4VvvBfwj0W50zStR1BtUuIp72W5Zrho44ywaRiQNsSDA44969LoooA8O+O37Ff7N/7Rl0dW+Jfw7tpda8vyhrGnyNZ3pGMDfJGR5u3t5gYD6ZFfPcX/BGD9lCPUvtz+KPiXLD5hf7G2r2fk4OcJkWgkwO3z545Jr71ooA8d+Bn7Iv7Pf7Ofm3Hwp+Hdlp2ozp5cuqXDvdXrr/AHfOlLMqnuq7QeMivYqKKAMTxn4J8I/ETw1feDvHXh2w1zRNSj8q6sb6FZYpF7cHoQeQw5BAIIIr438W/wDBHb9kXxJqLX2lzeOfDEbMzG10nWImh5xwPtUEzADBxhu59sfcdFAHzz8AP2C/2af2b9UTxJ4D8Fve+II0KR6zrU/2y7izjJiyAkTHoWjRTgkZwSK5gf8ABMP9j0eKB4xHgPVf7UGof2n5v9vXm37R5nmbtvmYxu5x0r6tooAK+Z/ih/wTp/ZU+MXj3WPiV488F6lea/rsyzXs8WtXUKu6oqAhEcKvyovQdq+mKKAKGgaJp/hnQtO8N6RC0VhpVpDY2sbMWKxRIEQFjycKo5NebftAfsv/AAd/ac03R9J+MGg3WqW2hTy3FktvfzWpR5FVXJMTAtkKOtesUUAeX/AP9m74Tfsz+HdR8K/CLQ7nTNO1W9/tC6juL6W6LTeWqbg0rEgbUUYHHFdh8QPAvhv4neCda+H3jC0kutE8QWcljfQxzNE0kLjDAOpDKfcHNdBRQB86fBv9gH9mP4C+PrL4mfDTwfqNhr+nxzQ2882sXVwqrLG0b5SRypyrEcjivouiigDzn47fs/8Awx/aR8HW/gP4s6Pcalo1rqEeqRQwXktswuEjkjVt8bBiNsrjGcc+1c3+z/8Ase/An9mPUtY1b4P+G73S7nXYIre9a41Ke6DpGzMoAlYhcFj0r2qigAooooAKKKKACiiigAooooAKKKKACiiigAooooAKKKKACiiigAooooAKKKKACiiigD4i/a21zw7ov7TFkvxI+Flz44+HeofDG5tPFaWlv582j2R1WI/2kIh87pC4jLNH+8jXMi8pg4PiS18NeGfh7pPgj46a/N8R/wBnnW5IbjwP8UrO6L6n4RlPFqt3cRDcAhwsd4Oh+SUYOB3Px+X4xW/7Yuia98D7nR7zXtG+GdzeX3hzVTth8QaeNUjEtmkn/LCY53RyY2h0UP8AIWrjvBl9a6ZpfiD4n/sv+ErrV/Cc11Lb/FH4EavbpBd6XdOD58lnayfLBNjO6DHkzqp2YZQBQB8QbG6P9jfC79qnxJLaarbS+b8K/jvoqpa+bcFSY7W8lU7ILhxwYmPk3Kq2CHVSfef2D1nX9kH4XLcyK8g0QAsvRh5smD9cYz71872beFfB/wAJtQ1z4c6e/wAYP2VvEsMqav4Xlhe61XwK4/1jwRyHzTbRNl3hOJYCokQ4BJ+hf2CRAv7Hvws+zSNJF/YY2FjnjzZOPw6fhSYHvtFFFID8Ef8Agq1/ye942/689I/9N8FfItfXX/BVr/k97xt/156R/wCm+CvkWtVsAV+/3/BL/wD5Ml+H3/cR/wDS6evwBr9/v+CX/wDyZL8Pv+4j/wCl09TLYD6qoooqACiiigAooooAK/mS+Pf/ACXT4i/9jZq//pZLX9NtfzH/AB1mjuPjd8Qp4W3RyeKtWdW9QbuUg1UQOHr9qf8Agip/yaz4p/7KBff+m7Tq/Fav2f8A+CKF8kn7NfjHTQp3weObictnqJLCyUD/AMhn86qWwH6E0UUVmB8Af8Fq/wDk1nwt/wBlAsf/AE3ajX4rV+0P/Ba662/sz+ELP5f3vjq2k9/l0++HHt8/8q/F6tI7Ad78AP8AkvHw3/7G7R//AEsir+muv5g/hFqR0f4seC9WEkcZsvEWnXG+Q4RdlzG2Wz2GOa/p8pSAKKKKgD+dr/goH/yeZ8V/+w6f/RMdfPle6/t1aj/an7YPxbud0TbPFF3b5jOR+6YR46nkbOffPTpXhVaoD9Zf+CHH/Iu/F7/r90X/ANF3dfqHX5Yf8ENL5mtfjNprGMCOTQJ0/vHcL9W79BsX86/U+s5bgFfOX/BRL/kyv4q/9gmL/wBKoa+ja+Z/+ClF9/Z/7EXxRuNyLusrKDL9P3moW0ePr83Hvihbgfz30UUVoB/Tx8G/+SQ+B/8AsW9M/wDSWOuwrhvgRef2j8D/AIeagFC/afCuky7QcgbrSI4z3613NZAFfkVJ/wApvB/2GF/9R4V+utfjHqnjDTH/AOCzia5FeeTbjxpb6SZA3WUWKWbLn3kBX8aqIH7OUUUVIHwB/wAFmPhlD4o/Zz0X4kQ2e+98E67GHmA/1dneAQyA+xmW1/ED1r8Vq/pj/aK+G8Xxf+BPjv4ayWq3EmvaFdW1qjDP+lBC0DD3WVY2HuBX8zrKysY2UhgcFSOQauIH7Lf8EWfhvJ4f+Bfi34lXVmYpfF+ura28jD/W2tlGVVh7ebNcL9VNfojXkv7Jnw1n+EP7Nnw6+Ht5Z/ZL3S9Bt2voCMGO7mHnXCn3Esj5969aqXqAV/O9/wAFCv8Ak9D4rf8AYaH/AKIir+iGv52f+CgVxHc/tmfFeSPOBrzR8+qxRqf1BpxA+fa/V7/ghr/yC/jJ/wBfGg/+g31flDX6uf8ABDWRDp/xmhDfOs2gMR6ArfgfyP5VUtgP1MooorMD4L/4LO/8mn6N/wBjvYf+kd7X4l1+1H/Bai+WD9l3wvZCVRJdeOrM7O7IthfEkfQlPzr8V60jsB6r+yd/ydN8G/8AsoHh7/04wV/SnX81H7K08dr+0/8ACC5mbbHD498PyOfQDUICa/pXqZAR3EEN1BJa3MKSwzKY5I3XKspGCCD1BFfzn/tsfAOT9nD9ozxT8PbW0mh0OWf+1NBaTPz6dOS0YDfxbCHiJ7mI1/RpX59/8Fhv2fV8ffBXTvjZotuzax8PpvLvAiZMul3DKrk4Gf3cvlsOwVpSaIsD8W6+oP8AgnL+0IP2ff2mNCvtX1Frbwz4qx4f1rJ/dqkzDyZmB4HlzBGLdQpf1IPy/QrMrBlJBHII7VYH9U+c8jkGlr5o/wCCe37RC/tFfs2aBrWqakt14n8OKNC1/d/rGuIVASZvXzYijlhwWLjsQPpesgCiiigD8hPBf/KanU/+w7f/APpqav17r8hPBf8Aymp1P/sO3/8A6amr9e6ACiiigAoorn/iF4w0v4e+A/EfjzWpfLsPDmlXeq3LdxHBE0jY98LwPWgDoKK+ZP8Agnz+0837TvwDs9a16+hl8XeHZjpOvRq3zs68w3BHXEseCT0LrJjpivpugAoorl/ih8RfDfwj+HviH4meLrhodI8OWEuoXRUZdlRchEHd2bCqO7MBQB1FFfNX/BPn4+eIP2jf2d4vH3iy6FxrUfiDVrO8I6Jm4M8UYx/CkM8KD/ZUV9K0AFFFFABRRRQAUUUUAFFFFABRRRQAUUUUAFFFFABRRRQAUUUUAFFFFABRRRQAUUUUAFFFFABRRRQAUUUUAFFFFABRRRQAUUUUAFFFFABRRRQAUUV4Z43/AG4P2U/hv4r1LwP43+M2k6TrujzfZ76ylt7lnhkwDtJWMqeCOh70Ae50VW03UbPV9PtdW024We0vYUuLeVQcSRuoZWGeeQQas0AFFFFABRX85vxF/an/AGnrH4heJ7Ky/aO+KFvb2+s3sUMMXi/UFSNFncKqqJsAAAAAdMVlt+09+19Z7bqX9oL4vRqhDBpfFWpbOOed0uCOOh4oA/pGor8H/gp/wVU/am+GfiCzm8aeKv8AhP8Aw+sn+l6dq8cYmeMn5vLuUUSK47Ft69ipFftb8Hfi14O+OXw30P4peA777Vo+u2wmj3DEkLglZIZB/C6OGVh6rxkYNAHZ0UUUAFFFFABRRRQAUUUUAFFFFABRRRQAUUUUAFFFFABRRRQAUUUUAFFFFABRRRQBm+JPEWi+EfD+p+KvEl+ljpOj2kt9fXTqxWGCJC8jkKCSAoJ4BPFeXfC/9sL9mv40eKo/A/wv+K2m6/rksElylnBb3CMY4xl2zJGq8A+taH7VX/JsvxY/7EvWf/SOWvx+/wCCQ3/J5Onf9i/qn/otaAP3UooooAKKKKACiiigAooooA+H/wBqbRfB3iP9s7wNoutfFC9+HPimXwNO3gnxHb3HlCPWhqK+XA4J2TJJH5iNBJhZVcoDuYVVmXxZ41+JUGl61Np/wi/ap8O2jLp2rW8bN4f8f6bHncMHH2iBsEmNv38Bwy9CBY/a+1rwTpP7S2nwfFv4Z3ni/wCHepfDWe08STWUBml0G3OqxldSKL+82ROI9zxfPGCXGduDleLbPQ/D/g3SPh7+0V4mm8dfBXU5YLj4d/GTT7sPqXhqY4FoL67iHysPlCXq/I/AlHzELQE2m3mueKvGvifx58FdNg+Gv7QOjW/mfEP4W6xdf8S3xVaqAPOjYDYzsu3yb6IYBkCy4Dkn3X9gxvM/ZA+FzfZzATovzRkYw3nSZ/M5Oe+c14d4z0/Ub7XvD3wp/ag8Rv4f8dWUhPwt+OOipHaw6nMV+S0uSPkjmfdtktXPlXCh9hDFSfV/2Gb7VvB/w7v/ANmvx08MfjT4S3j6ZeCNj5d/p8zNPZ38G4AmGRJCgyMhomBA4oYH0tRRUF9fWem2c+o6hdRW1raxtNNNKwVI41BLMxPAAAJJqQPwY/4Ktf8AJ73jb/rz0j/03wV8i17Z+2j8YdI+PH7TXjr4leHXaTR76/W102VhgzWtvGkEcuDyA6xhwDyAwB5rxOtUAV+/3/BL/wD5Ml+H3/cR/wDS6evwBr9/v+CX/wDyZL8Pv+4j/wCl09TLYD6qoooqACiiigApkkscMZkmkWNF6sxwB+Jp9cB8ePhDpvx5+EviH4S6xrV5pNn4hhjhlvLNVM0QWVJMqG46oBz60Acz+0l+1P8ACr9mz4eaj4v8W+JtPk1IWsp0jRo7pDd6lchTsjjQZYLuwGkxtUHJ7A/zjatqV1rWqXmsXzBrm/uJLmZh3d2LMfzJr9fZP+CJPwjmbfL8bPGbt6ta2pP/AKDTf+HIvwf/AOi0eMf/AAEtf/iatNID8eq+/wD/AIJL/tWeB/gf428S/DH4na9BouieNPs09hqV3II7W2v4dy7ZXJAjWRH++3ygxKCRnNfQ3/DkX4P/APRaPGP/AICWv/xNH/DkX4P/APRaPGP/AICWv/xNDaYH6MWer6TqCxtYapaXKzLvjMMyuHUjORg8jHPFOuNS0+zLLd39tCVG5vMlVcD1OTXxn+zn/wAEvfh/+zj8YNA+L+g/FXxRq934fF0sVjeQwLBJ59rLbndsGRgTFhjuBV/9p7/gmr4E/ag+Kd18UvEPxP8AE2iXN1ZW9k1lYwwtCFiUqG+cZyc81OgHxr/wV2/as8A/FzWPDHwZ+Geu22u2XhW5n1LV9Ss5lltWvGXyo4I3UkOY18wswyuZFAOQ2Pznr9hf+HIvwf8A+i0eMf8AwEtf/iaP+HIvwf8A+i0eMf8AwEtf/iapNID8fI5JIZFmhkZHRgyspwVI5BBHQ1/Rd+yj+1x8Mf2mvhppfiLR/Eun2/iWG0jXXtEmuES6sroALI3lk5MLNkpIOCCOjBlHyp/w5F+D/wD0Wjxj/wCAlr/8TTo/+CJPwjiYPH8bPGaMO62tqD/6DQ2mB+ji3Vu8JuEuI2iGT5gYbeOvPSvPfjN+0J8JfgL4LvPHHxG8ZadY2lvG7W9stxG11fSgZENvFndJIfQcDqSACRyHgX9k3w74F/ZXvf2V7Txhq93pN7p+pae2rzJGLtVvJJZGYADblTKQPoK+VJP+CJfwlmbdN8bvGjkcZa1tj/NalWA/Jv4k+NLz4kfEPxP8QdQhEVz4l1i81aWPOdjTzNIVz3xux+Fc5X7C/wDDkX4P/wDRaPGP/gJa/wDxNH/DkX4P/wDRaPGP/gJa/wDxNXzID5F/4JeftReEf2cfjVqWnfES/GneGPG9lHp9zqL/AOqsbmJi8EsvpGd0iFv4fMBPAJH7m6Z4i8P61a299o2uaff292gkt5rW6SVJlIyGRlJDAjoRX52f8ORfg/8A9Fo8Y/8AgJa//E13XwT/AOCT/wAOfgj8UvDXxR0b4ueLNQufDN8L6GyuIIFhmYAja20ZA57VLswPuOe8s7Uhbm6hhLdPMkC5/OvzP/4K5/taeAbr4Zr+zj4D8UWWs63quowXHiFbGZZo7G2t2EqQyOpIErTCJtg5AjO7GRn6Z/a7/YT8Jftea54d1zxJ8QNf8OyeHbSa0ij02OJlmEjqxZt46jbjivnn/hyL8H/+i0eMf/AS1/8AiaFYD8eqK/YX/hyL8H/+i0eMf/AS1/8AiaP+HIvwf/6LR4x/8BLX/wCJquZAeqf8E4P2vvhv8XPgh4Z+GepeIbHS/HHg/TYtJuNLurhUkvIIFCR3MG7HmKUC7gMlWByMbSfsqG6tbiNpILiKRF+8yOCB9SK/OJf+CI/whVgy/GrxkCOQRa2vH/jtfTP7P/7GPhn9n/4K+MvgtovjrXNWsvGJuzNqF4kaz232i1FufLCjHygbhnvUOwGv+05+198If2Y/BN7rvijxNp91r7W0jaR4fhuFe7v5sYQbFJZI92N0hAUDPJOAf58bj4l+MLr4mSfF6TUseJ5NbPiA3argC9M/nbwvQDf26Y4r9X5f+CJfwkmkaab42+M5Hblma1tST9SVpv8Aw5F+D/8A0Wjxj/4CWv8A8TVJpAfUH7K/7afwf/ab8FabqGl+KNJ0zxd9mU6v4buLpY7q2nA/eGNHIaWLIJV1yMEbsNkV9AxyJIgkjdXVhlWU5BFfm+v/AARH+EKsGX41eMgRyCLW14/8dr72+E/w9s/hP8NfDPw007UrnULXwzpkGmQ3VyAJZliUKHYDjJx2qXboB1lfhX4w/Znurr/gqNJ8FLfSlGnap41j1zytmI/7LkxqEu0dNqw+YuOmVxX7qV5Vffs6+Db79pLTv2mpbm5HiHTfDcnhuO2Cp5LI0jP5xON28K7p1xhqE7Aeq0jMqqWYgAckntS1heOvCsHjrwT4g8E3V7NZw6/pd1pklxBjzIVmiaMuueNwDZHuKQHNfGL4+fCj4E+Dbzxt8SPGWnabZ20bGGE3Cm4vJQMiGCIHdI59AOOpwATX84vxa+IeofFr4n+KvidqtsltdeKNXutVkgRiVh86RnEYJ5IUEKCfSv1dn/4InfCe6k8y6+OHjWZ/70lvbMfzIqP/AIci/B//AKLR4x/8BLX/AOJq00gPx6r7H/4Jg/tSeGf2b/jdf2HxC1RNN8IeNrFdPvr11JSzu4mL200hGSE+aWMnGB5oY4Ck19ff8ORfg/8A9Fo8Y/8AgJa//E0f8ORfg/8A9Fo8Y/8AgJa//E0XTA/RLR/EXh/xBY2+p6Dr2nalZ3kay29xZ3STRzIwyGRkJDAjoRUmoa1o2kQy3GratZWUUCGSWS4uEjVFHJZixAAx3NfEvwR/4JSfD34H/E/w38TtD+MHi6/n8OXy30djcRQLBOQCNr7RnHzHpXRftRf8E1fAf7UnxSn+KPiT4meJNFuZ7G3sjZWMMLwgQggN84zk5qdAPiH/AIK1ftX+BPjd4r8MfC34W+IrbXdE8INcXeo6lZSCS1uL6XaipFIMiRY0VvnUlSZSATivz6r9hf8AhyL8H/8AotHjH/wEtf8A4mj/AIci/B//AKLR4x/8BLX/AOJqk0gPyO8K+ILzwl4o0fxVpuPtejX9vqFvnp5kMiyL+qiv6N/2f/2pPg9+0Z4J0/xZ4H8X6abya3STUNHmu41vtOmKjfHNFncMNkBwNrYypIr45/4ci/B//otHjH/wEtf/AImlT/giT8Io2Dx/GzxmrDoVtbUEf+O0NpgfpBHJHKgkjdXRhlWU5BH1rP8AE3h3SfF3h3VPCmv2aXWmazZzWF5A44lhlQo6n6qxFYXwh+HNj8Ifhj4Y+GGm6nc6ja+GNNh02G7uQBLMsa4DOF4yfauvqAP5mf2gvg/rHwE+Mviv4S62xkl8P6g8EM+3AuLZsPBMB23xMjY7ZI7V57X78ftbf8E7Phf+1p420z4ga94o1fw3q9jp/wDZs8umQwsLyJXLRmTePvLuYA9cEDoorwz/AIci/B//AKLR4x/8BLX/AOJrTmA+Jv8Agnb+1xD+yv8AGRm8WXU48C+LI0sNdWNDJ9mdSTBeBRyfLJYNjJKO+AxCiv3l8K+L/CvjnQ7XxL4N8RadrelX0SzW95YXKTxSI3QhlJFfnn/w5F+D/wD0Wjxj/wCAlr/8TX0v+x7+xZ4T/Y7s/E1n4V8aaxr6eJpLaWb+0Iok8kwiQDb5YHXzDnPoKl2YH0ZRRRUgfkJ4L/5TU6n/ANh2/wD/AE1NX691+Qngv/lNTqf/AGHb/wD9NTV+vdABRRRQAV8lf8FSfiNbfD/9jfxZatceXeeLJ7Xw9ZqDgyNLJ5kq/wDfiGY/hX1rX5V/8FvviDH/AMWz+FVvdZf/AEzxBdwg9B8sEDEe/wDpIH0NAHzJ/wAEyf2kP+FBftG2Gk65exQeFvHnl6FqrTNtS3lZv9FuCeg2yHaSeAkrk9Mj976/l+8SfD/xL4T8M+EvGmoWsiaZ4xs7i80y5CkKxgupLeVAf7ytGGPoJE9a/e7/AIJ+ftGf8NIfs4aH4i1a6ik8S+H/APiRa8ofLtcQouydh1HmxlHz03FwPu0AfSdfl9/wWa/aO/s7RtB/Zp8M6pKlzqezXPEix8KbZWItbdj33SK0pXt5cR71+k/jTxh4f+H/AIR1nxx4q1BLLR9BsZtQvrh+kcMSFmOOpOBwByTgCv51fEuueOP2zf2o2vZpm/tr4j+JIrS0EvzLZQSSCOFOP4IYQoPtGT15oA+5/wDgiH8RbpdR+JfwlubotbyQ2niKzgJ4R1YwXDj/AHg1qD/uCv1dr8Av+Cafjq++GH7angyzuJjBDr0114Z1CPJG/wA+NhGn4XCQH/gNfv7QAUV+dP8AwUf/AOCjXiD4G683wN+Bdzbw+L4oo5tc1uWFJ10xZF3RwQo2VM5Uq7M6lVVlABZiU/OLwb4b/bN/ai1W817wl/wsnx3cRP5d1qP265lhiYgt5bTyOI0OMkJuHsKAP6M6K/Fz4J/taftjfsSfETQ/CX7UmneMLjwJqtz5d1D4kjkupYIiQHnsrpiS5j4YxB2QjICqzBhz/wCzT/wUE/bA8dftCfDnwb4q+NF5f6NrfibTrC/tW0uwQTQSToroWSAMMqSMgg+9AH7h0UV+Ius/8FEv2ovDP7UF54b17423Vt4J0vx49lfW7aVZFYtLj1ApIhZYDIQIQwyDu465oA/bqivxc+Ln7Xn7an7bvjLWPDf7MOgeMdM8EWMnlRW/hxXhmkj3YWS8vV27Gfr5W9VA4w2Cx+bviT4D/bK/Z5urTxN8Rbf4j+EJbuYi31ZtSuFV5jklRcxSFRIRk7d244JxQB/RpRX5k/8ABL/9vz4g/Fbxif2ffjdrn9t6lPZyXPh3WrjAu5zAm6S1mIH71vKVpFkPzfu33FiRj9NJJI4o2kkdURAWZmOAAOpJ7UAOor8Yf23P+Co3xK8deL9W+Hn7PPii48MeC9PkezbWdPby7/VnViGljnHzQwkj5PLKuRyzfNtXwP4c/A/9vT4jWMXxL+Hvhv4o3sE2bi31lNQuLZrjcCDJDLJIrSg/MNyE+maAP6GqK/E2x/4KNftafCP4W+OPgh8WtQ13S/iDYW1ifDWtarpyjVLSRLyDz4bkToVmV7XzisrqWzn5m3KV9m/4Jf8A7X/7R3x7+Pmr+D/i38TLnxDo9t4buL6K1ksLSELOs8Cq+6GJG4DsMZxzQB+plFcf8XPip4R+Cfw4134oeOr77No2gWpuJiuN8rZCpFGCQC7uVRR3LCvwq/aE/wCCgf7S37SPiaax03xVq/hnw9c3Ji03w34euJIdyMcIkzxYkuXPGQ3y7vuqvSgD+gWivwH8JfA3/gpV8NLWL4ieD/CPxc0UQ7bom3uJxOwTJAls95kcfeyjxkEEgjB57b4kf8FVv2lte+HngnS/D3iyTwp410S41O18UXFrptsY9UjxbfY5jHNG4ikUi5V1TAzzgAhVAP3Cor41/wCCXHx0+K3x++B/iHxX8XvF0viHVbLxLLYwXEltBAUgFvA4TEKIp+Z2OSM819A/tCfHzwJ+zb8MNT+KHj+6ZbOzHk2trF/rr+6YHy7eIf3mIPJ4UBmPANAHpNFfgb8Wv28P2wP2qvGw8M+B9b8R6PaajcsmleFvBzTJM69VR3gAmuGAGWLHbkEhVHAxbz9mn/goV8P9PbxuPA3xU02O2j85rrT76ZrmJMbixSCQyqABk5AxjnFAH9BlFfi1+yD/AMFV/ix8OvE+m+C/2htbufF3g2dks5NUu136ppnIUTNL964QclxJukOMhsja37PWF/Y6pY2+p6beQ3dndxJPb3EMgeOWNgGV1YcMpBBBHBBoAnor8W/2zf28v2tPhh+1B8QvAPgX4wXelaDo2qC3sbNNMsZBDH5MbbQ0kDMeWJ5J610Xxy/bY/as/a18V3Hwq/Y70vxUPDukW8cF/qfh+F0vNRk+61xJcgL9khZshF3ISASx52qAfsFRX84HxH0f9rn9nfxRaX3xHvPiJ4O1q+Zri0vp9TuI2uGBBdo7hJCHIJUthiRkZ619sfs7/wDBXrUfC/wN8SWPxxhk8T+PNBEKeG5I4/KOspJ8uLp1+VWiI3M4ALowABYFmAP1nor8LfHWn/8ABT79rCxHxE1Lw38Qrrw9fR/arKx04tpth5B+dTBa70MowAVch2bC/M3FeL/DP9qL9p79mnxq/wDYnjrxRpd5plw0Oo+H9ammktmdW+eK4tJjhWyCM4V1ycEZNAH9HVFedfs7/GTT/wBoD4L+FPi/pmnmwj8R2PnyWhk3/Z50do5ow2BuCyI4BwMgDgVwn7Y/7YHgn9kX4ep4i1mBdW8R6sXh0LQ1l2PdyLjfI7YJSJNylmx3AHJoA+gKK/n08SftLftxftkeMpNB0HxJ4x1eeeOR18O+EhNbWcMB4YvFAQGQbtu+YsfmwW5qvr/wf/4KAfs96fJ481HR/ip4Vs7XDz6np+pXBSFR/FK9vI2xecZfA5x3oA/oTor8qP2Dv+CpnizXvGWmfB79pfVLa+TWZks9J8UGJYJIrhvlSG6CAIyu21RIApUn5sg7l/VegAor8TP2hP8AgoF+1h4D/ai8d+CtH+M13p/hjQ/GV7p8FoNLsXWCzjumUJuaAuQEGMkk++a3fjd+2r+13+2V461XwD+yXoni6x8GWMnkI3h23kivbqPcQJ7u7TH2dX7JvRdpwxY5oA/Zaiv50Pid8M/20vgO0PjL4lab8SPDQuJvl1l9QuGTznzw1zFIyrI2G4Zgx5Nfbn/BMf8A4KB/Evxt8RLL9nn42a9ceJBq8En/AAj+tXbBryKeGNpGgnk+9MrorEOxLhlwSwb5QD9U6/nc/wCCg3/J53xX/wCw5/7Rjr9K/wDgqp+0N8ePgLYfDqb4I+ML3Qn1mbUV1E21hBc+aI1gMefNjfbje/TGc1+OHxB8beMPiN4z1bxx8QNTl1HxDq8/2jULqWFInlk2gZKIqqvAHAAoA/pe+Ff/ACS/wf8A9gHT/wD0nSupr8df+CfP7X37VnxA/aR8BfC7x18RNSv/AAdLBc272Muk2sUZihspDEvmJCr8FE53c45zX7FUAFFFFAH8wPxG/wCSpeKP+xgvf/Sh6/pj0OxsdR8JaTbahZwXULWEGY5ow6nMQB4Ix0J/Ov5mviUwj+KHiqRs4XXr4/8Akw9frVB/wWj/AGcdJ8O2dlpvw3+JF3e2ttFCUntLCCJiqAE7xdOcZH92gD5t/wCCv37PfgD4RfFDwj4++H+i2eiQ+OrW9/tDTrKBYbdbu1eLdOiKAqmRbhdwAxuQt1Y19H/8ET/F2q6p8EvHPg28Z3stC8RR3VmzD7v2mAb4wfQNDux6yE96/PX9tL9r7xJ+2H8RrHxRe6H/AGFomiWhstH0hbjzzCHYNLK77V3SSMFzgABUQc4yf1i/4Jb/AAD8QfA39meCbxlpEmm+IPGeovr1xbTDE0Fu0aR20bj+E7E8zaeR5pBwQQAD7Borw39rn9rHwP8Ask/Df/hMvE0J1LV9QdrbQ9Fjk2SahOAC2WwfLjQEF3IOMgAEsAfxp8X/ALU/7bn7YnjKTw9oHiHxdqEl0rtF4a8HpPBbRwc53xwHLoAcF5i3Xk0Af0EUV/Pb4g+CH/BQD4E6XN461Dw/8VPDNnaqXuNT03U7g/Z0XB3SvbSkxqP7zYHvX1X+wv8A8FUvGt3400z4T/tM6tb6pp2szR2eneKHjSCaznb5UW7K4R4mO0eZtDKSSxYHKgH6z0Vi+NPF+gfD/wAI61468U3otNH0Cwn1K+n2lvLgiQu5AHLHCnAHJOAK/Df4v/tzftaftgfE+HwP8LdY1/QdO1a/8jQfDHhu6a1mlUZ2/aJo2V5W2je+5hGpBIChc0AfvFRX4C+Of2bf+Cgv7NOgv8Vdbh8aeH9PsQr3GqaR4mE7Wqlhhpfs07Mi7iuSw25xmv04/wCCa3x0/aK+N3wludR+PHhO78i1kX+xPFU0Udv/AGzCchlaEYLMhH+uVdjg4+8pLAH2FRXlv7SH7RHgP9mP4X3/AMTPHlwWjhP2fT7CJgJ9Ru2UlII89zgkseFUMT0r8Wvih+3L+2R+1d44Twz4N1/xJpsOoXLLpfhfwYZonK8kK7QfvrghRli525BYKo6AH770V/Pnf/s4/wDBQj4Z6e/jg+C/ippEdpH5z3mnX87TwoPmLMIJTIgGMkkDGOcYr3L9jv8A4KtfE7wP4p07wR+0frkvijwhdOlo2tXSZ1HSzkASySKM3EY/jDgydwxxtYA/ZqiorW6tb61hvrG4juLe4jWWGaJgySIwyrKRwQQQQRX57f8ABR7/AIKMa58B9Y/4Uj8D7m1XxkIUn1nWJI0nXSkkXdHDHG2VM7KVclwVVWXglvlAP0Oor+czwfoX7Zn7UusXuteE3+JPjy6hcrdah9uuJIYGILCNpncRRnGcJuHHQV9F/Br9qz9s79h/4gaJ4b/ab0zxldeBdVudl1beJFkunjiJAeayu2LZaPhjEHZCMjapbcAD9qKK/DH4A/8ABQr9sbxj8cvAHhPxJ8ary90nWPEunWN9bNpWnqJoJLhEdCywBhlSRkEHmv3OoAKK/DL44f8ABQz9sLwh8d/HXhXQ/jXeWei6P4o1CxtbcaVYMIbaK6dETLQFjhQBkknirPxe+In7bX7f/jbXvEnwd8O+Nrv4d6XfSWukWOlyNZ2McSkbDKxdEmuCu12yWZd2BtXFAH7iUV+dH/BKHwD+1F4b1Dx1N8bte8aaboOj+TpNl4a8QNMc3jKsjToJstGiReWBswr+bnnaKrft8/8ABUC7+EfiK/8Agv8As+myufE2nt5OteIJ4xNDp0vO63gjPyyTLxuZsqpyuC2doB+kFFfzz6Fpv7ev7W8154m0O4+J/jm3WcmS6+3TJYRS8nZGWdIEIDH5I8YDdBmtLQfF37dH7H/j3QrfxBq3xE8Gx315HGtrqkks2m3qmTa4CSF7eU/M3Iyy7sgjINAH7Z/tVf8AJsvxY/7EvWf/AEjlr8fv+CQ3/J5Onf8AYv6p/wCi1r9gf2qv+TZfix/2Jes/+kctfhf+w18fPDH7NPxpuvi14ptZ7uLTfDuow2lnD9+7u5EVYYd2CEBbqx+6oJ5xggH9EdFfhb4m8af8FKf223n8YeHdG8dv4WnMotbPQWk0vRxGTgohLotyQDt3O0jcsM4yK8R1XxJ+1t+y142jsNa8RfEPwDr8RW5SG4vLiFblFJAcKWMVxFncM/Oh+Yc8igD+kCivkf8A4Jx/thaz+1f8LNTj8b28CeMvBs8Fnq09uAkd9FMrmC5CAARs3lyKyjjdGSMBtq/XFABRRRQAUUUUAfHn7QMnxi0/9sDRfEPwVtdJ1vVNJ+Gdzcar4X1Jgi69pv8Aakay20Mh4hnO4MjkFSyBWypIPGeEbzS9G8Oa/wDEr9mvwvdeK/hhqFxPbfEn4I6lapHfeH7p8/aTZWj8QSL/AB2f+rcBvLPCgbX7UGg6F4n/AG0PA+j/APC1Ln4c+M28CTyeCtcjl2o+rLqKkWsqE7J45IhKrQvw4OBk4Bor/wAJV40+JztGun/CD9q3w7ZbWXax8PfEHTY85ZQf+Pi3cg4Y/wCkW5AByE4oDMtR4P8ABfwpa80O3l+MX7I/iqJxc2BikudU8BgNh5FDHz3tYXDsy4E9sU3L9z5svxBo918LW8KeMNV+LOpXvgFIRb/D342aVIt7daBazEeXpmvJgx3tix2qszj5W+8Y2wR0vhm+1rXvGniH4lfs/aJD4F+NOlbZPid8HdauNtp4iQAfvoWH7sTOmPJvYh5bmRBLjc2a/gy+tdM0nxB8T/2X/CdzrXhCe6lt/ih8CdWt0iu9Ku3yJ3srWQbbeYc7rfHkzKp2YZQAAHxy/bi/aU/ZHs4j8YPg54W8baPeqjaP4y8Pahc2Gn6kW24geIxXAhuNu+TDSKjKjFM4xX59/tQf8FJPj3+0xo914LuPsHhHwfdMPO0jSN5e6UHIW4uHO6QZ/hUIpwMqcV9GftaadPon7HOt6l+zv4ytvF/7PviO9s2j0nUJ3/tHwVfpcxt5EJkO827OCjW8g3xM6kfLuJ/MOmkAUUUVQBX7/f8ABL//AJMl+H3/AHEf/S6evwBr9/v+CX//ACZL8Pv+4j/6XT1MtgPqqiiioAKKKKACiivFPjp+1NoP7P4vb7xd8KfiXqeiadbpdXWu6Jocd1p8KN13ymZSu3jJKgDPWgD2uivhL/h8t+yT/wBAf4h/+Ce3/wDkmpG/4LHfsoxoskmg/EZUblWOiW4B+h+007MD7por5R+Hv/BUD9jX4g31vpafEqXw9eXLiOOPX9Pls4wT03T4aFRnuzivquGaG4hS4t5UlilUOjo2VZSMggjggjvSAfRRRQAUV5V8YP2hvCHwb8c/DHwH4ijL3vxO159DsWEoXyCI8iQgj5gZnt4sDHMwOeMH1WgAoorxT9oL9qrwv+zbCdT8b/Df4ialocVulxca5oeiJd6fa7nKBJpTKvltkD7wA+decnFAHtdFfCX/AA+W/ZJ/6A/xD/8ABPb/APyTX1r8F/jL4C+Pnw70v4n/AA31Rr3RtUU7fMTZNbyqcPDKmTskU8EZI6EEggl2sB3FFY3jDxG/hHw1f+I4/Dus661jGJBp2j26z3lxlgNsUbMoYjOcFhwDXyH4k/4Kyfs7eD/Elx4P8V+Afito+u2kohn0298ORQ3MbnGFMbXAbJyMcc5GOtFrgfatFcT8JfihH8W/C58VQeA/GXhSIzGGO08U6V/Z93Ku1WEqxFmOw7sAnHKniu1pALRXyd8f/wDgpl+zF8Bb+78OPr134y8R2crQT6Z4dRJxbyDIZZZ3ZYlIIwyqzODwV615v4X/AOCnPxO8daX/AMJJ4H/YS+KevaGSdl/p8c08UijrtZLYqxHopNOzA++aK+PvhP8A8FRv2a/HmqSeGPH1xq3wt8QwS+TLZeLLcW8QfOCPtAJRMHg+b5Z9q9X8A/tWfDX4pfHrW/gf8PdSsfEI8P8Ah5Nbvdb06+juLVZjcLEbVSmQzKHViwbAztxkGiwHtVFFFIAorzD9oz9oDwb+zR8Mrj4n+N1llsor60sI7eEjzZpJ5lQ7M9diGSUj+7G2OcV6RZXtpqVnBqGn3Mdxa3USzQzRtuSSNgCrKRwQQQQfegCeiiuQ+JnxCl+G+hw63H4A8XeLfNuPIaz8M6el5cxjYzeYyNInyfLjIJOWUY5oA6+ivhrUv+Cwn7LWj6hc6Tq3hn4l2N9ZTPb3Ntc6DBHLDKpKsjo1wCrAgggjIIro/hz/AMFQPgl8Xtdbwz8MPhj8W/E+pxxGeS303w7DM0UQIBdyLjCLkgZYgZIHenZgfYVFZfhjXH8S+H7DXpND1TR2voVmNhqkKxXdvn+CVFZgrDuAxrUpAFFFZHizxd4X8C+H73xZ4z8QWGiaNp0Zmur6+uFhhhX1ZmIAycADqSQBzQBr0V8PeKP+CtXwHXxZF4I+EPgbx38T9WuH8uAaFpm2Od+6xLIRM5HJ4ix6Gm+Iv+CpWkfDW6s/+F2fssfGLwLY3zBILu/0uMI55zjzWjDY6kKScdumXZgfcdFeY/BH9pb4JftFaXNqnwh8eWOtm0Cm7tMNDd227p5kEgV1B5AbG0kHBOK9OpAFFfL/AMZP+CgXw3+Ad48PxS+Enxa0ezN5LY22pyeHYvsN5IhPMMxnCsGALKDhivOOteZr/wAFlP2S2YKujfEMk8ADRrfn/wAmadmB92UV8N/8Phf2U43QXWhfEa1jZgplm0KEKvucXBP5A16f8Mf+CjH7IHxW1Sy0LQfi1a6bql+yxw2etWs2nkyNwsfmSqIixOAAHOSQBk0WYH0rRSA5GRyDXkvxu/aL034ErLe698KfiR4g0m1sP7Ru9W8N6Il7aWse5wwlbzVZSoj3sdu1VZST1wgPW6K+Ev8Ah8t+yT/0B/iH/wCCe3/+Samj/wCCxP7KsiiSPw78SXU9GXQ4CD/5MU7MD7nor4Uf/gsl+ybG22TRfiIp9G0W3H/tzX0P+zN+1V8M/wBq7w1q/ir4Y2uuQWWi3w0+5GrWscDmUxiQbQkjgjDDnI5osB7JRRRSA/ITwX/ymp1P/sO3/wD6amr9e6/ITwX/AMpqdT/7Dt//AOmpq/XugAooooAK/Ar/AIKj+Pk8e/tmeLobW7+023hqG08PwleiNDEGlQfSaWYH3zX70a1q1loOj32ualOkNpp1tLd3EjnCpHGpZmPsACa/nI+Fug3H7Sn7Wmh6XqSySDx942F1qJBO4QT3RmuW9ciMyHr2oA/UD49fsQxeNP8AgnZ4H8DeGtJlk8Z/Dnw/b65p0USAy3N1JCJdQtgB181nkKqOd6R9ec/E3/BLL9oef4J/tI2Xg3Vp1Tw78R2i0K8EjbRDebj9jmHv5jGLnjExPYV+7aRxxxrFGgVFXaqgcAelfgp/wUp/Zrm/Zx/aKude8LafLZeE/Gjtrmiyxn5be53A3NupH3THKwdR2SWMZODQB9l/8Fkf2jf+EU+Huj/s7+GtVjTU/FzLqWvRx8yR6ZE+YkP90SzJnjkiBh0bnyr/AII5/swt4g8Val+0z4s0vOnaAZNL8NeYSBLfOu24nC9xHG+wE8bpWxynHxr4g8RfFj9t/wDaJ037Qsd34s8YT2Wk20YJEMKRxLGGJ/hRVRpHP++a/oN+Dfwq8L/BH4YeHfhZ4PtEg0zw9YpaqVXBnk6yzP6vJIXdj6saAP58/j5oXiL9nX9rbxdZ6SzWWpeD/GMmqaTIQcqguBc2cmPeNom/Gv6KvDfiSw8TeFNK8XWci/YtW0+DUonzx5UsayKc+mGFfi9/wWQ+H114Z/aisfGy25Fl4x8PW06zdmubZmgkT6rGtufo4r9EP+CbHxCuvip+xf4L/ti48670OC48M3DKefLtXMcA9iLcwj8M96APw5uW8Q/H745MI52m1v4h+KfLjeUlibi+utq5743SgY9q/pD+Fvw08JfB/wAAaJ8N/BGlW+n6RodpHawxwxqnmFQN0r4+9I7ZZmPLMxJ5Nfze+Adam+Cvx28OeItYtZHl8B+LbO9uoVX5mayvEd1APfMRFf0xaXqmn63plprWk3cd1Y38Ed1bTxtlJYnUMjqe4III+tAHnn7SXwS8P/tCfBjxP8LtesraWTVLGT+zriWMMbO+VSYJ0J5UrIFzgjKll6E1+Av7IUckP7V3wmhlUq6eNNKVlPYi6QEV/Qv8YPiZofwb+F/if4o+JHAsPDWmzX7puCmZ0U+XCpPG6R9qL7sK/nq/ZFmkuf2svhRcS4Ly+NdLdsepukJoA/pFr+Zb4+I8nx6+IkcalmfxZqqqB3JvJK/ppr+af4sKsn7TnjCORQyt45vwykZBH296AP6Hvgj8I/CnwN+F/h/4Z+DtJtrGy0ezjil8lADcXG0ebO5HLO75YsfX0xXJftmeEdJ8bfsq/FPRdYs4riGLwvf6hGJFB2TW0LTxOPQq8SkH2r2evNv2l/8Ak3H4q/8AYk65/wCkE1AH4Wf8E7biS3/bU+FUkTYY6tLH+DWsyn9Ca/Zj/goF46vPhz+x38TvEmnzPDdSaUmlwuhwym8uIrUkEdwJyfwr8Y/+Cen/ACeh8Kf+w03/AKTy1+w//BSfwzeeLP2J/ibp+nozT2tnZ6lgDPyW17BPJ/5DjegD8hP+CeHwP0f49/tT+GPC3iezjvNB0lJte1S2kQMlxDbAFImB4KNK0KsD1UsO9f0Iwww28KW9vCkUUShERFCqqjgAAcACvwc/4JR/EPRvAP7YWh2+uXCW8PirTLzw/DM5AVbiUJLEpJ/vvAsY/wBp1r95qAPhL/gr18E9A8bfs2z/ABaj02BfEPgG7tpUvFjHmyWNxOkEsLN1Kh5Y5ADnGxsYya+Pv+CMP/J0Ou/9ifd/+lNtX2//AMFaPibo/gn9kTWvCNxcR/2p45vrPS7GHcN5WK4juZpNvUqEh2kjoZE9a+IP+CMP/J0Ou/8AYn3f/pTbUAfQn/Bbfx9eaT8NPhz8N7WZ0i8R6te6nchTwy2ccSqreoLXefqntXm//BF34E+H/EfiDxf8ePEWnw3lz4beHRtEE0YdYLiVC88y56OE8tVI6CR/Wux/4Lh+Fb668M/CfxtCjGz06+1bS7hscCS4jt5IvpxbS0n/AARF+IOiN4a+I/wrmuo49Xjv7bX7eFj809u8fkyMo7hGjiz/ANdVoA/UKvxr/wCCzXwV8P8Agj4reEviz4c0uGyPju0uodVWBAqy3toYv3zAcb3jmQE9/LJPJJr9lK/In/gtt8StH1jxx8OvhXp11FLe+HbK+1XUlRgxia7MKwo2OVbbbu2D2kU0Ae4f8EV/+TbvFf8A2OE3/pJbV89f8FrPiTq2p/GLwb8KY76QaToWhf2w9srEI13czSJvYdCwjgUDPQO2PvGvoX/giv8A8m3eK/8AscJv/SS2r5b/AOC0HhW60v8AaX8PeKTE4tdd8KW6I56NLBcTK4B9leLj396AMf8A4J5/tjfsz/sj+HfEOpfELwL4x1bxxrl2I11HSdNs5o7fTkRdkKPNcxupaQuzgLg4jyTtGPsP/h9X+yz/ANCD8Vf/AAVad/8AJ1eW/wDBNT9l/wDY/wD2kP2fTqXxA+FVnrHjPw7qtzp+r3DatfRSTI7GW3lMcU6oq+W/ljCjJhbqcmvrL/h2X+w7/wBEHtP/AAd6n/8AJNAH42/tpfFb4J/G744X/wAUPgd4Z17QNO122in1Wz1a1ggY6kCwlljWCWRQrqI2PIJcyHHNfsN/wTD8fXnj39jLwQ+oyPJdeHzd6C8jHO5LedhDj6QtEv8AwGvIvil8D/8Agkz8Fvido/wn+JngXS9D1rWbM3sclxrOqfZbZC4RBcSi5xCXO8qXwuI2JK/Ln7N+C/wl+FHwa8Dw+FfgvodtpXhm5mfUoYra9luopHlVcyLJK7khgq9Gx6UAfgz/AMFCv+T0Pit/2Gl/9J4q/aL9g/4X+Gfhb+yn8ObHw/pFvZ3Gu6BZa9qkyRgS3N3dwrM7yN1YjeEGeiooHAFfi7/wUK/5PQ+K3/YaX/0nir92f2av+Tc/hX/2JOh/+kMNAHiv/BUjwTZ+MP2LvG11Nbxvd+HZLHWLN2XJjdLqNJCD2JhklH41+TX/AATt+FegfGD9rrwN4Z8VWn2vSLKafWbq3Iys32WF5okcHgoZVjDA9VyO9fsf/wAFC/8Aky/4rf8AYFX/ANKIq/LH/gkT/wAnlaX/ANgHVP8A0WKAP3VUBQFUAAcADtX4m/8ABZbwTo/hv9qDSPEuk2cdvL4p8L215qG0AeddRTzQeYcdzFHCv/AK/bOvxu/4La/8l28Bf9ikf/SyegD7Y/4JTySSfsP+BldiRHd6uq57D+0bg4/MmvzG/wCCo/xO1r4h/tgeK9Jvrxn03wasGg6bAPuwokaySnHdmmkkJPXG0dFFfpv/AMEpf+TIfBP/AF+av/6cJ6/Kf/go94XvvCv7aHxKt7y3kjXUr+LVLdmXiSK4gjkDKe43Fhx3UjtQB9JfsR/8FBP2Sv2UfgrZeCbz4d/EC48V30r3niLU7DTLF0u7gsQio8l4rmNI9iqCqjO44yxJ9/m/4LS/sp3EL29x8PPilLFKpR0fSdNKspGCCDfYII7VH+xz+xb+xD8df2a/AnxE1D4QWGp6zdaVFa61OutagGbUYB5VwzolwFRmdS+0AABxgYxXs/8Aw7L/AGHf+iD2n/g71P8A+SaAPwy+NviL4ceIPjB4m8VfBfR9T0PwlqGpNfaRY3sUcM9kr4cx7YpHVVVywQK5woWv6If2Z/HmofFD9nv4dfEDWGDajrnhqwur1gMBrkwqJWA7AuGIHvXx7P8ABv8A4JF2Pxov/gHq3hPRNM8Wae0MLJe65qcNrLcSDIt0uGufLMwyoKEglnVRubIH3f4E8EeFfhv4P0rwL4H0tdN0HRbdbXT7RZpJRDEMkKHkZmbr1JNAH87X7ZYLftafF9RyT411b/0qev3w/Zj+DHhb4C/BHwp8PfC+mwW/2XTYJdQnRAHvL141aeeQjlmZyevQYA4Ar8FP2vxn9sD4sAjIPjnVP/St6/ox0X/kD2H/AF6xf+gigDjfj94D0f4m/BPxx4F16zjubTV9CvIdrjOyXymaKQejI4VgexUV+BP7DNxLa/tf/COSFsM3imzjP+67bW6exNf0O+MP+RR1v/sG3P8A6Kav53f2If8Ak7v4Rf8AY26f/wCjRQB/R1X87n/BQb/k874r/wDYc/8AaMdf0R1/O5/wUG/5PO+K/wD2HP8A2jHQB+/Xwr/5Jf4P/wCwDp//AKTpXU1y3wr/AOSX+D/+wDp//pOldTQAUUUUAfzE+NbOLUvjHr2nzs6x3Xia6hcr94K10wOM9+a9L/bO/ZN8TfslfFefwjdNdah4Y1PddeHdYmjA+122RmNyo2+dGSFcDHVWAAYCvPPE3/JctV/7Gyf/ANLGr+gX9rb9mPwn+1V8IdQ+HmveVa6pDm80HVCmW0++VSEfjkxtkq691PqFIAPjT/glT8Mv2OviR4Nt/Gen/D21n+K3hIrHq6atdSXnlOx/d3tvFJ+6VXxwQpaNlYZ6M36aV/OJ8MvH/wAWv2HP2jl1SbTriw1/wlqDWGtaRM7Rx39tkCWByOGjkTDI+CM+XIM4Ff0D/B34ueC/jn8N9E+KHgHUlu9I1u3Eqf34JBxJDIP4ZEYFWHqOMgg0Afix/wAFaPiRqnjT9r7WvC89/JJpvgrT7LS7KDefLjaSBLiZgvQMXmwx6kRqP4RXpf7CX7fH7Kf7JvwbTwrrvw+8dXnjPVLqa717VNN0qxdJzvIgiSWS7SQxpEF+UqAHaQgc5Pi3/BUfwrceGf21vHU0sbrBrken6rbFv4keziRiPUeZHIPwx2r7m/Yl/Y9/Yj/aE/Zo8GfEPVPgzZXuum0/s3XZP7a1BXOoW58uV3VLgKhkwsu0AACUYAHFAGk3/Baj9laRWjk+H/xUZWGGU6TppBHof9Or8nv2iPE3wp8Z/GbxR4u+Ceh6vo3g/Wbz7dY6dqkMUU9q8iK08YSKSRFjExk2ANwhUdq/cP8A4dl/sO/9EHtP/B3qf/yTXiOs/Br/AIJH+G/jZdfAHxL4N0bSPFVrHbsftmualHZtNMCVt/tBudizBdhKOV/1qAFjkAA9y8H2utftVf8ABPfTtJhvlh1zxv8AD0aabm5Y7Dfi3MLO5GSFaaMknkgN3r8U/hH4++IP7Gf7R2l+MNW8HvF4j8EX81vqGi6kpiZ0eN4Zot2DtLRyNtkAI5VhuHB/ok+Hfw/8G/CzwXpfgD4faOml+HtHiaKws0mkmESM7OQHkZnbLMx5Y9fSvOvjl+zH+zr+1DFNovxL8L6ZquraTtT7fYziHU7DepKqZYzvCkchJMocA7TjNAHknwf/AOCmH7I3x80dPDfjDW4PCWo6qjWd3oniuFRaTBhhk+0EG3eNskYcqT0KjIz9eWP2L7HB/ZvkfZPLXyPIx5fl4+Xbt424xjHFfjL+2D/wSf1z4HeDda+LHwk8aS+JfDOiobu+03Uo1j1CztQPmkEiYjnC9WwsZC9A2DWl/wAEiv2pfG+j/F61/Zv8Sa3d6l4X8TWt1Jo9vcPv/s69ghac+WTysbxRSgoDjdtIAJbIBR/4LP8AxO1rXvj14e+Fn2xhovhbQ475bZehvLpmLyN6ny44QM9Pmx941i/8E+P2z/2X/wBkbwbrU/jjwH411Tx3r14RcanpWn2c0UdggHlQRvNdRsvzb3bCjJK5J2riH/gsd4XvtG/autfEE1vILXxB4ZspoJSvys0TSQuoPTI2KSO24eor3X/gm7+yn+x7+0V+zja6748+F9jrfjHRdTu9P1q4Or30Ur5kMsDNHFOqqPJkRAQoz5Z6nNAHpP8Aw+r/AGWf+hB+Kv8A4KtO/wDk6vzC/bE+JvwZ+Mfxz1f4l/A/wvrPh/Rdeiiub2x1O1gt3GociaREhlkQK+Fc/MCXZzjmv2d/4dl/sO/9EHtP/B3qf/yTXivxI+Cf/BJP4RfFTT/g98R/BekaFr2o2YvA91rWqLaW6s22NZ5/tOyFn5Yb8LtUkkZXIB7T/wAE2fiJqXxC/Yz8B6rr0/mXejQ3OiyzMfvRWk7xwk+4hWIE9yCa/DTxFqeu/H346XupLK0mq+P/ABO3kmTJxJd3O2NT3wN6jHoK/oy+Evwl+Fvwj8Aw+B/hHocGk+F5WluoILe8luUYzcs6ySu7EN1+9j0r+cjw5cXXwX+N2l3muW7tceBfFUEt3Eq/Mz2V2pdQD3JjNAH9IPwk+FvhL4L/AA70L4Z+CdNhs9K0K0S2j8uNUaZwPnmkwPmkdsszHkljWR+0L8GPDfx++D/iX4X+JNPt7hNWsZFspZUBNpeBSYJ0J5VkcKcgjIyDwTXc6LrOl+ItHsfEGh30V7p2pW8d3aXETZSaGRQyOp7gqQfxrC+KnxE0L4S/DjxJ8SvEkyRad4c02fUJtzhfMKKSsYJ/idtqKO5YCgD+dT9mGGW3/aa+GFvNGUki8ZaUjqeqkXcYIr+lWv5rP2ZbmW8/ae+GV5OQZJ/GmlyOQMfM15GT/Ov6U6AP5o/2nv8Ak5D4o/8AY4av/wClclf0QfAn4a6d8H/g54O+Gum2kVumgaPbWswjQKHuBGDNIQP4mkLsT6sa/nn/AGjf+Tn/AIkf9jtqn/pbJX9KlAHAfH/x1d/DH4H+PfiFp8ipeeHvDt/qFqzDIE0cDtHwevzBeK/ny/Zj+F0/7Rn7SXg34c65eXNyvijWDNqs7SMZpbeNXuLpi/UuY45TuPc5r99/2rPCd544/Zp+J3hTT7d7i71HwtqMdtEn3nmEDMgA7kso471+EX7C/wATtK+D/wC1l8OPHWvXCQabb6o9jeTSEBIYbuCS1aRieioJ95PotAH9D/hrw14f8G6BYeFfCuj2ulaRpdulrZ2drGEigiUYVVAqp448CeEfiR4bu/CPjjw/Z6xpN4B5lvdRhwGHKupPKupwVYYKkAgg1ughgGUgg0y4uILWCS6upo4YYVMkkkjBVRQMliTwAB3NAHmH7VX/ACbL8WP+xL1n/wBI5a/Bf9in4S6P8cv2o/h98NfEUIm0jUNRe61CE9Jra1gkuZIj7OsJQ/71fvR+1V/ybL8WP+xL1n/0jlr8YP8AglUqt+3F4DLKCVttYI9v+JbcigD967GxsdLs4NN02zgtLS1jWGC3gjEccSKMKqqoAUADAA4FfBn/AAWY8E6JrP7M+k+NLjT4W1bw74kto7W62/vEguI5EljB67WZYmI9Y19K++q+Jv8Agr9/yZzef9jHpn/oT0AfLH/BEO7mT4rfEqxVj5M3h61mZcnlkucKfTo7fnX7AV+PP/BEX/ksXxF/7FqD/wBKlr9hqAPN/wBof4sX/wAEfhLqvxI0vw7b67eWN3plnBYXF41pHK95f29oC0qxyFApuNxwjZ24xzXh/gb9rD9ozxv4k8UfD9vgF4D8P+OvCySTy+Etb8fXNvqV/bhcpc2e3TGguIHb5BIsu0NjeUBBPT/8FEo7Wb9kXxhDfarJpdvJqXh1Zr6KYRPaoddsA0queEKjLBj0xmvIfGWmam2o+H/hH+1T4im0vxJY3Kn4VfHjR40tVubogGG1u3BKw3L/AMcDnyblUbBDqrFgdj4P/a4/aN8f+D/E2veEP2d/BmoeIvBsjW+ueCf+E5u4fEFlMGI8toJdMWJiVVnUrKVdR8hZsLUFp+2V8d9e+Dkvxs8CfAvwN4x0mwm+z6vpuieNr+TVtIdRmdbq0k0lHV4RgvGu58EMqup3VzWqWvijxf8AErS/CvxC1Kx+Ff7T/h+1dPCXjWzhLaL45sEGZYmjICyoVH7y2f8AewsRJFkDFGmz+JvGXxGvfE3gXTrX4RftP6DaqfEvg7UJNuhePdPQn/SE2/8AHzExBWO7X97CQ0cmQFamBgfEvxBb/EzVNE/aE+Pnw28J+Jfgh4k8JyeGrrWfBOvXWsHQXa+ini1KfzbO1ngCOhQtErPEVbfj7p1fGFppukeH9C+G37S3imXxR8NL2SC4+GPxx0u7B1DRZmA+xrf3kfCTYC7btf3Uw2+YMs2JfB+oajcat4o+Kn7MfhVtJ8V2txt+LfwL1nZELuZvla4td37uKdk3skqAw3KkbhuGDX8K3WheH/Bus/EL9nvw/dePfgfrEs9r4/8Ag/f2wbUvC102TdfY7V8+VsyDJY8qcs0RwV2gFvxVZ6xq3izw18Mf2jvEX/CGfFzTHb/hWHxm0ZEt7TX24ItZlB2rI25VlspDsmBbyyN4BWaPxZ40+JkWnatNp/wi/aq8O2hXT9UgjZvD3j/TY87sKcfaIGwSUb9/bnBHAIGay+DfBfwniiuFm+Mn7I3ipN0F0ge51TwEA2CzE/6RJaxPuO8YnttjDB2gNN4ts9D0HwfpHw9/aM8TTeOPgvqckFx8OvjLp10G1Hw1KcfZBfXkQ+Rx8gS9X5JOBKPmIUA8C/bcn8G+NPhH8QvF1jb6j8J/i1ZzadH8Svh286yWusobmJYNQjXhJgrmJku4Rkq5R+ZMn8y6/UT/AIKIXniTS/gfN4C/aT8KW+v+MdImtpPAXxR02zEdvrtqZU862uPL/wCPe5ETMzRN+6fyy6YIXP5d1UQCiiimAV97/sx/8FWL79m/4K6B8HYfgdB4gTQvtGNQbxE1qZvNneX/AFYtn2434+8c4zXwRRQ1cD9Sv+H5Wp/9G0Wv/hXN/wDIdH/D8rU/+jaLX/wrm/8AkOvy1opcqA/Xb4Sf8FkdQ+KHxW8GfDST9nu305fFviHTtCa8HihpTbC6uY4fN2fZF37fM3bdwzjGR1r9Mq/ms/ZO/wCTpvg3/wBlA8Pf+nGCv6U6mSsAVR16ztdQ0PULC/tYri2ubWWKaGVA6SIyEMrKeCCCQQavVW1L/kH3X/XF/wD0E1IH8st5GsN3PFGMKkjKv0BNf0afs5eCfBvjH9kb4R6N4t8J6PrVhd/D3w+k9tqFjHcRSq2mwZDK6kHNfzm6h/x/3P8A12f/ANCNf0kfsrXFvafso/B+6upo4YYvh74feSSRgqoo02AkkngAetXID8O/2/PgB4d/Zv8A2ltd8B+DVlj8PXlvb6xpcEj72t4Zwcw7jyQkiSKuedoXJJyT9/8A/BG39oLxP468B+Jvgj4qvJb4eCfIvdGuppGeRLKdmVrYk/wRugKegkI6KK+FP+CkHxt8J/Hj9qbXfE3gW/j1DQtJs7bQ7O+j+5d+QGMkiHunmSSBW6EKCOCK+5v+COP7OnjLwB4V8UfG7xnpc2lx+Mobax0O1uYWjmls4yZGucMMiORmQJ/eEZboVJHsB+kdFFeTftWfGZf2f/2fPGvxVikgF/pGmsulrNyr38pEVsCv8Q810JA/hDfWoA/Gr/gpf+0BN8WP2ttVuPC+tXP9l/D4x6DpM0MhTZc27lriaPB4b7QXAcclYoz2GP2f/Zn+Mem/Hz4E+Dfirp04kk1rTY/ty4x5V9H+7uo8dtsySAeowehFfz+ftF/Avxx8CPFOhad48uWudQ8WeHLDxUZWQqQbtS0kTE9XjlWRGPcrnvX6Ef8ABFL43XF1Y+NP2e9UuEZbLHifRwT84R2SG7T/AHQxt2AHd3Pera0A/Uqqmq6Vpeu6Zd6LrWnW1/p99C9vdWtzEssU8TghkdGBDKQSCCMEGrdFQB/Mn8YPAN14P8beJpNN0O5tfDEPinV9F0u4YM0TG0mAaEOc7mSOWEkE5w6nvX0f/wAE1f2yG/Zr+KB8F+N9VdPh54xmSG+aabEOlXn3Y70A8KuPklxjK7WJPlgV9d/AL9m3wr+1J+zX8d/hr4hWK3vj8XvEV3ompMhLaffqkIjlGOSpyVde6se+CPya+IXgHxV8LfG2s/D3xvpMum65oN29neW8ikYZejLn7yMpDKw4ZWUjgitNwP6hY5EkRZI3V0cBlZTkEHoQa+Ev2pPh/wCGdQ/4KRfsx6/eafHJcarBqq3OV4kOnwvcWzHsSsknX/ZHoMc//wAEof2ym+KPhAfs8fETVTJ4q8K2gbQ7qeQbtR0xMDyvVpIBgdyYyD/Axr0T9pj/AJSC/so/9c/FP/pCKlaMD7Lr8uv+CqH7eGs+GtQvP2Zfg9rZs7ryQvizVrSX97GJFyLGJhyjbSDIwOQGCcfMK/SH4k+NbH4b/D3xN8QtSiMtr4a0m71WWMNgyLBE0mwHsW24H1r+ZDxZ4n1jxt4o1fxh4iuvtGqa5fT6heS9N80rl3OOwyx4oirgfff/AASd/Y78O/GLxBqnx2+J+jw6n4d8L3a2ej2FyN8V5qQAd5JUPDpErIQp4ZnGfuEH9lYooreJIYI0jjjUKiKuFUDoAB0FfNX/AATe8Bw+Af2M/hzaLEFuNZsZNeuX7yNdzPKhP0iaJfoor6YpN3YHg37V37Hfws/as8F3Ok+J9KtrDxNBC39j+IoIQLqzmx8odhzLCTjdGxxjJG1sMPgj/gkl8P8AxN8Kf2t/ix8OfGVl9l1rw94dlsbyMZ270vrfDKSASjDDKccqwPev1wryjSvgDo+i/tMa3+0dp+oJFdeIPCsPh2/sFtsebLFOrrcmXdyfLRI9u3og54xQmB6vRRWT4s8T6P4J8L6v4w8RXX2fS9EsZ9QvJeuyGJC7nHc4U8UgPyX/AOC0Xxyk1z4g+F/gHpF8psvDNt/bWrxxtnN7cLiBHHYpDlgPS4+lfYn/AAS7+OH/AAuL9lXQ9M1CXdrPgSQ+G73LDLxRKGtpMdQDCyJz1aNzX5J/tNeBfih4o0nTf2xvGljLDpfxk13VriyibLNaRxSAQI7Hs0YYR8DKwEjjFezf8Eh/jgvw3/aOl+HGral9n0f4i2f2FUdsR/2jDuktifRmBmjHq0qirtoB+4FFFFQB/P1/wU8s7Ww/bm+J0FnbpDG0mlTFUGAXk0qzd2+rMzMfcmvtL/gh/aWq/D74o3y26C4k1nT4Wl2/MUWCQqufQFmP4mvjT/gqP/yfZ8Tf+4N/6Z7KvtD/AIIg/wDJM/id/wBh2y/9J2q38IH6XUUUVAFTVtU0/Q9LvNa1e8itLHT7eS6uriVsJFEilndj2AUEn6V+AP7dH7aniz9q74iXMGn311ZfDzRLh4/D+lAtGJlGB9ruFzh5nwSM/wCrVto53M36j/8ABVr4lat8O/2P9ctdFvZLS58XajaeHWljOG8iXfJOgPo8ULof9l2r8OvhzocXif4heGPDVwoaLVtZsrF19VlnRD+jVcV1A/cz/gmz+y34b+A3wD0Lxde6Kv8Awm/jexh1fVry4iXz7eGVd8NohI3RosbIWXPMhYnoAv05488B+Efib4R1PwL460G01jRNXt3trq1uYw6srAjcM/dcZyrD5lIBBBGa3lVUUIihVUYAA4Apai4H85HxK0fx/wDsR/tUa/oPgLxXf6frHgfV/wDiW6gh2PcWjqssPmqPldZIXj3ocq2SMEV+5P7H37TWg/tVfBbTPiPp8cFprETGw1/TYmYiyv0ALqu7ko6lZEOT8rgE7g2PzE/4LR+G7PS/2mfDfiC0t1jfW/CFu1yyr/rZorq5j3E9z5flL9FFXv8Agi/8UtT8P/HfxJ8KZJs6T4t0Nr4Rn+G9s3BRh6AxSzg+uE9Kt6oD7n/4KoW1vcfsQ+O5JoUdre40qSIsMlH/ALQgXcPQ4Zh9Ca/Dr4O/8ld8D/8AYyaZ/wClUdfuT/wVL/5Mf+IH/XTSv/TlbV+G3wd/5K74H/7GTTP/AEqjojsB/TL4i8L+G/F2lz6J4q8P6drGn3UbRTWt9apPFIpGCCrgggg1/Pr+358AtF/Zx/aY8QeBvClsbbw7ewwazo0JkLmG2nBzHliSQkqSoMknaoya/oer8Lv+CvHj7SfGv7Xk+l6TIsn/AAiHh2x0G6deQZxJPdMM+q/awp91I7Uogfa3/BIX9ozxR8W/hDrvwx8aX8moX/w8mtorG8lctK+nXCv5UbkkljG0Mig/3Ci/w5P3xLFHPE8M0ayRyKVdWGQwPBBHcV+Wf/BD/wAFapDb/FH4iXFvKmn3Lado1rKRhJJY/NlmAOOSokh6Hjf7iv1PpPcD+WPWlVNYv0RQqrdSgAdANxr9+/8Agm3Y2cv7FPwzkks4XY2d3lmjBJ/0yevwF1z/AJDeof8AX1L/AOhmv35/4Jz6hZaT+wx8O9U1K6itrSz02+uLiaVtqRRpd3DMzE9AACSfaqlsB3Pxu/Zn/Z//AGmvCer+D/FfhvRLm8s3a0GqadHCuoaRd+WrgCVBuRgskbmNuGVl3KQRXzl/wSZ+HuufCbw78Z/hn4kUDUvDPjx9NnZR8shit0USLn+FgAwPcMK9D/4J2fE+H4z+F/jN8TrTd9j1/wCLmrXFlu6/ZFsNOSDPv5SJn3r6M8LfDnwt4N8ReKvFGg2ckN/4yv4tS1ZmlLLLPHAkCsqnhfkjQEDqRmp20A6eiiikB+Qngv8A5TU6n/2Hb/8A9NTV+vdfkJ4L/wCU1Op/9h2//wDTU1fr3QAUUUUAfOH/AAUS8fP8O/2OfiTqkFyIbnVNNGhwndhmN5Itu4X1PlySHjsCe1fmJ/wSD+G//CaftYx+K7hAbXwRol3quT0M8u22jX64nkb/ALZ1+32qaPpOt2v2LWtLtL+33B/JuoFlTcOh2sCM8nn3qDSfDPhvQZJJdC8PaZpzygLI1paRwlwOgJUDNAGnXzl+3t+zXD+01+z3rPhnTtPE/irQg2s+G2DBGN5EjZg3HjEqFo8E7dzIx+6CPo2igD8vv+COf7LsmkWGs/tL+MtLRLu7abQvDcM8Z8yCNG23dyARhSzjyQR8w8uYdG5/UGq9jp9hpdqljpljb2ltHnZDBGsaLkknCqABkkk+5NWKAPzm/wCC13gObWPgn4I+IVtaNK3hvxBJYzyKP9VBeQklj6DzLeJfqwrkf+CIvxOurjR/iP8ABy8mUwWVxa+JLBM/MDKvkXP4furb8SfWv091LS9N1i0aw1bT7a+tnILQ3MKyRsQcjKsCDg81V0nwr4Y0GZ7jQ/Del6dLIux5LSzjhZlznBKgEjIHHtQB+Q3/AAVE/YV8VeFfHmsftGfCvw3JqHhTX3a/8QWlhCzyaVeHma5dAP8AUytmQuPuuX3bQVrwv4A/8FJv2m/2d/Ctt4F8OapoviHQNP3LZWHiOzkuRaKc/JHJHLHKEBOQpcqOgAHFf0AdeDXnevfs4/s8+KdQfVvE3wH+Her3z/eub/wvY3Erc55d4iTyT370AfjjdfFT9tD/AIKgeL9O+Fv+iweHra7jur6LSbF7bSNNUsQLi5cs7vtG7YrOxJB2jOTXhP7Hv/J1Xwk/7HLSf/SlK/o38P8Ahnw34T09dJ8LeH9N0axQlltdPtI7eIE9SEQBR+VVLXwH4HsbiK8s/BmhW88LCSOWLToVdGHIZSFyCPUUAbtfzUfFb/k57xd/2PV9/wCl71/SvWDJ4B8CzXDXU3gvQXndzI0jabCWZicliduSc85oA3q82/aX/wCTcfir/wBiTrn/AKQTV6TUdxbwXUElrdQxzQzIY5I5FDK6kYKkHggjjBoA/nj/AOCen/J6Hwp/7DTf+k8tf0I6/oOkeKND1Hwz4gsYr3TNWtZbK8tpRlJoJFKOh9ipI/Gqdl4H8FabdR32neD9EtbmE7o5odPhR0PqGC5H4Vt0Afz0ftffse/E79kP4kTzR2eoz+EJb3zvDniW2D7Nud8cckqgeVcIByDjO0suR09K8F/8FfP2ufCPhyLw/fN4O8TyQwrDHqOtaXM94AFwGZoJ4lduhLOrEkc55z+4uoafp+rWcunapY295aTrtlguIlkjkHoysCCPrXnsf7M37N8Opf2xD+z78NY9Q3mT7UvhOwE249W3iLdk5POaAPw4+KsP7U/7WXgfxZ+1p8WJriXwt4Ot7a3trqa3+zWTGe9gtha2MYGDhp97uM/cwzFtor2P/gjD/wAnQ67/ANifd/8ApTbV+0M+iaLdaX/YlzpFlLp21U+xyW6NDtUgqNhG3AIBHHGBVbS/CfhXQ7g3eieGdK0+dl2NLa2ccTleuMqoOOBx7UAeb/tWfs86H+098E9c+FWrTJa3V0q3Wk3zDP2K/jyYZDgE7eSrAclHYDnFfgpfaX+0N+xN8ZoppodW8FeMdCkLW9wq/ubqEkqWRiPLuIHAIPVTyCMggfvV+1R+0Pa/su/CS5+LeoeD73xHZ2d9bWdxa2lwsLxrMxQSFmBGA+1cf7Qr5w+Af/BRD4DftmfEW3+CvjL4O2mn/b7WaaxHiSS1vre6mTBNukbx43sm5h67CKAPi65/4LHftdXmgjQ7fTvAVveMnljVIdFnN2WORu2tcNDu5/55Y4HFfPPx9+E3xw8MaV4c+NPx4GoR638U7rUr2GPVMi+ljgFsftEqn/Vq5ucIhAIWPoFK1/QP4Z/Z/wDgP4J1BdW8G/BPwFoN8pDLdaZ4bs7WUEdCHjjB4ye/evyg/wCCzPxe8M+OPjL4S+HXhzVrfUJfA2nXQ1JreQOsF3dPGWhJHG9UgjLDPG7BwQRQB9L/APBFf/k27xX/ANjhN/6SW1e7ft1fsj6f+1v8JP8AhHbK5ttP8W6DK194f1CZMqspXElvIRyI5QACR0ZUbB24Pmn/AASF8C6h4R/ZGg1zUoWiPi3Xr7VrcMME26iO3U492t3I9QRX23QB/OX4Y8VftQfsE/FieS3s9W8E+I0j8m7sr+232mo2+eMqcxzx5B2uhODnawOa911z/gsl+1vq2jNpdjpnw/0a4ZQv9o2Oj3DXA4xuAnuJIsnr/q/piv2p8ReE/Cvi+z/s7xZ4Z0rW7TOfI1GyjuY89fuyKR2H5VxWmfsx/s26LeJqGj/s9/DSwuo/uT2vhOwikX6MsQIoA/D74A/sqftE/tz/ABKn8WalJqbaZqV602veNNXVzCD1dYyf9dLjCrGnC5UHYvI/eP4W/DXwr8Hfh7oPwx8E2slvonh2zWztFlffIVGSzu2BudmLMxwMljwK6S1tbayt47Szt4oIIl2xxxIFRAOwA4AqWgD+d7/goV/yeh8Vv+w0v/pPFX7s/s1f8m5/Cv8A7EnQ/wD0hhrrb3wP4K1K6kvtR8H6JdXMx3STTafC7ufUsVyfxrXt7eC1gjtbWGOGGFBHHHGoVUUDAUAcAAcYFAHz3/wUL/5Mv+K3/YFX/wBKIq/LH/gkT/yeVpf/AGAdU/8ARYr9z72xstStZLHUrOC6tphtkhmjDo49CpGD+NZ2m+D/AAjot0L7R/C2kWFyFKia2sYonAPUblUHBoA2K/G7/gtr/wAl28Bf9ikf/Syev2RrL1bwt4Y16ZLjXPDml6jLGuxJLuzjmZVznALAkDJ6UAfLH/BKX/kyHwT/ANfmr/8Apwnrnv8AgpT+w1qX7T3hmw+Inw1jiPxA8LWz28do7Ki6vZbi/wBn3nhZUYs0ZJCne6nGQR9padpmm6PaJYaTp9tZWsZJWG3hWONcnJwqgAZJJq1QB/Ov8Gf2lP2mv2H/ABZrHhzw79p0Kd5gNX8NeINPcwNMowHeFtro+MfMjKSNuSRivWfH3/BXn9rnxxoc+hac/hDwl9pjaJ7vQNLmW52sCDte4nm2HnhlAYcEEGv2u8WfDv4f+PYPsvjrwL4e8RQ7Svl6tpcF2uCCCMSqwxgkfia57w/+zv8As/8AhO8/tDwt8C/h9o10MHz9P8M2VvJxnHzJED3P5mgD8Zv2Lf8Agnz8Uv2nPF1l4++JWn6ponw8M4v77Vb4MlzrQ35aK23/ADOX+bdMflHzEFmwK/dLTNNsdG0200fS7WK1srGBLa2giXakUSKFRFA6AAAAe1WFVVUKqgAcADtS0Afzhftff8ngfFj/ALHnVP8A0rev6MNF/wCQPYf9e0X/AKCKz7rwJ4HvbqS9vPBuhz3EzmSSaXToWd2PJYsVyST3NbigKAqgADgAdqAMjxh/yKOt/wDYNuf/AEU1fzu/sQ/8nd/CL/sbdP8A/Ror+jllWRSjqGVhggjIIrDtPAvgiwuor2x8G6HbXELB45odOhR0YdCrBcg+4oA3a/nc/wCCg3/J53xX/wCw5/7Rjr+iOsS98D+CtSupL7UfB+iXVzM26SabT4Xdz6liuSfrQBR+Ff8AyS/wf/2AdP8A/SdK6mmxxxwxrDDGqIihVVRgKBwAAOgp1ABRRRQB/Mj4m/5Llqv/AGNk/wD6WNX9N1YDfD/wG0xuG8E6AZS28udNh3Fs5znbnOe9b9AHwH/wVK/YpX40eC5Pjp8ONH3+OfCtr/xMLa3jLSaxpyZJUKv3pogSy8ZZdy84QD4c/wCCb37aU/7MvxIPgvxxqMn/AArnxbOkd+JHYppV2cKl6q84XHyygDJXa3JjAP7vVz7fDv4fsxZvAvh4k8knS4Of/HaAPk//AIKMfsUt+1h4F03x38NGs28d+Grd2sPmUJrNi43/AGXzSQoO4742Y7cs4OA+4flJ8Jfj9+05+w1421fQ9B+3+Gb6RxHq3h7XrBjbzOv3XeF8ENg8SIQSpHJU1/RTDDDbQx29vCkUUShI40UKqKBgAAcAAdqwvFnw98A+PrYWfjrwP4f8R24BURatpkN2mCCCNsqsOQSPxNAH4q+OP+CwH7XXjDRZdH0xfBfhR5lZGvdD0qb7SAwx8rXM8yqR2IUEetYX7HX7A/xa/au8Z2/jj4gWuraR4Bluvt2q69fl1udX/eZkjtWcFpJHJbMxBRfmJLMAp/aPQ/2cf2efDN4NQ8N/Af4d6TdDGJ7HwvYwSDHT5kiBr0JVWNVjjUKqjCqBgAegoA8o+OXwz8cax+zxrXwz+APiqfwV4gttIjsfD11azeV5IhChIBLgtEGjXy/MXDJuDA8V+JHwf/aN/aY/YN+L3iGPVNFuodW1GRI/Emh+JopSL4oxZJS+4Nvw7FJlYgh8/Mpr+hCue8XfDzwB4/thZ+PPA3h/xJbqCqxavpkN4gB4I2yqw5yfzoA/Gn9pL/grP8Svj18MtS+Ffh34Z6X4OsNftzZ6tdDUHv7ieBsbo4iY41iDdCSHOCQCOtek/wDBI/8AZB8dWvxCT9pj4geG7vR9G03T5ovDAvIzFLfXFwjRPcIjDd5SwtIoYgBjKCpIU1+lnh/9nf8AZ/8ACd8up+FfgX8PtGvFIZbjT/DNlbyAjoQ0cQPGT3r0FVCqFUAAcADtQB8zft7fsf2v7XHwoi0nSbqCw8ZeGpJL7w/dTcRu7KBJbSnGRHIFX5h91kQ8gEH8ZvBnjz9p79gv4q3i2NrqngzxCEEOoabqdpvtdQgDEruRvkmjyCVkQ+u1hk1/RnWR4i8I+E/GFoLDxb4X0nW7UdIdRso7mPqD92RSOoH5UAfit4g/4LIftca1o7aZp+neANDnZdv9oafo87XA/wBoCe4ljz/wCvOP2df2RP2gv23viJJ4t1h9Wi0PUb1p9e8aasrMjHq4iLczyn7oVeFyNxVRX7faT+zP+zhoN4uo6H+z98NtOu0+7PaeFLCGReQeGWIEcgH8BXotvb29pClrawRwwxKFSONQqqB0AA4AoA5/4c/D/wAMfCnwLofw58GWJtNE8PWUdjZxMctsUfeY4G52OWZu7MT3r8of+CpH7CvizQ/HWq/tIfCfw5PqfhzXSbzxJZ2MTSS6bdgfvboooz5Mn32YZ2vvLYUiv2CpKAP5+/2ff+Cj/wC0x+zj4Xg8DeGdU0fX/D9luFnpviK0kuUtAeqRvHJHKqA8hN+0HOBzXY6h8Yv20v8Agp14q0/4TQx2sWgRXUdzf2+j2L22lWC7sC5upGZ3YICdqs5JI+UFua/ZHXv2c/2e/FWoNq3ij4E/DzWL1/vXN/4XsbiVu/LvESfzrsPD/hfw14S09dJ8K+HdM0WxU7lttPtI7eIH1CRgD9KAP5uv2W/+TlPhb/2OGk/+lUdf0sVg2/gHwLaXEd1a+C9BhmhYPHJHpsKsjDkEELkEeoreoA/mr/aN/wCTn/iR/wBjtqn/AKWyV/SpWDP4B8C3VxJd3PgvQpp5XMkkkmmws7sTksSVyST3reoASvxe/wCChn/BObxv8OfGWtfGb4K+G7nXPA+rzS6lf6fp8BefQ5G+eX90vLW2dzKyjEYyrYChm/aKigD8Dfgp/wAFPv2qvgd4Ys/BNjq2h+KNI0uL7PZW/iWxkuHtoxnEYlililZRnADs2AABgACpviJ/wUL/AGrP2oNS0n4d6lqFppuk6pqVrHNovhWwlh+3fvVxG5LyTSKTj5N+0nGQa/a/xN8AfgT40vP7Q8Y/BXwHrt1kt5+p+G7O6kyep3SRk9h+VavhH4W/DH4fgL4D+HPhfw2Au0DSNHt7PA54/dIvHJ/OgDlP2qv+TZfix/2Jes/+kctfjD/wSp/5Ph8C/wDXrrH/AKbbiv3tuLe3vLeS1u7eOeCZTHJHIoZXUjBUg8EEdjWVp3gzwfo92moaT4T0ayuo8hJrexijkXIwcMqgjIJH40AbNfE3/BX7/kzm8/7GPTP/AEJ6+2aqanpOla1amx1jTLS/tiwbybqFZUyOh2sCMigD8hP+CIv/ACWL4i/9i1B/6VLX7DVl6T4X8M6DK82h+HdM06SVdrvaWccLMvXBKgZFalAHzd/wUSktIf2RPGE2oaXLqdrHqXh1prKKETPdRjXbAtEsZ4csMqFPXOK8S0tvBfg/4T3WreBIf+F0fsl+I1eHU/DpjlvdY8Cnq8kKyHzWtITl3ifE9udkiHCsT7n/AMFB21Rf2T/FTaGts2pDVvDRs1ud3kmf+3rDyw+3nbuxnHOM1474ev8AWvFHjzxF8QvgZosXw6+PeixrJ8R/hHrV2Bp/iiABSZ4in7t5XUqIb+MbcyBZcCQk0tgKPiKPwn4X+HemeEfjNrk/xL/Zs8Qm3uPB/wASbe6L6p4Ll3D7Mt1cxjzNivsWO7GGQgxzDbkCz4y0+aH/AIRz4T/tT+JpTsuI3+FHx70fEMiXLKDb297OpIiuWxk5PkXKoCfnXdUngu+azt/EXxS/Zh8H3Gp6PJPLB8VvgPqkaRXVneSBhPJZxSgpDNy7GEDyblVwuGIxQ8PzeD/CnwvvPEvwmsX+MP7LXiEy2/iLwRLHJeav4JlIDTNbRSEyfZ4hhpLViJYiyyxkgsaANPXbLxF4s8f6N4D+MGsW/wAMv2jdCjceA/iNpcJXS/GVspDSQvHwkgKhBNZyncpbfFkEiktZPFXjL4nXGqaDa6f8IP2qvD9iP7U0WcsPD/xB02PP75P+fmByGCTAmeAoVfIQEZ2tL4R8JfC+z8N/EzVJviv+yz4mMM3hvxtBcNLqngaQPiAXEyDzWiSRgsdyP3kJVo5QVOKteMLO3stP8O/Cv9qLxRNq3ha4mhn+Ffx30mdUurGZlzaxX12uRHclQCJ8+TcqFL/NuIAJfCd9qup+JPEfxR/Zs8ODwt8SbCQP8V/gjrkgji1YkAGe3P8Aq453QEx3UYMUwdPMAO4Gt4RvNL0Xw3r/AMSv2bfC9z4t+F2oXE9v8SfglqVqq3/h67fP2k2Vo/ywOpzvs/8AVuAxjPChbHiey8Qa5448O/Dr48eIIfh/8dtHJT4cfFrSYxFp3itdyn7LNFkIWbKJLZS5DElojhtpkU+KvGnxOdrddP8Ag/8AtW+HbLZJEwY+HviFpsecyKP+Xm3fDEMf9ItyADnZwAeAftdafqnhv9jfU5vgT4stvHv7PHia6s5tLS8uG/tHwZdJdIfs6NKfMlt2cPH5TgSQswH3Qd35gV+mf7ajeDfGPwX+IXjbwt/aHwq+IsF1p0fxS+GNwyvDfyG4iWDUI14Rvm8tluoBiRHw+GY5/MyqQBRRRTAKKKKACiiigD1X9k7/AJOm+Df/AGUDw9/6cYK/pTr+az9k7/k6b4N/9lA8Pf8Apxgr+lOokAVW1L/kH3X/AFxf/wBBNWaral/yD7r/AK4v/wCgmpA/ln1D/j/uf+uz/wDoRr9RPCv/AATN+NXxk/Z78D+ILX9sbxDcWHiDwrpepWnhvV4bttPsYprOKSO1Ui6dfLjVljGIgNqjCjpX5d6h/wAf9z/12f8A9CNf0mfsnf8AJrPwb/7J/wCHv/TdBWknYD8JLdfiR+wl8ervSfHPwv8AB2t+IdCkQra+ItP/ALQspYid0dxbncuA4wVkGGXphSGFfsv+xb+3J8Pf2vdCvbTS9Jk8N+LNCiSTUtCllEoEJwongkAAki3HaeAynAIwVLfHX/BcLwxokOp/CrxlDaxR6vdw6nptxMF+ea3iaCSJSe4Rppcf9dDXyt/wTN1zWND/AG1vh0uk3M0Y1Ga8sbtI2IE1u9pMWVwPvKCqtg9CinqBS3QH9A9fDn7Xpj/aK/ay+Dv7I9rYyahoeg3H/CwPGy4zALSEMlvDLg5wx3oQf+fmLHXj7a1PUrDRdNu9Y1W7itbKxge5uZ5WCpFEilndieAAAST7V+XH7Pvgn9tz48+N/Hf7Z3wN+IXgTwxb/EXVLnTbVfENrLLP/ZlpL5cCRqLeRVQCNUJBBZoiSPWUB6l/wWK+CNx46+AOk/FXRbON734dX5e7wMP/AGbdbIpMeu2Vbc47LvPavyu/ZR+MrfAH9oTwT8VJpp0sNI1JU1MQ8s9hMDFcgL/EfKkcgH+IL9a/Vnxz+z//AMFQviP4N1vwD4u+PHwcvdF8Q2M2m38H9mzKXhlQqwDCzyrYOQw5BAI5FfjZ4/8ABOu/DXxxr/w+8TQCLVfDmpXGl3irnb5sMhRmXIBKnbkHHIIPerQH9QlrdW19aw31nMk1vcRrLFIhyrowyrA9wQQalr5R/wCCZfxwuPjV+yn4d/te8jn1vwazeGL8g/My26r9mdh1ybdogWP3mVz619XVm9APj7/gmr/yJfxj/wCyv+Iv5W9ed/8ABVb9jFfi14Kl/aB+Hul7vGPhKz/4m9vEDu1PS48kkKODLCCzA9Wj3LyVQV6J/wAE1f8AkS/jH/2V/wARfyt6+wCAwKsAQad7MD+XfwD468UfDHxpo3xA8F6m+n65oN2l7Y3CgHZIp7g8MpGQVPBBIPBr9XtL/aO8L/tRftRfsd/E3w/st7xovFNnrWn5+awv0sF82LrypyHQ90dScHIHzF/wU9/Yz/4Z9+Iw+KXgTTvL8A+Nbp2WKP7ul6iQXkt+mFjf5nj9AHXgIM+ef8E0Wb/ht/4XLk4F3qBx/wBw26q99QP2f/bYFw37JPxbFr/rP+ETv8fTyjn9M1/OHX9RHxB8G6d8RPAfiLwDq7sll4j0q60q4dR8yJPE0ZYe4DZHuK/mU8d+DNc+HXjTXfAfiW3MGq+HtQn028jx0lico2M9iRkexFKIH9F/7IrK37LXwlaMgqfBukYx0/49Y69G8V+LPDXgXw9e+LPGGuWej6NpsYlu768kEcMCFgoZmPAGSB+NfOv/AATT8fwfED9jP4fzLNvutAt5tAul3ZMbWszJGv4w+S3/AAIV9OXFvb3ULW91BHNE/DJIoZW+oPBqWB4r/wANufsi/wDRxngP/wAHEX+NH/Dbv7In/RxngP8A8HEX+NflV/wV++H/AIN8C/tM6ZceD/Dtlo/9v+G4NR1COziEUc1z580Rl2LhQxWNMkAZIyeSSb//AARz8AeDfG37Q/iO98XeG7DWH0LwxJeael7brMkE7XMMZkCuCNwVmAPUbjiny6XA/aTQNe0XxVolj4k8Oanb6jpep26XVnd27h4p4XGVdGHBBBBBr5J/4KWeNNavfh34T/Zq8E6kLfxR8avEFvoEe0EtHpyyI1zKQOQmWiVvVXceuPsKCCG1hS3toUhiiUIkcahVVR0AA4Ar8z/Emh/tIftYftreM/i7+zj4m8JaDZ/BR18G6TqHiOGSaGS5aOUXjQosUqlwzSgsQMI8WOScJAfRf7Zn7L+heNP2JdT+EPg+xZZPAmkW994cXG+QPp8fCcfeaSESp/vSZ7Yr8FPCvibWPBfifSPGHh+4+z6nol9BqFnLjOyaJw6EjuNyjiv25b4Y/wDBWNgVb9ob4OEHgg6VJz/5JV+RP7T/AMB/H37Onxg1b4efERdLbUmWPU47jSlZbG5hnG8NAGVCEVt8eCow0bAcAGqiB/RB8HfiVpXxi+FnhX4oaKgjtPE2lwagsQbd5LuoLxE9yj7lPuprsa/Nv/gi/wDHGPxD8NfE3wH1fUi1/wCFLr+19Jhkbk2Fy371UH92Of5j73I9a/SSpasB+AP/AAVH/wCT7Pib/wBwb/0z2VfaH/BEH/kmfxO/7Dtl/wCk7V8X/wDBUf8A5Ps+Jv8A3Bv/AEz2VfaH/BEH/kmfxO/7Dtl/6TtVP4QP0uoorw/9tL44XP7Pf7N/i/4iaPceVr4tl03QdqK7f2jcsIoXVGBV/LLGUqQQRERUAfNH/Ba2G7k/Zp8IzRyD7PF43t/NTbyWNjeBWz2A+YY77h6V+T37PLrH8ffhrJIwVV8X6OWYnAA+2RV+3v8AwUK+C/iT4vfsZ69oNvINR8S+Gbe18QI20A3U1oubjAUAbmiM+0AAFio4zX4N+C9ePhXxhoXihVYnR9Stb/C9T5Uqvx/3zWkdgP6j6KrabqVjrGm2ur6XdR3VlfQJc208TbklidQyOp7gggg+9WazA/Hb/gtwf+LzfDwd/wDhGJf/AErevJP+CTMNxL+2p4ZaE4WLS9VeXjqn2Vx+HzFa6T/gsX470/xV+1fb+GdPkDnwf4ZstNu/a5leW6Iz/wBc7iH8c16b/wAEUfg3PqHjTxr8eL5HW00ezXw3p2V+WS4nKTTsD6xxxxDHpPV/ZA+w/wDgqX/yY/8AED/rppX/AKcravwn+Hra0nj7w0/huO3k1ddYszYLcZ8prnzk8oPgg7d+3PPTNfux/wAFS/8Akx/4gf8AXTSv/TlbV+G3wd/5K74H/wCxk0z/ANKo6I7AfdP7UX7fP/BQ/wCCviu7+FfxGh8J+DtVns0uobrRNL8xZreQFRLbzTPICNyuuQMhlYcEV8/fsU/s7+Fv2wvjZd+FPiX8Wb3Rr6VW1aRDCbi91wBy1ysc8jbUlwdxZg5ILNtO01+qv/BSj9kxP2k/gtLr3hfT0k8deCI5dQ0hlyHvLfG64s+PvFwoZM/xqBkBmr8M/APjrxR8L/G+jePvB+oy6frfh+9jvbSZSRtkRs7WHdSMqyngqSDwaa1QH9Lnwr+Fvgf4L+A9K+G/w60WPS9C0eLy7eFWLMxJJaR3PLuzElmPJJrrK8v/AGa/j14Z/aT+Dug/FfwzsiGoxeXqFl5gd7C9TAmt3I7qeQSBlWRsDdXqFZgfyya5/wAhvUP+vqX/ANDNfe/hn9lv9sv4ofsM6D4k+H/xwm1TwT9guryPwFCz2kjQx3EokjVkG25JKs4jkOCTgZOAfgjXP+Q3qH/X1L/6Ga/oA/4Jr/8AJk/wz/687v8A9LZ60k7AeOf8EVlZf2WvFSspBHxAvgQe3/Eu06vv6vBP2S/g7d/BT/hcHh/+xH03SNZ+J2pa/oiYASSxubKxYGMA8IsqzRgH/nma6P4hfGyTwn8c/hf8FNJtbO5vfHJ1S8vmm3F7Wws7Vn3oARhnlKKCcjCvxnBEPUD1iiiikB+Qngv/AJTU6n/2Hb//ANNTV+vdfkJ4L/5TU6n/ANh2/wD/AE1NX690AFFFFABRRRQAUUUUAFFFFABRRRQAUUUUAFFFFABRRRQAUUUUAFFFFABRRRQAUUUUAc18Svh34V+LXgPXPhv42sPtmieIbN7K8iBw21ujISDtdWAZWxwyg9q/FD48f8Esv2nPhB4qluvhfod1498PLIZtP1LR3Vb2EBiVWW3yHEgwPmjDKeCCD8o/dSigD+fh/DP/AAU21C1Hhe40n9peWxfFv9kmXXfsuM4AIb92F9z8tegfs8/8Epf2jPir4ot9Q+L2jzeAfC4kSa+uNQlRtRukLZdIYFLMshH8Uu0DOcMRtr9x6KAMbwZ4P8PfD/wno/gfwnp6WOjaFZRafY26kny4Y1CqMnknA5J5JyTya2aKKACiiigAooooAKKKKACiiigAooooAKKKKACiiigAooooAKKKKACiiigAooooAKKKKACiiigAooooAKKKKACiiigAooooAKKKKACiiigAooooAKKKKACiiigAooooAKKKKACiiigAooooAKKKKACiiigAooooAKKKKAPm/wD4KIQxXH7Ivi+CfVpNKjk1Lw4j30coja0U67YAzBzwpT72T0xmvJPGOn6zfeJfD/wn/af16Xwv8SdKlx8Lfjjo8cdpbaxc9Y7W4UHbFM5IWSykPl3AWTYQWQt9YfHD4OeFfj98L9Z+Evja41CDRtca1a5ksJI0nHkXMVwm0yI6YLwoCGUgqSO+a8Yi/YD8Gr8MR8GLr44/FjUPBKReTDo+oXulXcVumSVETS2DPHsJyhVgYyAUK4GGmB5xc2vizxp8TbDRvE15p/wl/ap8PWrx6H4ht4WfQPH2nRgmVShA+0QlFJeFv31uSHThcBmjX3iTxd8QNZ8bfCbR4fhZ+0doUAfxx8NdWuFGk+NLNOftEZQ7ZtxO2K+T5kLFJflYNXpviT9gvwx4y8I6T4I8XfH/AOMWsaZoMsM+lNeappr3djJEQY5Ibr7B56Ou0fMH3YGCSOKteLP2HdF8cal4f17xP+0J8YLzWvCswn0fVxf6VFfWbdCFnj09XKt/EhJVsDcDimB5P4OvrmOfxR8Vv2XvCc5mW4aL4tfAfVlSKUXL7llltFf5IZyvmPhAYbpR034FUvDNx4Y8NfD3UfGnwP0ab4o/s46681r4y+Gd1C1xqvg+5YBrn7JBJlljjyGksjypbzIiVbI9o1D9iLRtR+IWn/Fib9oL4uReMNNtXsYtYt7zSYbiS3YYaGXZp4WZO4WQMFPK4PNGn/sR6No/xA1D4oaH+0D8XNM8SaxAtvql3Z3ukwrqCKcqbiJdPEczjOBIylwON2Bii4Hi17/wh/gv4UwaT4tupvjH+yb4pVJNL8QRO1xqfgT58L50i/v5LeORiFnGJrfYyOCAoMvjKw0/RfD+h/Dn9pTxXc+KPhnfSQXfwz+OWl3S/b9BlYD7Il7eRg7JSAm28H7qcEeYOTt9h8J/sN+HvAt/4hvvB/x5+K+kr4smNzrVpb3WkCzvJipVpGtzp5iVmBO4oq7/AOLdVfwz+wZ4T8I+ENV+Hug/HL4rReE9ZeZ7rQZbrSZ9P/e8yLHBJp7JFGxJPloFQHooouB8mftoeHfiF8TvC9p+zn8Tvhj/AMJj8dbZY7rwN4y8OwxpF4j0dZA1y86qw+zFEB3xyfuzIA8ZG4V+Vt5Z3enXk+n6hay211bSNDNDKhV43U4ZWU8ggggg+lf0gfs8/sr/AAz/AGbbG8h8G3mv6zf3sUVq+q+Ib8Xt5HZxA+TaRuFVYoEySsaKBk854x5x8f8A/gmz+zZ+0V48m+JHiq28QaJrl5Gq30ugXkNsl644EsqSQyAyYwCwwTgZyeaalYD8AKK/bT/hzD+yf/0M3xK/8G9n/wDIlH/DmH9k/wD6Gb4lf+Dez/8AkSnzID8S6K/bT/hzD+yf/wBDN8Sv/BvZ/wDyJR/w5h/ZP/6Gb4lf+Dez/wDkSjmQH4l0V+2n/DmH9k//AKGb4lf+Dez/APkSj/hzD+yf/wBDN8Sv/BvZ/wDyJRzID8oP2Tv+Tpvg3/2UDw9/6cYK/pTr4p+H/wDwSV/Zl+G/jzw38RNB8RfECTU/C2r2etWSXWqWrwtPbTJNGJFW1UlCyDIBBIzyOtfa1TJ3AK5j4leOvCPw38Da3408ca9aaRo2lWck11dXD7VRcYAHdmZiFCjJJIABJrp68s+JH7Ln7Pvxe18+KPiZ8K9F8RaqYkh+1XqOzbEyFXhgOMnt3qQP5rrmUT3EsyqQJHZsemTmv3U/Zf8A26v2VdB/Zc+HNn4p+MehaJqPhvwrpuj6jpt5KReRz2ltHA+IVBdwxj3KVByGHvXqX/DA37G//RvXhP8A8B3/APiqP+GBv2N/+jevCf8A4Dv/APFVTaYH47/t+ftbH9rz4w2uoeFrO9g8I+HIG07QLWePE05d8y3LIM4aUqgC54VEHXNfZn/BK/8AYR8Z/DvxC37Rnxn8OyaNqKWslr4Z0e8Rku4PNXbJeSof9WTGzRojfNh3JA+Un788E/AH4G/DWZLr4f8Awf8ABvh65jO5bnTtEtoJ8+vmqgc/ia76jm6AfBH/AAVa/ax8N/Df4N6l8CfC+tWt14y8bRCyv7aCcGTTdMb5pXlVeVMq/u1VsZV3boBn6W/ZEv8A4d3X7Nfw4tfhjq2l32i2Xh2xtd1jKjhbhYU89ZAv3ZvNLmQMA28tkZrM1b9hv9kjXNUu9a1j4DeF7u+v53ubm4khcvLK7FmYnd1JJP41ufDv9lH9nT4TeJofGPw3+EeheH9at0eOO8s42WRVdSrDliOVJH40tAPV845PAr8PP+CwnhXw3oX7WCa5oeoWkl54j8O2V9qtvC2XhuULwKz44G6KGIjvwSeCCf211/QdI8UaHf8AhvX7FL3TNUtpLO8t5M7ZoZFKuhwQcEEjivEpf2C/2PJ5Gmm/Z/8AC0jtyzNC5J+pLUJ2A/Kj/glZ+0zonwF+Ot14T8bapFp/hf4gW8enz3lxOI4LO9iLNbTSs3AQ7pIieMGVSThTX7b+LvHHg/wF4avfGPjPxJp2jaJp8JuLm+vLhY4o0HfcTyT0AHJJAGSa8d/4YG/Y3/6N68J/+A7/APxVa2tfsZ/sueIrHSdN1z4K+Hr210K0+wadDNG5W2t/MeTy0G7gb5ZG/wCBGhu4Hyz/AMEp/wBoT4d+LF+Knw/GrwWOv6v441Lxbp1ncyBJLyxugnMQPLNGYjvA5AdT61+hteCR/sF/sdwyLND+z94VjdDlWWFwQfYhuK9w0jSdO0HSrPQ9HtUtbHT7eO1toUztiiRQqKM84AAH4UMDnPi38K/B/wAbPh1rnwv8eWButF162NvOFwJIm6pLGSCFkRgrK2DgqK/Gz9ln4D+Mv2b/APgpx4I+FfjSAmfT7/UZLK8VcR39m2n3fk3Mf+y4HI6qwZTyDX7hVw/iz4M/D3xp8QvB/wAVNd0QP4n8CyXL6PfxtsdFnhaKSN8f6xCrkhTwG5GMnInYDuK/Pj/gpR/wT2vvjoZPjl8GLGN/HNnbrHq2krtT+2oUAVHjPA+0IvHzH50VRkFQG/QeihOwH4i/8E5f2yl/ZH8ca58Hfjdb6jpPhPWr3/STcWziXQtTT92zyxEbwjBVSQYLKUQ44bP7K+EfiZ8O/H2gL4p8E+OdC13SGXf9tsNQimiUd9zKxCkYOQcEYOelcd8Zv2V/2fv2gIdvxY+F+j6zdLgJqCo1tfIB0AuYSsu3/ZLbT3FeEyf8EkP2L5LgzL4U8RRqTnyl1+faPbkk/rTbTA+Cv+CvXxA8C/ED9ovQrnwL4w0fxDBpnhmKxvJtLvY7qOC4W6uGaJnjJUOAy5GcjPNeif8ABE/wj4pi+KnjjxtL4d1FPD8vhw6fHqjWzi1e6+1QP5KykbWcKpYqDkDrX3f8Of8Agnj+x38MdQTVtC+CulahfR/dn1yWXUwp7ER3LPErDswQHpzwK+h7GxstNtIrDTbOC1toF2RQwRhI419FUDAH0octLAfP/wC21+1Z4V/Zf+Des6w2vWi+NNTtJLbw1pYkRria5f5BP5Z58qLdvZiNvyheSwB8x/4JK6p4Cm/ZL0y30HXrW78TT6tqV54ngM4a6jvHuXWNpFJ3Ya3S3IbocnvkD3fx9+yP+zX8UvFV744+IXwd8P67r2oCMXV/dxM0sojjWNMkMBwiKo+lUPDv7FP7KfhHXLHxN4Z+B3hvTtU0y4S6tLqCJ1eGVGDKwO7qCAfwpdAPba/LD/gtz4L8IGx+HHxGj1S2i8TGa50WSz8webdWW3zVl29dsUmVz/08D0FfqfXhmq/sOfsla5qE+q6x8CfDV5eXMjSzTTRyMzsxJJJLdyTQnYD8PP2K/wBoCX9mv9ojwz8RriQ/2K8p0zXE5IbT58LI2ByTGdsoA6mMDvX9E2h+IdC8TaLZ+IvDusWepaXqMKXNpeWsyyQzxOMq6OpwwIOcivEf+GBv2N/+jevCf/gO/wD8VXRR/slfs3w+Cf8AhW8Pwj0OPwwdQOq/2WiyCA3ZjMZlwG67CR6U27gfiJ/wUa8X+HfHX7aPxL8ReFdWttS017qwtI7q3kDxvJbafbW8u1hwQJInGRxxX0v/AMEi/wBpr4K/BvRfH3gn4q+OdP8AC11q15aajYXGpP5VvOiRukieYflV1O04YjIbjODj9Av+GBv2N/8Ao3rwn/4Dv/8AFUf8MDfsb/8ARvXhP/wHf/4qi6tYCxqH7dX7H+mWcl7cftEeC3jjGStvqKzyH6JHuY/gK/ML9sr9tS2/bH+OPgP4X/D1buH4eaT4ktIoGuFMbavdyTrF9qaMjKIEYrGrfNh2LAFtq/pr/wAMDfsb/wDRvXhP/wAB3/8AiquaL+w/+yX4d1ix8QaH8B/C9nqOmXMd5aXEcDB4Zo2DI6/N1DAEfShNID3B0SRGjkUMjAqysMgg9QRX4i/8FE/+Cffib4H+LdV+Lvwp8Py3/wANdWme8ngsoM/8I7IxBaKRRyLcsWKOBtQfI2MKX/bymTRRXETwTxpJHIpV0dcqynggg9QaSdgPz6/4Jk/tyfDzxd8JdB+BHxJ8UafoPjDwpCmlaWdQulhj1eyXIgETPhfNjQLGY87iEVhnJC/V/wC0B+0/8Hv2b/B954m+Ini/ToLtLaSXT9HS4Vr7UpQp2xwxDLkMwClyNi5BYgVwnxM/4J0/sf8AxU1aXX9d+ENnpuoz8yz6HczacJD/AHmihZYix7tsye5rlNC/4JR/sV6LeR3lx8PdU1Xy2DiK+126aMkYxlY3TI46Hg96NAPyb8D/AAt+Ov8AwUC/aD1zX9D0VnvPEWqnUNc1YxsNP0aGVjje56BUXbHHkuwTAzgkfvL8Cvgx4R/Z++Feg/CfwTCw07RLfY08iqJbudiWlnkwMF3ckn0yAOAK6Pwj4J8HfD/RYfDfgXwrpPh/SrcYjs9Ms47aFffZGAM+/U1t0N3A+Nf+CsXjPwvof7HPiXw3qmt2kGqeIrzTrbTLNpR51y8d5DNJtTOSFjjYk9BxnqK/EP4b6vY+H/iJ4W17U5PLs9N1qxvLh8Z2xRzo7HA64ANf0Ma/+xL+yl4p1i88QeIvgb4b1DUtQuJLq6uZ43Z5ZXYs7E7upYk/jWf/AMMDfsb/APRvXhP/AMB3/wDiqadgPbfD/iHQ/FWi2PiLw3q1pqel6lbpdWd3ayiSKeF1DI6sOCCCDmvxS/4Krfslt8FPiwfjB4P00x+DfH108sqww7YtO1UgvLDkcAS4eVBx0kAGEr9d/hf+zn8EPgvqNzq3wr+G+k+Gru8t/ss8lirL5kW4PtILEY3KD+FdF8Qvhv4E+LHhifwZ8R/C1h4g0S5kjlksr2PfGzo25G9QQe4pJ2A/Eb/gmf8AtgQ/s2fFiTwj431RbfwB41eODUJZfuadeDiG7z/CnOyQ/wB0hj9wV+4mteM/Cnh3wrdeNtZ8Q6fa6DZ2Z1CbUJLhBAtuF3eZvztKkcg55yK8b/4YG/Y3/wCjevCf/gO//wAVWhe/sT/sp6jp1jo998EPDs1jpkJt7S3ZJPLhjMjylVXfj78sjfVjQ2mB/Ofqs0dzql5cQtmOW4kdT6gsSK/Z3/gnf+2J+zd4V/ZT8I+BfG/xa8P+Gdd8OfarO8stWultnO64kkR034DqVkXlScHIPIr6D/4YG/Y3/wCjevCf/gO//wAVR/wwN+xv/wBG9eE//Ad//iqbaYHJfFn/AIKafsj/AAx8P3Wpab8SLXxlqkaf6LpXh4G5kuHPQGXAijXuSz8DOAxwD8l/8E9fi540/ay/b68X/HTxwqRf2X4Ruo9Oso2ZotOge5gigt48+iPMzNxuYu2Bu4+4f+GBv2N/+jevCf8A4Dv/APFV3Hws/Z1+CPwRvL/UfhP8NdG8MXOqRJDeS2MRVpkQkqrEk8AkmldAejUUUUgPyE8F/wDKanU/+w7f/wDpqav17rwrT/2L/gbpn7QU37TlrpurDxzPcy3bztqLm38ySEwt+5+7jYTx6817rQAUUUUAFFFFABRRRQAUUUUAFFFFABRRRQAUUUUAFFFFABRRRQAUUUUAFFFFABRRRQAUUUUAFFFFABRRRQAUUUUAFFFFABRRRQAUUUUAFFFFABRRRQAUUUUAFFFFABRRRQAUUUUAFFFFABRRRQAUUUUAFFFFABRRRQAUUUUAFFFFABRRRQAUUUUAFFFFABRRRQAUUUUAFFFFABRRRQAUUUUAFFFFABRRRQAUUUUAFFFFABRRRQAUUUUAFFFFABRRRQAUUUUAFFFFABRRRQAUUUUAFFFFABRRRQAUUUUAFFFFABRRRQAUUUUAFFFFABRRRQAUUUUAFFFFABRRRQAUUUUAFFFFABRRRQAUUUUAFFFFABRRRQAUUUUAFFFFABRRRQAUUUUAFFFFABRRRQAUUUUAFFFFABRRRQAUUUUAFFFFABRRRQAUUUUAFFFFABRRRQAUUUUAFFFFABRRRQAUUUUAFFFFABRRRQAUUUUAFFFFABRRRQAUUUUAFFFFABRRRQAUUUUAFFFFABRRRQAUUUUAFFFFABRRRQAUUUUAFFFFABRRRQAUUUUAFFFFABRRRQAUUUUAFFFFABRRRQAUUUUAFFFFABRRRQAUUUUAFFFFABRRRQAUUUUAFFFFABRRRQAUUUUAFFFFABRRRQAUUUUAFFFFABRRRQAUUUUAFFFFABRRRQAUUUUAFFFFABRRRQAUUUUAFFFFABRRRQAUUUUAFFFFABRRRQAUUUUAFFFFABRRRQAUUUUAFFFFABRRRQAUUUUAFFFFABRRRQAUUUUAFFFFABRRRQAUUUUAFFFFABRRRQAUUUUAFFFFABRRRQAUUUUAFFFFABRRRQAUUUUAFFFFABRRRQAUUUUAFFFFABRRRQAUUUUAFFFFABRRRQAUUUUAFFFFABRRRQAUUUUAFFFFABRRRQAUUUUAFFFFABRRRQAUUUUAFFFFABRRRQAUUUUAFFFFABRRRQAUUUUAFFFFABRRRQAUUUUAFFFFABRRRQAUUUUAFFFFABRRRQAUUUUAFFFFABRRRQAUUUUAFFFFABRRRQAUUUUAFFFFABRRRQAUUUUAFFFFABRRRQAUUUUAf//Z;" vertex="1" parent="1">
          <mxGeometry x="630" y="51.60999999999999" width="180" height="38.39" as="geometry" />
        </mxCell>
        <mxCell id="J4qLSyVt3dmGyAHXw3Ad-6" value="Patient Support &amp;amp; Community Management System" style="text;strokeColor=none;align=center;fillColor=none;html=1;verticalAlign=middle;whiteSpace=wrap;rounded=0;fontStyle=1;fontFamily=Garamond;fontColor=light-dark(#ef0101, #ededed);fontSize=30;" vertex="1" parent="1">
          <mxGeometry x="210" y="130" width="440" height="50" as="geometry" />
        </mxCell>
        <mxCell id="J4qLSyVt3dmGyAHXw3Ad-8" value="Patient Registration Form" style="text;strokeColor=none;align=center;fillColor=none;html=1;verticalAlign=middle;whiteSpace=wrap;rounded=0;fontStyle=1;fontSize=15;" vertex="1" parent="1">
          <mxGeometry x="75.93" y="230" width="204.07" height="30" as="geometry" />
        </mxCell>
        <mxCell id="J4qLSyVt3dmGyAHXw3Ad-9" value="First Name" style="text;strokeColor=none;align=center;fillColor=none;html=1;verticalAlign=middle;whiteSpace=wrap;rounded=0;" vertex="1" parent="1">
          <mxGeometry x="75.93" y="260" width="90" height="30" as="geometry" />
        </mxCell>
        <mxCell id="J4qLSyVt3dmGyAHXw3Ad-10" value="" style="rounded=0;whiteSpace=wrap;html=1;" vertex="1" parent="1">
          <mxGeometry x="84" y="290" width="180" height="20" as="geometry" />
        </mxCell>
        <mxCell id="J4qLSyVt3dmGyAHXw3Ad-11" value="Middle Name" style="text;strokeColor=none;align=center;fillColor=none;html=1;verticalAlign=middle;whiteSpace=wrap;rounded=0;" vertex="1" parent="1">
          <mxGeometry x="84" y="310" width="80" height="30" as="geometry" />
        </mxCell>
        <mxCell id="J4qLSyVt3dmGyAHXw3Ad-12" value="" style="rounded=0;whiteSpace=wrap;html=1;" vertex="1" parent="1">
          <mxGeometry x="80.93" y="340" width="180" height="20" as="geometry" />
        </mxCell>
        <mxCell id="J4qLSyVt3dmGyAHXw3Ad-13" value="Last Name" style="text;strokeColor=none;align=center;fillColor=none;html=1;verticalAlign=middle;whiteSpace=wrap;rounded=0;" vertex="1" parent="1">
          <mxGeometry x="80.93" y="360" width="80" height="30" as="geometry" />
        </mxCell>
        <mxCell id="J4qLSyVt3dmGyAHXw3Ad-14" value="" style="rounded=0;whiteSpace=wrap;html=1;" vertex="1" parent="1">
          <mxGeometry x="80.93" y="390" width="180" height="20" as="geometry" />
        </mxCell>
        <mxCell id="J4qLSyVt3dmGyAHXw3Ad-15" value="Age" style="text;strokeColor=none;align=center;fillColor=none;html=1;verticalAlign=middle;whiteSpace=wrap;rounded=0;" vertex="1" parent="1">
          <mxGeometry x="72.97" y="410" width="60" height="30" as="geometry" />
        </mxCell>
        <mxCell id="J4qLSyVt3dmGyAHXw3Ad-16" value="" style="shape=image;verticalLabelPosition=bottom;labelBackgroundColor=default;verticalAlign=top;aspect=fixed;imageAspect=0;image=data:image/png,iVBORw0KGgoAAAANSUhEUgAAAOEAAADhCAMAAAAJbSJIAAABWVBMVEX////PFib9///PFij8/////f////3QFSbNFyTMFyb8//3//v38/v///P/QFSX///u+AAC9AADNFirBAAr/9/nKABnTFCWzAAD7//rco6rAABfOFyHKGCfKABr/8vbEABP/9vPis7r63uDKABDGAA7KAADRfIO5ABfISFPciJHmxMj55uW4AA25FSzvzdGzABX13NrWeIOrAADal569KTXy0tDLe4Xlrba0AA/67eviuLrboKvcrre/aHDANEW1CyDGY3DDWWPKUFbWABXTb3PZkpjAR1fEVWnCWmO5HzHepJ+zGjDtws7LfHzWj5u8LDDMaoHBNErAPUK6Jj7IhoeoGy7o0tfAcnvDWlrATk3ms7GuBRzFTV2/K0XPhH7LNEDZWGDjg4u9OFG3eX7Yhpn03dSdAACsPEXWoZfTd3bfma3dtsPnvrXPKjX1vsXtqqzfcXbdTVi4U2CcPudhAAAdpUlEQVR4nO19+3/aSLZnUSo9UOnBUwaEkHgYMAKMA9iGxGAnxtdO4mRiZ9Jpx7cz03t3sj23H7P7//+w50jCwencTvpuD/bsR988bIMk9NWpOud7qk6VCYkRI0aMGDFixIgRI0aMGDFixIgRI0aMGDFixIgRI0aMGDFixIgRI0aMGDFixIgRI0aMz4Muv1JO8Xtu8q89FU6gqz9+9YnrBVUliQM/BJe4CD+L4tedCYfCY4HvOOEioYzRL56zfsA9UUkKGFEW/vsd5wZ/aEDNNKV/0i3+P4JLprnauij8SOhX2ILCkYXVF1TKydfZfr2gKiU5fzwtAvam/UrY2L7coTSqqoR4tU61+PDhw0ed2gRfvH8MwVa14sGslc3W641GtuHO283phGhfPpMR7hcPR90GnAfnprO9o61+5aPfultQaIjgIjgjk+LjfdexjURCRiQMy8pneztjk6lUhNb6iU0oFaEBU01U6eTqurT5BE5UFCOAZTnd3nHfVFUuSUS9G2ZLcBOcAzxtv7ntWoacuAVFseRue0qwY4n6bc8jYi8VNcLMYa8kC0klibg5VVCc7uzKpDpXmXjHoUNkGvUWrbxlJD6FZRm27aQPa0TTmCbebnXgXCSmkeksawhCOZNZYYjfyLJtZU/6hBTAknfKUOQa6V80LPs2weB+scUpip3vTcFxaOR2aDRNqhGvmbWEAOXbNsRLQJvt7lS+yln9M6FJ5qKbN2QrofyKIb6CHdJxd3Mqv20KiUHwq504tp0pl+Go5ApD7MbwvwWnurM+Ee+qJ+L9gq/InabADBlBsORPGQJHxYAulZQ3/w0p3sRx8DHwvTp+5giZDBwjJwThtg1l2bATZUG2861i5I/Xb0kJVKdG/RPDkIVVVp8gdK31o5ymRfeI2kWCCN/ftoVbuDnlIwzF6ha5xnTwaWtnSLiqE39kKXCfv8UwtIlzktP0lccjkn7LKn+RYcIAhzPE+H8H0VHUIJSd5G1D+W2Gwc0bRv502cwYZSqntTPbEr7IUMiAQ04VQcOpv0fm/jHglPFTByJZQk78BsNkcPOKouR3zbBDMaKKBX9mW3LyKxgKhmKUpgQC4x0wJLsNy4COFlH8LYZJQ0mWni5P1WnlxFGsTObL/dBAh2zPB0Bx7Qwp7buGBXceEEyCUwDXqSRXyKLlgAX8VWwbDt0fM0wZwBp0t560lKSA9DMZDPeZFXIYRxNyFE0NWRZs58j8CoH7x9KD+M1nGAZDj4f3BkZQbGWlxQqGnSwjQaSKh808kKcY3jolEDJG0rLgkSTlTAba64r1sOELGGkMJbycIGSvvkbD/5FAYxQbhhAqGdlIBA5Fvgn74f1mBMtWnHpeUYSyDFTzu6BHdZ14c4iAslHOKJaTNxTokcJtXQo2B5EU2BIB1znz1ksQvcWkZ8uZsAeCmbBRJcpJYdXrWGXFyrceHx/NXYgpYCol3Zco1cl5HZoeaFah9P74vL0NGYkcnhK5FwVahQJSx4heySTtxtV64wUG7aELHS8kJKP9jHw+b622UnQT86EHR1cePnMsOSPYVtuTmNpP2wa2aPf753gxv1lSEqutFKRsPe9YhrA0KTws58xbb0SkagXcvaCEN2HbSaP1trk4v8iu+lXF/uBTouuQVfgf8kJZke3GC0K9V9gEE8lS0+NcUiHQTeeW9dGGhtU6Ol8cvHRlIWoS8ECs7MN18gPHTa+y0LSMRHBXil06rKFi4dVLR5EVIfSMymVFDcZbMP9/FrS9fNknw4ZVNmTDuSbhu5CdVEt2pGCg8bp/quEpXnWejzJO/CSnbYLIENcUM7C9HDiRsfAOnB3IZjnVNal2kUwoYWhLNIrEjDImERo1iLSk4ux6M8gkIAZ0x1oUxEUmHuYj8yWN0gJ0KCSFKhmcrSSdRnfAGCNrGoXjJsudWSsMT0SVaqaJo6ODObTZINszet7NiLBW8FsK+MSy0vulBUYGudk2tfB2QcXRaTfkIStOE7IsDEa6yqalj7FfdovAkK5J2QDDcde4YSiXOrrICMVRFUJ2HDt0G/Zb+DkaTZRE89I2IPQrkM4bBkgcjBwhf3BbbLJthATt1kDTCEMRahJzZn2kaJ1CKOXrGkmV6NC5cZoJ+2yiiRIEc8mEtHaaNcJu6DSxw4YP3dTJKxAxmAhaQfhM5odL9w82Y7ly+MCUPJgWB35EhkPgr/MrDEcV+ID19cNTY8lQSTjYSFWIdJIEz37chXwRiTunqEN48BfeuLRApABHlHlWQgD+LBC3lELm5++HNrTrTaKqwVOBtqpdNVYYlnwqrUucMpFfRAMPCmYN16IkqqYaNDip1go1WsLqVbSAHbyjMb9lC4kVQD/UISkGozCg+TwdxQVn92aYXDLJtP7xBCP1I1njIOqkZyg3DO3RRMcxahGH02jHtcPAJrt7xMTMXAKGZAEvrxBMWt0O1TR0pxL04YN8YEO41szTIxbAfLHCUAbXTL9mkuCPgd+yPtpQKf1INVGDD9eByq5jRSmxNZsQFNrwFqu1DGvFbeCAMehwDu2OwznTKB4q5SQEheATIP2EvmuvnFHfWlsaDC2vVrI+2lCBFlegqP1FxgZzyw4Hbgw7f+ITSOfBtDWQbcLqUJUlZJyjCS1QEmiaSKGBsjMOwXhwKanAIAVZGcBT8js4vL4WhuBVBqWVVgo9sWlKGhXB4dRmlmGHchUEijAf+sDbH84djBUrDOE9w3q2l9OJXmtuGMuBOssy3AW6ILBhoXapJFcZHhK+JlcDYXdQWnoa5GgYpaMauhmzegk5nwX3Cf+cvOM82UzPR6305pP8EweT4CCLlMGhwvug1FP7ZxfzjTrobDzYtiBpsi33sBbwqEJrsJJJOSJvOEdElNYTD4Gh3zKWDJMG8nHmx8Xq4sK17Lzruq3e6OLx24NmcytE8/ioPeu1Uo08JvtW3s22erPHpz9sLd/f2Xn7eNabt7L1fP6JNT96ejVsl4SkYSSXo0AJ2TkG3bQehlyl4EujLBcYQr4KWeyTTUBpdLIzvBr7lYp++xzJzFVq/eLOrNWdXzeLfb+Su93gOBcrlVqnuDg4mbvZ1GYjb0ESCR4psRyQzC9w8nwtDEH+5kaRl4PcF6KfIOfr7vtjvPHgAIpj9ujbNY0GHj74AT19zq9NJNSin14zmPwP1Jo+GUwX16MSNFsDZdAyqXKLhK8rWMAtnkRTMcFYqJt+39yrmSE1shy9peZHRIPyAWFVBZ8kBYxWjlAD+6hM1IO4Q7xx8fisC4nzcrTSyHbWxpCCBD2G3M2Av7btbjx+OgBWnGmaSFXIMD5zGzxkDmET5DnXQcLy8EpRDA+qN3gwPSWZBZWLHGV5bvzdy3Q+YUQMB+Rzl/6nMIS2VHRxoMy2sqPiZPky3ijDu1QlSYV2WUBjhB1HR/FJGI3AKNwrJ2FfFQmkg5RxXiiYqqh/0tdqL+b10MeC8lbXpLyxi/VdGZyie7HnqUwXl68zKoJuVpGY5w+mOV2LGixpHv+wVaz2az7HrtivFhc7R9PoenDX/vSNnyOo0G+n8VSlkr/bctABH4matDbpbbLKmWXVz4oeSC7oOMGLOmaI8DUHHnHn5GxeelCj0awoNWcY8SCMzGczeMeFWJivv46mk+DLXroxH11vVfsTfktdU42D96k1W3mrDukWX5svVUXSfJLdmgTti6vhLUHrNM3+4nBWauBIGSSzvkqjCgXek61wHBtHoXBsTrAgB44YclKsY7h369mz9k4xF14vICOKHEX9+HE9VaPS2lILpNT/8xg9BhYJqcuKJrUg7W6C+wPlnYRItl+jZjTqkJsbsizjJAZqNxBC8ACcw/A9DBHDJ8Acx8YFJ/8uZKhhSNGIWjAJ15i5eIV9eV0TUCb0Dw/7vYoprgp3kuu/gd7JC9LDejCXgnLE2ICnrobNatIFsQpmNBI4yo9VGiDcrqPLwZkLB4MCBNaMYc8ChpQ/gvjDNHiGoslFnUxE/Nw1MYxuDIOYjmp0uvMsvcCqNpVUwfHJ4ZyhkBrTZYlJbSNKOG5yIdl22uENQ2gk5+GgiAIH2SfByzQ3T7WHNRwGEblZ+MoKwD8UzCxgqQkZNOdZx6of42sqf14PymqQYKIxvfEayPBWbrHCkKsqOY6GfUCXO8GVwFtnwX92208nKAMoU9c/y824BN1jerQPXkVWjFeQ5kMoq7myJRshw/oVWY5v1tLAcHV2MGQYABJI/XE0+lqWIRMLX666hgKZmDtv1jiovzswoqgXzOmrtCFA9xJsq+QzHXqlPwe+S4ZbZDl2BAwTn2EYtlJNr/Si/D+TUEB+BmgaOAFsW0KydVBDO66dYYH6Jw3oc3ALQsa2Gk+pjoNnFxAVIoaQslI1vLFaFhiW/wuGTKy5oZAXMkkrWw274Qh6LmTGigGJZOkbUVtXrP8IEefXjKAirZyEtPdtOK1wmLfCeAc+Y+SxKFrU0gm5vGpDuHvnxpeSqauEMzOCbJfQA4tiLWvgczAUIwGB5QXR76LahAwbApYzlSG8wbOvaTr0uocNO3Klgt0d0EiX+t3E7XleCAv5o+hCKtlyohnScsIaeeB7NNp0sBYnoRhYjtGbEHG9gQIhcclrY/6GQ4PQLiFB5SYjg5KdCMsTEka+SCOVWdmHECnctmH+m4igpredaOq/HLpSqlV6wRgNXCmTsEtXknoHhd+mRNi4BU0yYYFCAb0y8lST0dzMAZ8SMnSOl4MOOo6mrTI0gOHriCGtzZcDjYriFIOEuZgNHp1iQYzJn5qc/q6y8T8GEla/LrIG9iCckhYamINDFpFPhFUkoNywxYVHj4ykcYth0qgvq09o0Y0m7KHLzX0dcq3chRNMfBtga2Few0qMO2ilGvQX71unDNFQUcrQ7Z5VIPyxfiopyCFDxZ0uS3wf/4qhlYqyJ5GcgssMK4uV/BHHSs29TdCx4bSPnb0i4JHZHXiaYF7Fn4M/jTpRfgH+gFZeWkAGGSqJ+s7Sht/kb2qnwtguW+k+xZUHlMI1orISMGyRFDj0Qju8ZCZjuAd3UtR2w9Gcpu1o2C1jtWogPsh5fulMDbvnRwcO87fqT4GL0a0xRlG8F51l4Yxhd8c4mLPrRCVERtmaeXe7ukQjw2w0I4rTbGjE8YaxZGjUF9Fx07oi3JqZMRLvcpJZ4LouXYLfCSM+qAATntE4bUdl0UlnXlPXXQ51G6DUjp2IoaBsFrFVtpdFh5Zsj3hwf3SQvZ1bQBP+QDiH/JFelSDmhEN3Vn2PitR75thRlZvQnd752hLKvGsnfN5JJb/dh1eq2dCIIJwV9yocS/P2P8meFKWJCZiqepe2nRHCVmq1KkzlzTwo8KAjGt0h4aJ6l4XeOPYk+jNbKUMMTEJi+2pCNK9nlINUSTYMa1ZBLaeRtmPdMqGdR3tzBj0URRCoIogYzoLopNoNBtKNpGJntzi0+7utZEeGpNazjEixOKdcN4suFpzYQT26s0s0rJtp1m8vx7CzHWaCAp3Mo+FQ6Mf2tq+SwVwOK6pku767tkHu34SmSbVnTuRRE84BV3EgTo4GcuXWmHJVZMD6VuGoNfeAoWpCL45ETlnJ71BaewZPK2ihRv1A//KnrwWUsMGZE1X32I0tiSzyQZYYOE17lsPKrnHpFkPFakMOLdIfs0uhagjWvEYnMyeqjbPrh7lP1xLdCTscleci8S+dkJFlubvEewYBzoqK29wmB4Ze71aFup3fBblD/TNo3sELEFqgQfuvsFcGNs0eQ/O+B400XC9qqgUflCQAc53SLqm6CTlKiAzbfYhDjTv51WU10A2BoXdtRRPGiYwBvXDy77atZAQZLJp9Te7Wid4GPurKUQlvTclkLLfpPRYUO5pDhS7XJ1ph6q6GC+sMfKz5nVLGFDdgaGPJmyMLcAUhYXWH924JIqe8CV3NAoZlI3l6NY+WoyXLZcPq9XFSdbWV5o8JI00XHseSoTXqz2wb8hLowfn59J4sP7wFTRq2wMFgYpjJXLyPhmUgSVdsaz4m5HilhMtwrxh57ZYzCXnpoZS/jBJ4NjjR/MWA3zMDBhAZ6bTA9ydlIxmUdUeeJoGV3L0a2Wus1FLu+2SYwhJ/S46meEECKZBLJG0jez1h98HH/BqMqpMj10hizUgiuVw/kQiWd1nzoj//yNB+a+527QT00UQ5ZGjLsmKAKEha3aIJMuJO0sEvQKJMU82nLQfkCST+UcENNEQF+qJiuUfHHyucnL8eKUlbwPL3ZFTRlsTRUdvKX2L+FFYN3UtQPviQh3gOiYWxshAGQ7oTZbVR4TSualsSRgmD/ReeQ3NC7zZb+iK45G11sbUl5dsME9GaivCnZPIThgo2a6c3/WwZwH0CGkDqt10ruOVgMOMjbjFUPnkD+mTr0L+ZUb6/oJDuMLPYyiu/IrjK8DbQ5druZYdq4h3MT/xOiJLKdcr9Hdf5LYayfHtRreLsL3JE1EX1jtfffwU4p6oISWP/+waWHAqQFhvWJyv1l1ERAqWhCIZl2Kk/1YIaj2jfl3sPqqoS1/dmrhUNuPy6xQamy2DVUUJx3KM+Trb+S3ALwbA4SjW9vfd1iHMZ4b9gGAgfy3bbU4mpYlAy9q8CrPHihYJEvMW8YSUEWf48QwNkaeOsyLEDiv9C/MJsSqSEmwXiL3qukvm8DQ3IHS+LFaKqYlAKtrZikj8C6C90uGtNJ5Vir2F9jqFspWZVyLokUaTqfdmt5fcDWh/3Hl2kQAIoQYgId2jBBXfu0X/qVLwvo03/faiqCU6nc+1CxoFCBmhComzkW4d9CJ3a/dzz6vdANbmEs9Z8fABOx8Kl2YLsZEeLAQlqMP/1QU3OKAWtUuD+8KTk2Ladb51OPVoIqqP/f6AYuBBGg6VB4rjZ686GAxTonIebmN3BpiV/LIL5d1yARzgEdYlU3gSuReWoYbAP3s/xihgxYsRYMyiN5jE5rrtSI4V5s3YmXDrCeRQd2M3aXyzECEMi/sV136Hw1qMF2yqh69pg4EsI83KmYhk0DdaSwF+V426mwMzEqnA1WA/EwuUKODqOhUKSWcBlwDSaowseCcc14SJoHUkM6N8tsxtEZbIik7CwlkgqprM4ccrCVbIiDSwITyCyGpox2FgwsDaW/7LA9rgoiKvB+i5cyHDXU/gRRFGUcGWWKmqFIM8TceEMrlLANaWqyrRgF0iEqMNRomlqul4A8+GuIEAFv+Ui1TVc7qQFC6MJinX4p90DG2IaqEOCDoCvOZ6D/1VooXqO4FANgBOKbyAKJhFzHDpaTlfhlRy0YJOrBA5V4QQda9qBv849j4u5nKjhgo47tyLF7vM/LvuqeT7q+7PZbDT7MFFJf3YxBisczi5Gsx/83If3F4BZhZHp5YKw6eWQHMCx7/88ZRo/nS1MkUxHQ2zRB6P3s1cXZ53qZZGSR6Pi3TMMfMFp6jkjp+mOn/5pp9l8zXWyk61/BzfXdv/6y0525L/YervZXryuULKXbhJSTe2So83jZvP8DaX9jfpFTjSLqS1iaqS4teOW/+M/3hTTQ0L+nl6QOy3bu2F4mO0T8jbV90uv8CWV5Z5dj0bgMdulAZNepv+nSa6AFNpjD4iQq/Q5OUoNcLpKk87P/rLRISRgiEXTfvaCFODHIeHF1Aty9/40ZHi8WFxk+373slp9A15xutHfSXeQYbEzLF16BVJ1sXJIA4bt4fC48ZqcusPqlDPRa+12sk0eMRQ1MggZNh4vFtfZxX1gCKHs0C3Pe+Vu30+Xth8cQAA8HZk/ppuUtO1Wt3FRg1B51djlksrIXqPVms+fgA3r+xt/m6h0+qBfGJ1NIoaaRAbdCwj2xVK518uk7gVD+HOYmnre29TP/sZ7fzKhqj8vz95brRz0w/G4+5hrGrna3OWQE4INm6ZX3IR+mPpxMgGjHubfz7ACMWDINBVsOINQCT963vBeMMQwfZB9TsHTPPezMwgcOqm2jg6+maWmpN0dkKP0WGIMGOJat8DT0Oom2LA7xh07J/P3zYOj0jF5CgwhoKik5s6IToepIaMPN5flqWvc8iP8vHCAjAVyDYI0uFFmHm089zfK37+6+DD5du6hOzk1v88OaDWF+9Q8Tb3GQWK6B06G7aXO+dv6Rbs9e3S1cUWA5vbkf2V77YuLoqQN0jOisafpF8x8mA4YgmRl62ZIlh9JJVwdWzyoEXH4p9rkhx92dn7Y9b8ZEiZODnZzL5o+85q7FU46O4+gjTLa36lKpN98RIY/nO80dzrFA69ApWHzTWcH8MOUaJPmC7hk56BKeac5DT5DQpWH0m5tDFlQVmoWQFbDR+uMmRpuvwqNDoSkRHQJB53UYGUwxT0rWUHXTKJxkegMl0KJZrSMOxCgEqhyaVlmqUUqabkBE+o9DZo+Vn9/Zp+CfxZQFLNgiS9IUMZxmSU0JA33RGCFYIdv0KQ6anCOVtZQkWOhBk5K4R7eOmUF3P0MzwD6BHeG0rA8rsDC7cFxTwaCO9kFUzw0WB9GmbrG6WGw25tih0yHvl7wh37lYfFpdcx1Pn7YB5Zv/v4QfAqHSPC0WBwO32jS+PViL6fi8QXSf+j5ww7XWLFq/lgsPpxOsPyUdIZVTgvT4tPi8Olw8GbYIVruamvRB9MXi56m9oeV9Y3KBWvGH23skG/BibDOg85kI3u2vXE6IcP0C2hbB6mNAUNbHKfmvXfb/0m2HvRm+ycT8SDdoWT4YPAcDqD66IKcp3q9B/MfVTDvq8a7CjO/mZ+lUr131enGDp20N2aXG69J5V1qIfHhgxpZ29gqR/9STTXJW6tUJJ2NTmX+cuIfdg/IcPMFYZXeT6VFsIXFcXevMpnwfvdbz1ykd4E6MtyoddLOSY7OHpOd1JV31dquMTbYeJ+6IjTn1Vqjiafj1ZvZRcFrb/T1Z/ntMX24cScMez9t1/rAsHWmq5Xe3C9uDimtbvzcm3nYhY67VSIWeLPxlGh+aeR9ZPi+tEVeXQPDKgMmILK39n9236I78VuznEpRGLx84BfU4eZr/fKn5GXu73fC8Lq9SJ8Aw0nrpcjEC7cGepmRwxnZ2RijMz12Ru//XCOn2T3KvHLLv2G48cuo1Wlfkx/SwHDYaBJ9dE7arRrjql+agU9+lGpWuts5SKpSp/zZP87d3TuwYXqHXL8yD0uPsx2v9VInuVEWGRK/9Zerf+BNA0P3+PXrCYi6PZVNWr1KyPCB30l3Ot3RT2DD9B4F+XJOnm/8Y+8v9SH4ZLRhyHB7uyLS6eaheXbozfb/9/4aGQYhH234eOZNzvKNzmT+jJDnpZcgOBfkqTvf31bOKhq20ikFz7MAQUb7pQ+kuQk/b+37nY0q2XLr0A/BhrydvTJ3S9vbc+cDPDu/NcoVaDXdFC+6fUa2UkVzfkTHG/b2WhkyEWy4Cwxz9HkXGfZ++a7XvaJDYNg+q/mToxRubQwMIV9g/tn8lx/b21VIEl/9/Mv8ez5OT2mlXT8iTeeve9fpo5w3f1zxaxfdMSXIUJWu4PntbTz++Zdeb+LNT01p4XZrbF0bYeGTFGn1AeQH31c083y/M3mX2Z9/OzVp8cHD2rvXBc6m24fAsAmscJ3i4OTBg2dFVTNf9x48+Hasdv72nBYG8/9DzkvbvYvvPGm6vQf6ZvEAXI7/7kNOI4/2d5lZfPa37ZM+y/0ZrmVevxsEo4zrAQgp6k0qzJtoTDUnnjmZwH+qpnt+RfQ9FaL0ZMI07k0gp+UmyB6/VqGFQoFO/JppauYkJ2kU4og38Stwnuj5ugZazq9wpvkVsDt8a0q0UvO5qouTiaap3gQ00NpsyFCMmTjki7/CoxAW+6gMN61kGnQ83JSHaQUOlKJtkijRKByo4Y76HNIoEG+aquqBHhV1tYDbzorBRfA3DknwlRU4alcNC3NBJOp0vQkU3CQPdoTA/BeebTDoJ+Lv6FBRKTOQn/AGbraCv+lIxDVq+D3cKQ+2TxLDjYhIoO2CREWlheBVsDiIWXhmkBzj8fDsRBx0JHo4X7wuV8NXdhLlH2fjcdUriaYigndo8Huu8C2VBkvzA0nNb+xBl3McxAwPCx4aRz0U6PrwGpKEm6OuiVqMGDFixIgRI0aMGDFixIgRI0aMGDFixIgRI0aMGDFixIgRI0aMGDFixIgRI0aMGDHuO/4v7EsBtUe0pNYAAAAASUVORK5CYII=;" vertex="1" parent="1">
          <mxGeometry x="50" y="24.07" width="105.93" height="105.93" as="geometry" />
        </mxCell>
        <mxCell id="J4qLSyVt3dmGyAHXw3Ad-20" value="" style="rounded=0;whiteSpace=wrap;html=1;" vertex="1" parent="1">
          <mxGeometry x="82" y="430" width="56" height="20" as="geometry" />
        </mxCell>
        <mxCell id="J4qLSyVt3dmGyAHXw3Ad-21" value="Gender" style="text;strokeColor=none;align=center;fillColor=none;html=1;verticalAlign=middle;whiteSpace=wrap;rounded=0;" vertex="1" parent="1">
          <mxGeometry x="82" y="450" width="60" height="30" as="geometry" />
        </mxCell>
        <mxCell id="J4qLSyVt3dmGyAHXw3Ad-22" value="" style="rounded=0;whiteSpace=wrap;html=1;" vertex="1" parent="1">
          <mxGeometry x="82" y="574.5" width="180" height="20" as="geometry" />
        </mxCell>
        <mxCell id="J4qLSyVt3dmGyAHXw3Ad-23" value="Mobile number" style="text;strokeColor=none;align=center;fillColor=none;html=1;verticalAlign=middle;whiteSpace=wrap;rounded=0;" vertex="1" parent="1">
          <mxGeometry x="82" y="540" width="86" height="30" as="geometry" />
        </mxCell>
        <mxCell id="J4qLSyVt3dmGyAHXw3Ad-24" value="Male" style="text;strokeColor=none;align=center;fillColor=none;html=1;verticalAlign=middle;whiteSpace=wrap;rounded=0;" vertex="1" parent="1">
          <mxGeometry x="94" y="480" width="60" height="30" as="geometry" />
        </mxCell>
        <mxCell id="J4qLSyVt3dmGyAHXw3Ad-25" value="Female" style="text;strokeColor=none;align=center;fillColor=none;html=1;verticalAlign=middle;whiteSpace=wrap;rounded=0;" vertex="1" parent="1">
          <mxGeometry x="95.00000000000003" y="495" width="60" height="30" as="geometry" />
        </mxCell>
        <mxCell id="J4qLSyVt3dmGyAHXw3Ad-26" value="Other" style="text;strokeColor=none;align=center;fillColor=none;html=1;verticalAlign=middle;whiteSpace=wrap;rounded=0;" vertex="1" parent="1">
          <mxGeometry x="94" y="510" width="60" height="30" as="geometry" />
        </mxCell>
        <mxCell id="J4qLSyVt3dmGyAHXw3Ad-31" value="Email Address (optional)" style="text;strokeColor=none;align=center;fillColor=none;html=1;verticalAlign=middle;whiteSpace=wrap;rounded=0;" vertex="1" parent="1">
          <mxGeometry x="80" y="600" width="140" height="20" as="geometry" />
        </mxCell>
        <mxCell id="J4qLSyVt3dmGyAHXw3Ad-32" value="" style="rounded=0;whiteSpace=wrap;html=1;" vertex="1" parent="1">
          <mxGeometry x="80.93" y="630" width="176" height="20" as="geometry" />
        </mxCell>
        <mxCell id="J4qLSyVt3dmGyAHXw3Ad-33" value="City &amp;amp; State" style="text;strokeColor=none;align=center;fillColor=none;html=1;verticalAlign=middle;whiteSpace=wrap;rounded=0;" vertex="1" parent="1">
          <mxGeometry x="80" y="650" width="80" height="30" as="geometry" />
        </mxCell>
        <mxCell id="J4qLSyVt3dmGyAHXw3Ad-34" value="" style="rounded=0;whiteSpace=wrap;html=1;" vertex="1" parent="1">
          <mxGeometry x="84" y="680" width="176" height="20" as="geometry" />
        </mxCell>
        <mxCell id="J4qLSyVt3dmGyAHXw3Ad-39" value="&lt;div&gt;1. Have you ever been diagnosed with a heart condition?&lt;/div&gt;&lt;div&gt;&lt;br&gt;&lt;/div&gt;" style="text;strokeColor=none;align=center;fillColor=none;html=1;verticalAlign=middle;whiteSpace=wrap;rounded=0;" vertex="1" parent="1">
          <mxGeometry x="80" y="780" width="310" height="50" as="geometry" />
        </mxCell>
        <mxCell id="J4qLSyVt3dmGyAHXw3Ad-40" value="&lt;div&gt;2. Have you undergone any heart-related procedure or surgery in the past?&lt;/div&gt;&lt;div&gt;&lt;br&gt;&lt;/div&gt;" style="text;strokeColor=none;align=center;fillColor=none;html=1;verticalAlign=middle;whiteSpace=wrap;rounded=0;" vertex="1" parent="1">
          <mxGeometry x="75.93" y="910" width="300" height="40" as="geometry" />
        </mxCell>
        <mxCell id="J4qLSyVt3dmGyAHXw3Ad-41" value="&lt;div&gt;3. Are you currently experiencing any symptoms that might require immediate medical attention (e.g., chest pain, shortness of breath)?&lt;/div&gt;&lt;div&gt;&lt;br&gt;&lt;/div&gt;" style="text;strokeColor=none;align=center;fillColor=none;html=1;verticalAlign=middle;whiteSpace=wrap;rounded=0;" vertex="1" parent="1">
          <mxGeometry x="50" y="1060" width="410" height="50" as="geometry" />
        </mxCell>
        <mxCell id="J4qLSyVt3dmGyAHXw3Ad-42" value="&lt;div&gt;4. Are you currently undergoing any rehabilitation or post-surgery care for your heart?&lt;/div&gt;&lt;div&gt;&lt;br&gt;&lt;/div&gt;" style="text;strokeColor=none;align=center;fillColor=none;html=1;verticalAlign=middle;whiteSpace=wrap;rounded=0;" vertex="1" parent="1">
          <mxGeometry x="60" y="1200" width="370" height="40" as="geometry" />
        </mxCell>
        <mxCell id="J4qLSyVt3dmGyAHXw3Ad-43" value="&lt;div&gt;5. Are you looking for general heart health awareness and preventive tips?&lt;/div&gt;&lt;div&gt;&lt;br&gt;&lt;/div&gt;" style="text;strokeColor=none;align=center;fillColor=none;html=1;verticalAlign=middle;whiteSpace=wrap;rounded=0;" vertex="1" parent="1">
          <mxGeometry x="70.93" y="1350" width="310" height="70" as="geometry" />
        </mxCell>
        <mxCell id="J4qLSyVt3dmGyAHXw3Ad-45" value="Questionnarie" style="text;strokeColor=none;align=center;fillColor=none;html=1;verticalAlign=middle;whiteSpace=wrap;rounded=0;fontStyle=1;fontSize=15;" vertex="1" parent="1">
          <mxGeometry x="90.93" y="730" width="60" height="30" as="geometry" />
        </mxCell>
        <mxCell id="J4qLSyVt3dmGyAHXw3Ad-48" value="" style="rounded=1;whiteSpace=wrap;html=1;" vertex="1" parent="1">
          <mxGeometry x="129" y="820" width="50" height="30" as="geometry" />
        </mxCell>
        <mxCell id="J4qLSyVt3dmGyAHXw3Ad-49" value="" style="rounded=1;whiteSpace=wrap;html=1;" vertex="1" parent="1">
          <mxGeometry x="225" y="820" width="50" height="30" as="geometry" />
        </mxCell>
        <mxCell id="J4qLSyVt3dmGyAHXw3Ad-52" value="" style="rounded=1;whiteSpace=wrap;html=1;" vertex="1" parent="1">
          <mxGeometry x="129" y="980" width="50" height="30" as="geometry" />
        </mxCell>
        <mxCell id="J4qLSyVt3dmGyAHXw3Ad-53" value="" style="rounded=1;whiteSpace=wrap;html=1;" vertex="1" parent="1">
          <mxGeometry x="225" y="980" width="50" height="30" as="geometry" />
        </mxCell>
        <mxCell id="J4qLSyVt3dmGyAHXw3Ad-54" value="" style="rounded=1;whiteSpace=wrap;html=1;" vertex="1" parent="1">
          <mxGeometry x="129" y="1130" width="50" height="30" as="geometry" />
        </mxCell>
        <mxCell id="J4qLSyVt3dmGyAHXw3Ad-55" value="" style="rounded=1;whiteSpace=wrap;html=1;" vertex="1" parent="1">
          <mxGeometry x="225" y="1130" width="50" height="30" as="geometry" />
        </mxCell>
        <mxCell id="J4qLSyVt3dmGyAHXw3Ad-56" value="" style="rounded=1;whiteSpace=wrap;html=1;" vertex="1" parent="1">
          <mxGeometry x="129" y="1260" width="50" height="30" as="geometry" />
        </mxCell>
        <mxCell id="J4qLSyVt3dmGyAHXw3Ad-57" value="" style="rounded=1;whiteSpace=wrap;html=1;" vertex="1" parent="1">
          <mxGeometry x="225" y="1260" width="50" height="30" as="geometry" />
        </mxCell>
        <mxCell id="J4qLSyVt3dmGyAHXw3Ad-58" value="" style="rounded=1;whiteSpace=wrap;html=1;" vertex="1" parent="1">
          <mxGeometry x="129" y="1420" width="50" height="30" as="geometry" />
        </mxCell>
        <mxCell id="J4qLSyVt3dmGyAHXw3Ad-59" value="" style="rounded=1;whiteSpace=wrap;html=1;" vertex="1" parent="1">
          <mxGeometry x="225" y="1420" width="50" height="30" as="geometry" />
        </mxCell>
        <mxCell id="J4qLSyVt3dmGyAHXw3Ad-46" value="YES" style="text;strokeColor=none;align=center;fillColor=none;html=1;verticalAlign=middle;whiteSpace=wrap;rounded=0;" vertex="1" parent="1">
          <mxGeometry x="124" y="820" width="60" height="30" as="geometry" />
        </mxCell>
        <mxCell id="J4qLSyVt3dmGyAHXw3Ad-50" value="YES" style="text;strokeColor=none;align=center;fillColor=none;html=1;verticalAlign=middle;whiteSpace=wrap;rounded=0;" vertex="1" parent="1">
          <mxGeometry x="124" y="980" width="60" height="30" as="geometry" />
        </mxCell>
        <mxCell id="J4qLSyVt3dmGyAHXw3Ad-47" value="NO" style="text;strokeColor=none;align=center;fillColor=none;html=1;verticalAlign=middle;whiteSpace=wrap;rounded=0;" vertex="1" parent="1">
          <mxGeometry x="220" y="820" width="60" height="30" as="geometry" />
        </mxCell>
        <mxCell id="J4qLSyVt3dmGyAHXw3Ad-51" value="NO" style="text;strokeColor=none;align=center;fillColor=none;html=1;verticalAlign=middle;whiteSpace=wrap;rounded=0;" vertex="1" parent="1">
          <mxGeometry x="220" y="980" width="60" height="30" as="geometry" />
        </mxCell>
        <mxCell id="J4qLSyVt3dmGyAHXw3Ad-60" value="YES" style="text;strokeColor=none;align=center;fillColor=none;html=1;verticalAlign=middle;whiteSpace=wrap;rounded=0;" vertex="1" parent="1">
          <mxGeometry x="124" y="1130" width="60" height="30" as="geometry" />
        </mxCell>
        <mxCell id="J4qLSyVt3dmGyAHXw3Ad-61" value="YES" style="text;strokeColor=none;align=center;fillColor=none;html=1;verticalAlign=middle;whiteSpace=wrap;rounded=0;" vertex="1" parent="1">
          <mxGeometry x="124" y="1260" width="60" height="30" as="geometry" />
        </mxCell>
        <mxCell id="J4qLSyVt3dmGyAHXw3Ad-62" value="YES" style="text;strokeColor=none;align=center;fillColor=none;html=1;verticalAlign=middle;whiteSpace=wrap;rounded=0;" vertex="1" parent="1">
          <mxGeometry x="124" y="1420" width="60" height="30" as="geometry" />
        </mxCell>
        <mxCell id="J4qLSyVt3dmGyAHXw3Ad-63" value="NO" style="text;strokeColor=none;align=center;fillColor=none;html=1;verticalAlign=middle;whiteSpace=wrap;rounded=0;" vertex="1" parent="1">
          <mxGeometry x="220" y="1130" width="60" height="30" as="geometry" />
        </mxCell>
        <mxCell id="J4qLSyVt3dmGyAHXw3Ad-64" value="NO" style="text;strokeColor=none;align=center;fillColor=none;html=1;verticalAlign=middle;whiteSpace=wrap;rounded=0;" vertex="1" parent="1">
          <mxGeometry x="220" y="1260" width="60" height="30" as="geometry" />
        </mxCell>
        <mxCell id="J4qLSyVt3dmGyAHXw3Ad-65" value="NO" style="text;strokeColor=none;align=center;fillColor=none;html=1;verticalAlign=middle;whiteSpace=wrap;rounded=0;" vertex="1" parent="1">
          <mxGeometry x="220" y="1420" width="60" height="30" as="geometry" />
        </mxCell>
        <mxCell id="J4qLSyVt3dmGyAHXw3Ad-66" value="" style="rounded=0;whiteSpace=wrap;html=1;fillColor=#1C1C1C;" vertex="1" parent="1">
          <mxGeometry x="359" y="1500" width="110" height="30" as="geometry" />
        </mxCell>
        <mxCell id="J4qLSyVt3dmGyAHXw3Ad-68" value="Submit" style="text;strokeColor=none;align=center;fillColor=none;html=1;verticalAlign=middle;whiteSpace=wrap;rounded=0;fontColor=light-dark(#ffffff, #ededed);" vertex="1" parent="1">
          <mxGeometry x="390" y="1500" width="60" height="30" as="geometry" />
        </mxCell>
        <mxCell id="J4qLSyVt3dmGyAHXw3Ad-69" value="" style="rounded=0;whiteSpace=wrap;html=1;fillColor=#000000;" vertex="1" parent="1">
          <mxGeometry x="373.43" y="690" width="75" height="30" as="geometry" />
        </mxCell>
        <mxCell id="J4qLSyVt3dmGyAHXw3Ad-70" value="NEXT" style="text;strokeColor=none;align=center;fillColor=none;html=1;verticalAlign=middle;whiteSpace=wrap;rounded=0;fontColor=#FFF7FB;" vertex="1" parent="1">
          <mxGeometry x="380.93" y="690" width="60" height="30" as="geometry" />
        </mxCell>
        <mxCell id="J4qLSyVt3dmGyAHXw3Ad-74" value="(maximum 15 characters)" style="text;strokeColor=none;align=center;fillColor=none;html=1;verticalAlign=middle;whiteSpace=wrap;rounded=0;" vertex="1" parent="1">
          <mxGeometry x="95" y="290" width="150" height="20" as="geometry" />
        </mxCell>
        <mxCell id="J4qLSyVt3dmGyAHXw3Ad-75" value="(maximum 10 characters)" style="text;strokeColor=none;align=center;fillColor=none;html=1;verticalAlign=middle;whiteSpace=wrap;rounded=0;" vertex="1" parent="1">
          <mxGeometry x="90.93" y="340" width="150" height="20" as="geometry" />
        </mxCell>
        <mxCell id="J4qLSyVt3dmGyAHXw3Ad-76" value="(maximum 15 characters)" style="text;strokeColor=none;align=center;fillColor=none;html=1;verticalAlign=middle;whiteSpace=wrap;rounded=0;" vertex="1" parent="1">
          <mxGeometry x="90.93" y="390" width="150" height="20" as="geometry" />
        </mxCell>
        <mxCell id="J4qLSyVt3dmGyAHXw3Ad-78" value="(10 digits)" style="text;strokeColor=none;align=center;fillColor=none;html=1;verticalAlign=middle;whiteSpace=wrap;rounded=0;" vertex="1" parent="1">
          <mxGeometry x="90.93" y="574.5" width="150" height="20" as="geometry" />
        </mxCell>
        <mxCell id="J4qLSyVt3dmGyAHXw3Ad-79" value="(maximum 30 characters)" style="text;strokeColor=none;align=center;fillColor=none;html=1;verticalAlign=middle;whiteSpace=wrap;rounded=0;" vertex="1" parent="1">
          <mxGeometry x="84" y="630" width="150" height="20" as="geometry" />
        </mxCell>
        <mxCell id="J4qLSyVt3dmGyAHXw3Ad-80" value="(maximum 30 characters)" style="text;strokeColor=none;align=center;fillColor=none;html=1;verticalAlign=middle;whiteSpace=wrap;rounded=0;" vertex="1" parent="1">
          <mxGeometry x="90.93" y="680" width="150" height="20" as="geometry" />
        </mxCell>
      </root>
    </mxGraphModel>
  </diagram>
</mxfile>
